<svg width="76" height="37" viewBox="0 0 76 37" fill="none" xmlns="http://www.w3.org/2000/svg">
<mask id="mask0_1_2569" style="mask-type:luminance" maskUnits="userSpaceOnUse" x="0" y="0" width="76" height="37">
<path d="M0.214844 36.9141H75.5522V0.702728H0.214844V36.9141Z" fill="white"/>
</mask>
<g mask="url(#mask0_1_2569)">
<path d="M63.8836 21.1183L62.9438 19.8697L51.6461 19.8679L56.2166 26.4747C51.4252 27.4138 46.9018 23.4056 46.967 18.7496C47.034 13.9904 50.8765 10.4419 55.4724 10.4581C61.4173 10.478 65.5478 15.9267 63.8836 21.1183ZM70.6742 29.2831C70.6742 29.2831 74.0297 24.9058 74.0441 19.2002C74.0713 7.99531 66.216 0.719021 55.2605 0.700924C45.7682 0.686451 38.429 7.61711 37.0908 15.8959H37.0889C36.8372 17.5842 36.8735 19.2563 37.1125 20.9265V20.9247C38.2605 29.0786 45.3227 36.8019 55.3239 36.8037C59.6807 36.8037 62.7609 34.9471 63.3187 34.6521L64.4323 36.1052L75.5507 36.098L70.6742 29.2831Z" fill="white"/>
<path d="M40.6305 15.9664L23.4187 15.9628V24.466H28.0272C28.0272 24.6741 25.6641 26.9686 22.1185 26.9686C18.2162 26.9686 13.7996 23.8906 13.7109 18.9595C13.6185 13.8492 18.0423 10.5015 22.1185 10.6463C25.4269 10.7657 26.6908 11.7103 28.5379 13.5253C28.5379 13.5253 38.9392 13.5326 39.5603 13.5326C38.6133 9.90076 33.5538 0.769653 21.9845 0.755177C11.3659 0.7407 3.73869 9.49541 3.76766 18.6193C3.80207 29.1926 11.9978 36.9141 22.3829 36.9141C33.6154 36.9141 39.8736 27.6889 40.6577 20.8559C40.9474 18.802 40.6305 15.9664 40.6305 15.9664Z" fill="white"/>
</g>
</svg>
