<svg width="204" height="39" viewBox="0 0 204 39" fill="none" xmlns="http://www.w3.org/2000/svg">
<path d="M0 0.804688H14.8806C17.6807 0.804688 19.8692 1.50574 21.3831 2.73105C23.09 4.15348 24.0532 6.23227 24.0532 8.72558C24.0532 11.6111 22.8706 13.4521 20.4646 14.5473V14.6794C23.6143 15.73 25.4106 18.5301 25.4106 21.9439C25.4106 25.183 24.1853 27.721 22.1289 29.2532C20.422 30.4785 18.1461 31.0922 15.1691 31.0922H0.0264175V0.804688H0ZM13.4114 12.6657C15.031 12.6657 16.1689 11.7919 16.1689 9.9956C16.1689 8.28869 14.9436 7.41488 13.3688 7.41488H8.24803V12.623H13.4094L13.4114 12.6657ZM14.1552 24.3946C15.9494 24.3946 17.3048 23.3014 17.3048 21.2856C17.3048 19.1845 15.8824 18.1766 14.1105 18.1766H8.246V24.3905L14.1552 24.3946ZM26.892 0.822981H34.6828V31.1531H26.892V0.822981Z" fill="white"/>
<path d="M36.2383 20.3271C36.2383 13.4995 40.658 8.86035 47.4856 8.86035C54.3132 8.86035 58.6455 13.4995 58.6455 20.3271C58.6455 27.1954 54.3132 31.7939 47.4856 31.7939C40.658 31.7939 36.2383 27.2015 36.2383 20.3271ZM50.9441 20.3271C50.9441 16.5638 49.7188 14.1559 47.3982 14.1559C45.0776 14.1559 43.9438 16.5191 43.9438 20.3271C43.9438 24.1352 45.0817 26.4985 47.3982 26.4985C49.7188 26.5432 50.9441 24.1778 50.9441 20.3271Z" fill="white"/>
<path d="M59.6074 20.3271C59.6074 13.4995 64.0271 8.86035 70.8547 8.86035C77.6824 8.86035 82.0147 13.4995 82.0147 20.3271C82.0147 27.1954 77.6824 31.7939 70.8547 31.7939C64.0271 31.7939 59.6074 27.2015 59.6074 20.3271ZM74.3133 20.3271C74.3133 16.5638 73.0879 14.1559 70.7674 14.1559C68.4468 14.1559 67.3129 16.5191 67.3129 20.3271C67.3129 24.1352 68.4508 26.4985 70.7674 26.4985C73.0879 26.5432 74.3133 24.1778 74.3133 20.3271Z" fill="white"/>
<path d="M83.5918 9.47391H90.8319V12.713H90.964C92.3864 10.1729 94.3778 8.81757 97.4665 8.81757C100.179 8.81757 102.238 10.175 103.288 12.5362H103.42C105.172 9.69138 107.491 8.81757 110.116 8.81757C115.149 8.81757 117.293 12.5362 117.293 17.4822V31.1375H109.677V18.8843C109.677 16.6531 108.976 15.2266 107.052 15.2266C105.17 15.2266 104.207 16.9783 104.207 19.3415V31.1578H96.6781V18.9046C96.6781 16.6735 95.9771 15.2469 94.0527 15.2469C92.171 15.2469 91.2079 16.9985 91.2079 19.3618V31.1781H83.5918V9.51658V9.47391ZM126.921 28.2906H126.833V31.0907H119.612V0.764648H127.205V11.7051H127.337C128.76 9.82347 130.707 8.81961 133.509 8.81961C138.934 8.81961 142.084 13.7209 142.084 20.2396C142.084 27.5915 138.67 31.8385 133.025 31.8385C130.617 31.8385 128.209 30.7006 126.899 28.2926L126.921 28.2906ZM134.317 20.1949C134.317 16.6937 133.047 14.4646 130.729 14.4646C128.41 14.4646 126.921 16.6958 126.921 20.1949C126.921 23.6494 128.408 25.9253 130.729 25.9253C133.049 25.9253 134.317 23.6941 134.317 20.1949ZM142.937 20.2396C142.937 13.4994 147.402 8.77286 153.878 8.77286C157.117 8.77286 159.568 9.77876 161.494 11.573C163.989 13.981 165.127 17.787 165.04 22.2087H150.511C150.816 24.9214 152.13 26.2789 154.406 26.2789C155.719 26.2789 156.902 25.6652 157.383 24.2224H164.692C163.422 29.1684 159.572 31.6597 154.126 31.6597C147.43 31.7044 142.921 27.1953 142.921 20.2396H142.937ZM150.509 18.0085H157.424C157.292 15.3831 155.849 14.0257 154.055 14.0257C151.954 14.0257 150.816 15.5131 150.509 18.0085ZM173.662 13.1926H173.794C175.369 10.173 177.427 9.03498 180.008 9.03498C180.621 9.03498 181.014 9.12236 181.233 9.25445V15.9074H181.058C176.594 15.1189 173.946 17.22 173.946 22.1213V31.1375H166.33V9.51658H173.552V13.1743L173.662 13.1926Z" fill="white"/>
<path d="M182.111 31.1375H189.42C189.684 32.056 190.645 32.9765 192.484 32.9765C194.935 32.9765 195.766 31.4443 195.766 29.2132V27.6383H195.591C194.366 29.0607 192.791 30.089 190.383 30.089C185.699 30.089 181.674 26.6345 181.674 19.8922C181.674 13.6782 185 8.8623 190.034 8.8623C192.919 8.8623 194.717 10.0449 195.855 11.8819H195.987V9.51865H203.203V28.25C203.203 31.7044 201.978 34.4212 200.184 35.9961C198.302 37.703 195.591 38.3593 192.523 38.3593C186.833 38.3593 182.81 35.9961 182.107 31.1375H182.111ZM196.071 19.4939C196.071 16.7811 194.801 14.617 192.57 14.617C190.426 14.617 189.068 16.5434 189.068 19.4939C189.068 22.3794 190.426 24.4826 192.57 24.4826C194.801 24.4826 196.071 22.3388 196.071 19.4939Z" fill="white"/>
</svg>
