<svg width="148" height="38" viewBox="0 0 148 38" fill="none" xmlns="http://www.w3.org/2000/svg">
<path d="M90.0689 11.2251C87.6911 11.2251 85.8234 11.7341 83.9547 12.7501C83.9547 7.32618 83.9547 2.41123 84.1253 0.716797L72.7433 2.74993V3.76698L73.9323 3.93633C75.4596 4.27502 75.9717 5.12175 76.3081 7.15684C76.6505 11.2251 76.4788 32.9219 76.3081 36.4821C79.3658 37.1604 82.5941 37.6694 85.8224 37.6694C94.8256 37.6694 100.261 32.0752 100.261 23.2604C100.261 16.3113 95.8448 11.2251 90.0689 11.2251ZM86.1618 35.8037C85.482 35.8037 84.6315 35.8037 84.1234 35.6353C83.9527 33.2625 83.784 23.2604 83.9527 14.4465C84.9719 14.1069 85.6507 13.9375 86.5012 13.9375C90.2406 13.9375 92.279 18.3444 92.279 23.7674C92.278 30.5501 89.7295 35.8037 86.1618 35.8037ZM29.9346 1.39418H0.0371094V2.91927L1.73612 3.08862C3.94326 3.42731 4.79375 4.78306 5.13218 8.00357C5.64325 14.1059 5.47257 25.1251 5.13218 30.3778C4.79277 33.5993 3.94424 35.1253 1.73612 35.2927L0.0371094 35.6334V36.9891H19.2324V35.6334L17.194 35.2927C14.9858 35.1244 14.1363 33.5993 13.7969 30.3778C13.6262 28.1733 13.4565 24.6132 13.4565 20.2072L17.5334 20.3766C20.0819 20.3766 21.2698 22.4107 21.7799 25.2915H23.3092V13.2601H21.7799C21.2688 16.142 20.0819 18.1751 17.5334 18.1751L13.4575 18.3454C13.4575 12.5818 13.6272 7.15781 13.7979 3.93731H19.7425C24.3304 3.93731 26.7082 6.81814 28.4063 11.9044L30.1053 11.3954L29.9346 1.39418Z" fill="white"/>
<path d="M39.6169 10.8859C48.111 10.8859 52.3575 16.6495 52.3575 24.2769C52.3575 31.5656 47.6009 37.6699 39.1068 37.6699C30.6137 37.6699 26.3672 31.9053 26.3672 24.2769C26.3672 16.9882 31.1228 10.8859 39.6169 10.8859ZM39.1068 12.5813C35.3694 12.5813 34.3502 17.6666 34.3502 24.2769C34.3502 30.7179 36.0492 35.9726 39.4472 35.9726C43.3514 35.9726 44.3726 30.8873 44.3726 24.2769C44.3726 17.8359 42.6755 12.5813 39.1068 12.5813ZM102.468 24.4472C102.468 17.4972 106.884 10.8859 115.548 10.8859C122.68 10.8859 126.079 16.1415 126.079 23.0905H110.281C110.11 29.3622 113.168 33.9394 119.284 33.9394C122.002 33.9394 123.361 33.263 125.061 32.0756L125.739 32.9224C124.04 35.2952 120.303 37.6699 115.548 37.6699C107.903 37.669 102.468 32.245 102.468 24.4472ZM110.281 21.2267L118.265 21.0564C118.265 17.6666 117.755 12.5813 114.868 12.5813C111.981 12.5813 110.45 17.3269 110.281 21.2267ZM146.296 12.2426C144.258 11.3939 141.541 10.8859 138.483 10.8859C132.199 10.8859 128.29 14.6144 128.29 19.0223C128.29 23.4302 131.175 25.294 135.257 26.6507C139.502 28.1748 140.692 29.3622 140.692 31.3963C140.692 33.4304 139.163 35.2942 136.445 35.2942C133.218 35.2942 130.839 33.4304 128.971 28.3442L127.781 28.6848L127.952 36.1429C129.99 36.9896 133.727 37.669 136.955 37.669C143.58 37.669 147.828 34.2771 147.828 29.0235C147.828 25.4633 145.958 23.4302 141.542 21.7338C136.784 19.87 135.087 18.6836 135.087 16.4792C135.087 14.2757 136.618 12.7497 138.657 12.7497C141.712 12.7497 143.751 14.6144 145.282 19.1917L146.47 18.853L146.296 12.2426ZM74.4397 11.5642C71.5528 9.87078 66.4558 10.7165 63.7385 16.8198L63.9073 10.8869L52.5272 13.0903V14.1074L53.7161 14.2767C55.2464 14.447 55.9243 15.2938 56.095 17.4982C56.4344 21.5664 56.2647 28.6868 56.095 32.246C55.9243 34.2781 55.2464 35.2952 53.7161 35.4655L52.5272 35.6358V36.9916H68.3245V35.6358L66.2861 35.4655C64.588 35.2952 64.0779 34.2781 63.9073 32.246C63.5678 29.0245 63.5679 22.5835 63.7385 18.5152C64.5871 17.3279 68.3245 16.3118 71.7215 18.5152L74.4397 11.5642Z" fill="white"/>
</svg>
