<svg xmlns="http://www.w3.org/2000/svg" width="195" height="240" fill="none"><g filter="url(#a)"><circle cx="98" cy="96.92" r="15" fill="#242423"/></g><circle cx="98" cy="96.92" r="15" fill="#242423"/><path fill="#242423" fill-rule="evenodd" d="M102 160.797c33.483-2.065 60-29.874 60-63.877 0-35.346-28.654-64-64-64-35.346 0-64 28.654-64 64 0 33.664 25.99 61.257 59 63.807v1.003c-33.562-2.553-60-30.594-60-64.81 0-35.899 29.102-65 65-65 35.899 0 65 29.101 65 65 0 34.555-26.964 62.813-61 64.879v-1.002Z" clip-rule="evenodd"/><path fill="#242423" d="m32.885 147.479-2.542-3.906a5.653 5.653 0 0 1 1.607-.353 4.79 4.79 0 0 1 1.607.123 4.344 4.344 0 0 1 1.523.727c.466.349.888.814 1.266 1.395.538.827.83 1.703.875 2.628a5.255 5.255 0 0 1-.578 2.667c-.439.842-1.11 1.558-2.016 2.147-.916.596-1.842.921-2.779.973a5.252 5.252 0 0 1-2.673-.551c-.827-.416-1.51-1.037-2.048-1.864-.582-.894-.909-1.787-.98-2.679a4.538 4.538 0 0 1 .454-2.491l-1.576-.406a5.826 5.826 0 0 0-.567 2.135c-.056.72.02 1.45.23 2.188.203.727.541 1.454 1.014 2.18a7.268 7.268 0 0 0 1.99 2.069 6.5 6.5 0 0 0 2.49 1.076 6.846 6.846 0 0 0 2.73.014c.926-.19 1.825-.568 2.697-1.135.872-.567 1.582-1.236 2.13-2.007a7.082 7.082 0 0 0 1.11-2.512 6.903 6.903 0 0 0 .024-2.712 7.517 7.517 0 0 0-1.102-2.647c-.582-.894-1.26-1.582-2.035-2.064a6.232 6.232 0 0 0-2.514-.893 7.099 7.099 0 0 0-2.654.175 8.754 8.754 0 0 0-2.57 1.148l3.546 5.448 1.34-.873ZM22.372 108.619c-.078-.983-.337-1.819-.779-2.506-.456-.7-1.088-1.259-1.897-1.677l-.716 1.36c.585.289 1.035.661 1.352 1.118.303.457.48.999.529 1.623.049.625-.043 1.167-.274 1.627a2.52 2.52 0 0 1-1.078 1.088c-.487.265-1.09.426-1.808.483-.705.042-1.306-.032-1.803-.22-.51-.201-.908-.504-1.194-.909-.3-.418-.475-.933-.523-1.544-.04-.519.037-.979.233-1.383.195-.403.484-.726.866-.97.381-.258.844-.408 1.39-.451.092-.007.214.004.363.032.136.03.239.062.308.096l-.967-.566.517 6.58 1.356-.106-.616-7.836-.179.014a2.482 2.482 0 0 0-.3.003c-.971.076-1.795.315-2.472.716a3.686 3.686 0 0 0-1.498 1.622c-.335.668-.467 1.455-.396 2.358.07.904.332 1.686.786 2.346a4.22 4.22 0 0 0 1.8 1.464c.747.316 1.599.436 2.556.361.944-.074 1.76-.319 2.45-.734a4.322 4.322 0 0 0 1.574-1.669c.347-.696.486-1.469.42-2.32ZM14.184 77.953l1.425.47 1.438-4.37-1.425-.47-1.438 4.37Zm-2.571-2.425 11.779 3.877.5-1.52-11.779-3.877-.5 1.52ZM41.91 26.359 50.117 37.7l1.378-.997-8.208-11.342-1.377.997ZM73.1 19.248l1.486 5.4 1.542-.425-1.538-5.592c-.294-1.067-.802-1.834-1.524-2.299-.714-.48-1.54-.593-2.478-.334-.578.159-1.057.429-1.436.81-.367.377-.624.877-.77 1.498l-.383-1.389-1.542.425 2.44 8.87 1.543-.424-1.486-5.4a2.493 2.493 0 0 1-.048-1.23c.1-.388.294-.718.578-.99a2.511 2.511 0 0 1 1.116-.618c.617-.17 1.138-.112 1.562.172.424.284.737.793.938 1.526ZM128.686 13.774l3.226 1.599-5.508 11.11 1.523.754 5.508-11.11 3.225 1.6.711-1.434-7.974-3.953-.711 1.434ZM154.126 38.496c-.718.576-1.233 1.254-1.547 2.036a4.671 4.671 0 0 0-.25 2.405c.128.82.471 1.579 1.03 2.276.568.707 1.233 1.207 1.998 1.5.773.303 1.569.39 2.39.263.839-.126 1.617-.477 2.335-1.053.728-.584 1.239-1.267 1.534-2.05.303-.773.391-1.57.263-2.39-.12-.81-.463-1.569-1.03-2.276-.559-.697-1.225-1.197-1.998-1.5a4.674 4.674 0 0 0-2.402-.278c-.821.128-1.595.484-2.323 1.067Zm1.014 1.264c.499-.4 1.024-.65 1.576-.751a3.08 3.08 0 0 1 1.621.135c.519.2.966.533 1.341 1.001.376.468.6.972.674 1.511a2.9 2.9 0 0 1-.22 1.612c-.21.527-.564.991-1.064 1.392-.499.4-1.029.645-1.589.736-.551.1-1.092.055-1.621-.136-.51-.189-.953-.517-1.328-.985a3.151 3.151 0 0 1-.686-1.527 3.28 3.28 0 0 1 .22-1.612c.218-.517.576-.975 1.076-1.376ZM173.79 72.1l5.455-1.268-.363-1.559-5.649 1.314c-1.065.247-1.851.724-2.357 1.43-.507.707-.651 1.528-.434 2.463.139.597.39 1.087.752 1.468.376.378.864.655 1.466.83l-1.402.325.362 1.559 8.961-2.084-.363-1.558-5.454 1.268a2.358 2.358 0 0 1-1.237-.02 2.02 2.02 0 0 1-.984-.613c-.26-.296-.443-.67-.549-1.125-.145-.624-.061-1.143.254-1.558.314-.415.828-.706 1.542-.872ZM178.493 105.824c.626.131 1.154.378 1.582.74.439.377.747.823.926 1.338a3.16 3.16 0 0 1 .079 1.671 3.9 3.9 0 0 1-.517 1.302 3.71 3.71 0 0 1-.821.993c-.314.261-.634.426-.961.493l1.957.41c.431-.237.806-.628 1.125-1.175.328-.53.557-1.102.685-1.716.183-.874.146-1.706-.111-2.495a4.674 4.674 0 0 0-1.312-2.032c-.62-.552-1.387-.923-2.3-1.115-.901-.188-1.752-.155-2.555.1a4.672 4.672 0 0 0-2.016 1.335c-.552.62-.919 1.367-1.102 2.242a5.574 5.574 0 0 0-.079 1.843c.086.631.279 1.141.579 1.531l1.957.409c-.26-.19-.487-.47-.683-.837a4.06 4.06 0 0 1-.373-1.243 4.224 4.224 0 0 1 .067-1.396c.123-.587.37-1.087.743-1.5a3.283 3.283 0 0 1 1.384-.854c.537-.16 1.119-.175 1.746-.044ZM175.692 146.329l.957-1.283-12.505-9.327-.956 1.283 12.504 9.327Zm-10.586-2.532-4.489-3.348-.957 1.282 4.649 3.468c.642.478 1.256.77 1.843.875a2.607 2.607 0 0 0 1.619-.164c.493-.215.931-.579 1.313-1.092.383-.513.588-1.067.616-1.661a3.468 3.468 0 0 0-.409-1.727c-.281-.56-.716-1.059-1.304-1.497l-.311.417c.353.263.613.573.779.93a2.2 2.2 0 0 1 .167 1.147 2.51 2.51 0 0 1-.501 1.174c-.391.523-.837.798-1.338.823-.509.036-1.068-.173-1.677-.627Z"/><path stroke="#242423" stroke-linecap="round" stroke-width="2" d="M98 90.92v148"/><defs><filter id="a" width="78" height="78" x="59" y="57.92" color-interpolation-filters="sRGB" filterUnits="userSpaceOnUse"><feFlood flood-opacity="0" result="BackgroundImageFix"/><feBlend in="SourceGraphic" in2="BackgroundImageFix" result="shape"/><feGaussianBlur result="effect1_foregroundBlur_1_1922" stdDeviation="12"/></filter></defs></svg>