<svg xmlns="http://www.w3.org/2000/svg" width="862" height="820" fill="none"><path fill="#242423" fill-opacity=".7" d="M671.61 801.97c0-1.367.3-2.559.9-3.575.617-1.034 1.417-1.842 2.4-2.425a6.157 6.157 0 0 1 3.2-.875c.834 0 1.592.108 2.275.325.7.216 1.334.525 1.9.925.567.383 1.05.833 1.45 1.35v-2.8a7.444 7.444 0 0 0-2.4-1.45c-.866-.317-1.941-.475-3.225-.475a8.724 8.724 0 0 0-3.425.675 8.247 8.247 0 0 0-2.775 1.875c-.8.8-1.425 1.75-1.875 2.85-.45 1.1-.675 2.3-.675 3.6 0 1.3.225 2.5.675 3.6a8.854 8.854 0 0 0 1.875 2.875c.8.8 1.725 1.425 2.775 1.875a9.022 9.022 0 0 0 3.425.65c1.284 0 2.359-.159 3.225-.475a7.462 7.462 0 0 0 2.4-1.45v-2.8c-.4.516-.883.975-1.45 1.375-.566.383-1.2.683-1.9.9-.683.216-1.441.325-2.275.325a6.166 6.166 0 0 1-3.2-.875c-.983-.584-1.783-1.392-2.4-2.425-.6-1.034-.9-2.225-.9-3.575Zm14.74 3c0 1.15.258 2.183.775 3.1.533.9 1.25 1.608 2.15 2.125.9.516 1.908.775 3.025.775 1.133 0 2.141-.259 3.025-.775a5.66 5.66 0 0 0 2.125-2.125c.533-.917.8-1.95.8-3.1 0-1.167-.267-2.2-.8-3.1a5.652 5.652 0 0 0-2.125-2.125c-.884-.517-1.892-.775-3.025-.775-1.117 0-2.125.258-3.025.775a5.835 5.835 0 0 0-2.15 2.125c-.517.9-.775 1.933-.775 3.1Zm2.025 0c0-.8.166-1.509.5-2.125a3.842 3.842 0 0 1 1.4-1.475c.6-.35 1.275-.525 2.025-.525s1.416.175 2 .525c.6.35 1.066.841 1.4 1.475.35.616.525 1.325.525 2.125s-.175 1.508-.525 2.125a3.852 3.852 0 0 1-1.4 1.475c-.584.35-1.25.525-2 .525s-1.425-.175-2.025-.525a4.105 4.105 0 0 1-1.4-1.475c-.334-.617-.5-1.325-.5-2.125Zm28.372-1.5c0-.95-.15-1.759-.45-2.425-.283-.684-.7-1.2-1.25-1.55-.55-.35-1.217-.525-2-.525-.767 0-1.45.183-2.05.55-.6.35-1.1.883-1.5 1.6-.267-.684-.692-1.209-1.275-1.575-.567-.384-1.25-.575-2.05-.575-.717 0-1.342.158-1.875.475-.517.316-.95.8-1.3 1.45v-1.675h-2v11.5h2v-7c0-.6.108-1.117.325-1.55.217-.434.525-.759.925-.975.4-.234.875-.35 1.425-.35.75 0 1.3.233 1.65.7.367.466.55 1.191.55 2.175v7h2v-7c0-.6.108-1.117.325-1.55.217-.434.525-.759.925-.975.4-.234.875-.35 1.425-.35.75 0 1.3.233 1.65.7.367.466.55 1.191.55 2.175v7h2v-7.25Zm5.632-12.25h-2v19.5h2v-19.5Zm9.625 13.75c0-1.25-.258-2.317-.775-3.2-.517-.9-1.208-1.592-2.075-2.075-.85-.484-1.8-.725-2.85-.725-.95 0-1.792.241-2.525.725-.717.483-1.283 1.175-1.7 2.075-.4.883-.6 1.95-.6 3.2 0 1.233.2 2.3.6 3.2.417.9.983 1.591 1.7 2.075.733.483 1.575.725 2.525.725 1.05 0 2-.242 2.85-.725.867-.484 1.558-1.175 2.075-2.075.517-.9.775-1.967.775-3.2Zm-2.025 0c0 .883-.183 1.633-.55 2.25a3.496 3.496 0 0 1-1.425 1.4 4.026 4.026 0 0 1-1.95.475c-.583 0-1.158-.159-1.725-.475-.567-.317-1.033-.784-1.4-1.4-.367-.617-.55-1.367-.55-2.25 0-.884.183-1.634.55-2.25.367-.617.833-1.084 1.4-1.4.567-.317 1.142-.475 1.725-.475.717 0 1.367.158 1.95.475.6.316 1.075.783 1.425 1.4.367.616.55 1.366.55 2.25Zm4.783-10.5c0 .366.133.691.4.975.283.266.608.4.975.4.383 0 .708-.134.975-.4.266-.284.4-.609.4-.975 0-.384-.134-.709-.4-.975a1.327 1.327 0 0 0-.975-.4 1.38 1.38 0 0 0-.975.4c-.267.266-.4.591-.4.975Zm.375 4.75v11.5h2v-11.5h-2Zm13.494 4.5v7h2v-7.25c0-1.384-.358-2.475-1.075-3.275-.7-.817-1.658-1.225-2.875-1.225-.75 0-1.417.166-2 .5-.567.333-1.042.85-1.425 1.55v-1.8h-2v11.5h2v-7c0-.567.117-1.067.35-1.5.25-.434.592-.767 1.025-1 .45-.25.967-.375 1.55-.375.8 0 1.408.241 1.825.725.417.483.625 1.2.625 2.15Zm10.21 7.25c1.233 0 2.3-.242 3.2-.725.916-.5 1.675-1.234 2.275-2.2l-1.625-1.025c-.417.7-.925 1.225-1.525 1.575-.6.333-1.292.5-2.075.5-.784 0-1.45-.167-2-.5-.55-.334-.967-.817-1.25-1.45-.284-.634-.425-1.4-.425-2.3.016-.884.166-1.625.45-2.225.3-.617.716-1.084 1.25-1.4.55-.334 1.208-.5 1.975-.5.65 0 1.216.141 1.7.425a2.94 2.94 0 0 1 1.125 1.175c.283.5.425 1.091.425 1.775 0 .116-.025.266-.075.45-.05.166-.1.291-.15.375l.8-1.15h-8.25v1.7h9.825v-.225c.016-.134.025-.259.025-.375 0-1.217-.217-2.267-.65-3.15-.434-.884-1.059-1.559-1.875-2.025-.8-.484-1.767-.725-2.9-.725-1.134 0-2.134.25-3 .75-.85.5-1.517 1.2-2 2.1-.467.9-.7 1.95-.7 3.15 0 1.183.225 2.225.675 3.125a5.394 5.394 0 0 0 1.925 2.125c.833.5 1.783.75 2.85.75Zm17.041-19.75v19.5h2v-19.5h-2Zm-9.625 13.75c0 1.233.258 2.3.775 3.2.517.9 1.208 1.591 2.075 2.075a5.758 5.758 0 0 0 2.85.725c.967 0 1.808-.242 2.525-.725.717-.484 1.275-1.175 1.675-2.075.417-.9.625-1.967.625-3.2 0-1.25-.208-2.317-.625-3.2-.4-.9-.958-1.592-1.675-2.075-.717-.484-1.558-.725-2.525-.725a5.748 5.748 0 0 0-2.85.725c-.867.483-1.558 1.175-2.075 2.075-.517.883-.775 1.95-.775 3.2Zm2.025 0c0-.884.175-1.634.525-2.25a3.649 3.649 0 0 1 1.45-1.4 4.11 4.11 0 0 1 1.95-.475c.583 0 1.158.158 1.725.475.567.316 1.033.783 1.4 1.4.367.616.55 1.366.55 2.25 0 .883-.183 1.633-.55 2.25-.367.616-.833 1.083-1.4 1.4-.567.316-1.142.475-1.725.475-.7 0-1.35-.159-1.95-.475a3.662 3.662 0 0 1-1.45-1.4c-.35-.617-.525-1.367-.525-2.25ZM470.521 795.22h7.825v-2h-7.825v2Zm0 7h7.575v-2h-7.575v2Zm-1.175-9v17.5h2.125v-17.5h-2.125Zm12.375 1.25c0 .366.134.691.4.975.284.266.609.4.975.4.384 0 .709-.134.975-.4.267-.284.4-.609.4-.975 0-.384-.133-.709-.4-.975a1.323 1.323 0 0 0-.975-.4c-.366 0-.691.133-.975.4-.266.266-.4.591-.4.975Zm.375 4.75v11.5h2v-11.5h-2Zm13.494 4.5v7h2v-7.25c0-1.384-.358-2.475-1.075-3.275-.7-.817-1.658-1.225-2.875-1.225-.75 0-1.416.166-2 .5-.566.333-1.041.85-1.425 1.55v-1.8h-2v11.5h2v-7c0-.567.117-1.067.35-1.5.25-.434.592-.767 1.025-1 .45-.25.967-.375 1.55-.375.8 0 1.409.241 1.825.725.417.483.625 1.2.625 2.15Zm6.66 3.45c0-.417.1-.775.3-1.075.2-.3.5-.534.9-.7.417-.167.95-.25 1.6-.25.7 0 1.358.091 1.975.275a5.88 5.88 0 0 1 1.8.85v-1.175c-.117-.15-.342-.342-.675-.575-.333-.25-.783-.467-1.35-.65-.55-.2-1.242-.3-2.075-.3-1.417 0-2.525.341-3.325 1.025-.783.666-1.175 1.558-1.175 2.675 0 .783.183 1.45.55 2 .367.55.85.975 1.45 1.275a4.68 4.68 0 0 0 1.975.425c.633 0 1.267-.117 1.9-.35a3.925 3.925 0 0 0 1.625-1.075c.45-.484.675-1.092.675-1.825l-.4-1.5a2.895 2.895 0 0 1-1.625 2.65c-.483.25-1.033.375-1.65.375-.483 0-.917-.075-1.3-.225a2.084 2.084 0 0 1-.875-.725c-.2-.317-.3-.692-.3-1.125Zm-.3-5.3c.183-.134.433-.292.75-.475.317-.184.7-.342 1.15-.475.467-.134.983-.2 1.55-.2.35 0 .683.033 1 .1.317.066.592.175.825.325.25.15.442.358.575.625.133.25.2.575.2.975v7.975h2v-8.25c0-.75-.192-1.384-.575-1.9-.367-.517-.892-.909-1.575-1.175-.667-.284-1.45-.425-2.35-.425-1.067 0-1.983.158-2.75.475-.75.316-1.342.633-1.775.95l.975 1.475Zm11.911 5.325-1.575.975a5.2 5.2 0 0 0 .95 1.325 5.41 5.41 0 0 0 1.575 1.075c.617.266 1.309.4 2.075.4 1.184 0 2.134-.334 2.85-1 .734-.667 1.1-1.5 1.1-2.5 0-.684-.166-1.242-.5-1.675-.316-.434-.75-.8-1.3-1.1a14.144 14.144 0 0 0-1.825-.875c-.4-.167-.783-.342-1.15-.525a3.475 3.475 0 0 1-.9-.625c-.233-.234-.35-.5-.35-.8 0-.384.15-.667.45-.85.3-.184.659-.275 1.075-.275.6 0 1.134.141 1.6.425.484.283.884.641 1.2 1.075l1.6-1.025a3.721 3.721 0 0 0-.975-1.15c-.416-.334-.9-.6-1.45-.8a4.87 4.87 0 0 0-1.725-.3c-.616 0-1.216.108-1.8.325a3.28 3.28 0 0 0-1.4 1c-.35.45-.525 1.016-.525 1.7 0 .666.167 1.225.5 1.675.35.433.775.791 1.275 1.075.517.266 1.025.5 1.525.7.45.166.875.35 1.275.55.4.183.725.416.975.7.267.266.4.6.4 1 0 .45-.166.808-.5 1.075-.316.25-.758.375-1.325.375-.466 0-.9-.084-1.3-.25a3.71 3.71 0 0 1-1.025-.725c-.3-.3-.566-.625-.8-.975Zm7.858-7.975v1.875h5.75v-1.875h-5.75Zm1.875-4v15.5h2v-15.5h-2Zm10.331 15.75c1.233 0 2.3-.242 3.2-.725.917-.5 1.675-1.234 2.275-2.2l-1.625-1.025c-.417.7-.925 1.225-1.525 1.575-.6.333-1.292.5-2.075.5-.783 0-1.45-.167-2-.5-.55-.334-.967-.817-1.25-1.45-.283-.634-.425-1.4-.425-2.3.017-.884.167-1.625.45-2.225.3-.617.717-1.084 1.25-1.4.55-.334 1.208-.5 1.975-.5.65 0 1.217.141 1.7.425A2.94 2.94 0 0 1 537 802.32c.283.5.425 1.091.425 1.775 0 .116-.025.266-.075.45-.05.166-.1.291-.15.375l.8-1.15h-8.25v1.7h9.825v-.225c.017-.134.025-.259.025-.375 0-1.217-.217-2.267-.65-3.15-.433-.884-1.058-1.559-1.875-2.025-.8-.484-1.767-.725-2.9-.725s-2.133.25-3 .75c-.85.5-1.517 1.2-2 2.1-.467.9-.7 1.95-.7 3.15 0 1.183.225 2.225.675 3.125.467.9 1.108 1.608 1.925 2.125.833.5 1.783.75 2.85.75Zm10.416-11.75h-2v11.5h2v-11.5Zm3.475 2.2 1.1-1.65c-.3-.317-.633-.525-1-.625a3.607 3.607 0 0 0-1.15-.175c-.533 0-1.058.208-1.575.625-.516.416-.941.983-1.275 1.7-.316.7-.475 1.508-.475 2.425h.9c0-.55.05-1.042.15-1.475.117-.434.317-.775.6-1.025.284-.25.675-.375 1.175-.375.334 0 .609.05.825.15.217.083.459.225.725.425Zm3.095-6.95c0 .366.133.691.4.975.283.266.608.4.975.4.383 0 .708-.134.975-.4.266-.284.4-.609.4-.975 0-.384-.134-.709-.4-.975a1.327 1.327 0 0 0-.975-.4 1.38 1.38 0 0 0-.975.4c-.267.266-.4.591-.4.975Zm.375 4.75v11.5h2v-11.5h-2Zm14.744-8v19.5h2v-19.5h-2Zm-9.625 13.75c0 1.233.258 2.3.775 3.2a5.394 5.394 0 0 0 2.075 2.075 5.753 5.753 0 0 0 2.85.725c.966 0 1.808-.242 2.525-.725.716-.484 1.275-1.175 1.675-2.075.416-.9.625-1.967.625-3.2 0-1.25-.209-2.317-.625-3.2-.4-.9-.959-1.592-1.675-2.075-.717-.484-1.559-.725-2.525-.725a5.742 5.742 0 0 0-2.85.725c-.867.483-1.559 1.175-2.075 2.075-.517.883-.775 1.95-.775 3.2Zm2.025 0c0-.884.175-1.634.525-2.25a3.643 3.643 0 0 1 1.45-1.4 4.11 4.11 0 0 1 1.95-.475c.583 0 1.158.158 1.725.475.566.316 1.033.783 1.4 1.4.366.616.55 1.366.55 2.25 0 .883-.184 1.633-.55 2.25-.367.616-.834 1.083-1.4 1.4-.567.316-1.142.475-1.725.475-.7 0-1.35-.159-1.95-.475a3.656 3.656 0 0 1-1.45-1.4c-.35-.617-.525-1.367-.525-2.25Zm17.683 6c1.233 0 2.3-.242 3.2-.725.916-.5 1.675-1.234 2.275-2.2l-1.625-1.025c-.417.7-.925 1.225-1.525 1.575-.6.333-1.292.5-2.075.5-.784 0-1.45-.167-2-.5-.55-.334-.967-.817-1.25-1.45-.284-.634-.425-1.4-.425-2.3.016-.884.166-1.625.45-2.225.3-.617.716-1.084 1.25-1.4.55-.334 1.208-.5 1.975-.5.65 0 1.216.141 1.7.425a2.94 2.94 0 0 1 1.125 1.175c.283.5.425 1.091.425 1.775 0 .116-.025.266-.075.45-.05.166-.1.291-.15.375l.8-1.15h-8.25v1.7h9.825v-.225c.016-.134.025-.259.025-.375 0-1.217-.217-2.267-.65-3.15-.434-.884-1.059-1.559-1.875-2.025-.8-.484-1.767-.725-2.9-.725-1.134 0-2.134.25-3 .75-.85.5-1.517 1.2-2 2.1-.467.9-.7 1.95-.7 3.15 0 1.183.225 2.225.675 3.125a5.394 5.394 0 0 0 1.925 2.125c.833.5 1.783.75 2.85.75ZM289.597 798.895l5.7 10.2 5.7-10.2 1.3 11.825h2.125l-2.125-18.375-7 12.675-7-12.675-2.125 18.375h2.125l1.3-11.825Zm17.69-4.425c0 .366.133.691.4.975.283.266.608.4.975.4.383 0 .708-.134.975-.4.266-.284.4-.609.4-.975 0-.384-.134-.709-.4-.975a1.327 1.327 0 0 0-.975-.4 1.38 1.38 0 0 0-.975.4c-.267.266-.4.591-.4.975Zm.375 4.75v11.5h2v-11.5h-2Zm13.494 4.5v7h2v-7.25c0-1.384-.359-2.475-1.075-3.275-.7-.817-1.659-1.225-2.875-1.225-.75 0-1.417.166-2 .5-.567.333-1.042.85-1.425 1.55v-1.8h-2v11.5h2v-7c0-.567.116-1.067.35-1.5a2.56 2.56 0 0 1 1.025-1c.45-.25.966-.375 1.55-.375.8 0 1.408.241 1.825.725.416.483.625 1.2.625 2.15Zm4.76 1.25c0 1.15.258 2.183.775 3.1.533.9 1.25 1.608 2.15 2.125.9.516 1.908.775 3.025.775 1.133 0 2.141-.259 3.025-.775a5.66 5.66 0 0 0 2.125-2.125c.533-.917.8-1.95.8-3.1 0-1.167-.267-2.2-.8-3.1a5.652 5.652 0 0 0-2.125-2.125c-.884-.517-1.892-.775-3.025-.775-1.117 0-2.125.258-3.025.775a5.835 5.835 0 0 0-2.15 2.125c-.517.9-.775 1.933-.775 3.1Zm2.025 0c0-.8.166-1.509.5-2.125a3.842 3.842 0 0 1 1.4-1.475c.6-.35 1.275-.525 2.025-.525s1.416.175 2 .525c.6.35 1.066.841 1.4 1.475.35.616.525 1.325.525 2.125s-.175 1.508-.525 2.125a3.852 3.852 0 0 1-1.4 1.475c-.584.35-1.25.525-2 .525s-1.425-.175-2.025-.525a4.105 4.105 0 0 1-1.4-1.475c-.334-.617-.5-1.325-.5-2.125Zm18.381-5.75-2.75 4-2.75-4h-2.25l3.925 5.575-4.175 5.925h2.25l3-4.35 3 4.35h2.25l-4.175-5.925 3.925-5.575h-2.25Zm4.373-4.75c0 .366.133.691.4.975.283.266.608.4.975.4.383 0 .708-.134.975-.4.266-.284.4-.609.4-.975 0-.384-.134-.709-.4-.975a1.327 1.327 0 0 0-.975-.4 1.38 1.38 0 0 0-.975.4c-.267.266-.4.591-.4.975Zm.375 4.75v11.5h2v-11.5h-2Zm14.744-8v19.5h2v-19.5h-2Zm-9.625 13.75c0 1.233.258 2.3.775 3.2.517.9 1.208 1.591 2.075 2.075a5.758 5.758 0 0 0 2.85.725c.967 0 1.808-.242 2.525-.725.717-.484 1.275-1.175 1.675-2.075.417-.9.625-1.967.625-3.2 0-1.25-.208-2.317-.625-3.2-.4-.9-.958-1.592-1.675-2.075-.717-.484-1.558-.725-2.525-.725a5.748 5.748 0 0 0-2.85.725c-.867.483-1.558 1.175-2.075 2.075-.517.883-.775 1.95-.775 3.2Zm2.025 0c0-.884.175-1.634.525-2.25a3.649 3.649 0 0 1 1.45-1.4 4.11 4.11 0 0 1 1.95-.475c.583 0 1.158.158 1.725.475.567.316 1.033.783 1.4 1.4.367.616.55 1.366.55 2.25 0 .883-.183 1.633-.55 2.25-.367.616-.833 1.083-1.4 1.4-.567.316-1.142.475-1.725.475-.7 0-1.35-.159-1.95-.475a3.662 3.662 0 0 1-1.45-1.4c-.35-.617-.525-1.367-.525-2.25Zm13.233-10.5c0 .366.133.691.4.975.283.266.608.4.975.4.383 0 .708-.134.975-.4.266-.284.4-.609.4-.975 0-.384-.134-.709-.4-.975a1.327 1.327 0 0 0-.975-.4 1.38 1.38 0 0 0-.975.4c-.267.266-.4.591-.4.975Zm.375 4.75v11.5h2v-11.5h-2Zm6.119-8v19.5h2v-19.5h-2ZM88.814 805.42l-1.7 1.15c.383.766.875 1.491 1.475 2.175a7.773 7.773 0 0 0 2.125 1.625c.817.4 1.7.6 2.65.6.7 0 1.367-.117 2-.35a5.402 5.402 0 0 0 1.725-1 4.474 4.474 0 0 0 1.2-1.575c.3-.617.45-1.309.45-2.075 0-.8-.142-1.484-.425-2.05a4.678 4.678 0 0 0-1.1-1.475 6.032 6.032 0 0 0-1.425-1.025 11.986 11.986 0 0 0-1.475-.65c-1.017-.35-1.825-.7-2.425-1.05-.583-.367-1-.75-1.25-1.15a2.58 2.58 0 0 1-.375-1.35c0-.567.217-1.075.65-1.525.433-.467 1.125-.7 2.075-.7.683 0 1.258.133 1.725.4a4.05 4.05 0 0 1 1.225 1.025c.333.416.608.841.825 1.275l1.825-1.05a6.857 6.857 0 0 0-1.175-1.75 5.787 5.787 0 0 0-1.825-1.375c-.7-.367-1.525-.55-2.475-.55-.983 0-1.858.2-2.625.6-.767.383-1.367.916-1.8 1.6-.433.683-.65 1.458-.65 2.325 0 .8.15 1.475.45 2.025.317.55.717 1.016 1.2 1.4.483.366.992.675 1.525.925.533.233 1.017.425 1.45.575.667.233 1.292.5 1.875.8.6.283 1.083.658 1.45 1.125.367.466.55 1.091.55 1.875 0 .8-.283 1.458-.85 1.975-.567.516-1.317.775-2.25.775-.7 0-1.325-.15-1.875-.45-.55-.3-1.05-.717-1.5-1.25-.433-.534-.85-1.15-1.25-1.85Zm12.921-10.95c0 .366.134.691.4.975.284.266.609.4.975.4.384 0 .709-.134.975-.4.267-.284.4-.609.4-.975 0-.384-.133-.709-.4-.975a1.323 1.323 0 0 0-.975-.4c-.366 0-.691.133-.975.4-.266.266-.4.591-.4.975Zm.375 4.75v11.5h2v-11.5h-2Zm14.744-8v19.5h2v-19.5h-2Zm-9.625 13.75c0 1.233.259 2.3.775 3.2a5.407 5.407 0 0 0 2.075 2.075 5.758 5.758 0 0 0 2.85.725c.967 0 1.809-.242 2.525-.725.717-.484 1.275-1.175 1.675-2.075.417-.9.625-1.967.625-3.2 0-1.25-.208-2.317-.625-3.2-.4-.9-.958-1.592-1.675-2.075-.716-.484-1.558-.725-2.525-.725a5.748 5.748 0 0 0-2.85.725c-.866.483-1.558 1.175-2.075 2.075-.516.883-.775 1.95-.775 3.2Zm2.025 0c0-.884.175-1.634.525-2.25a3.649 3.649 0 0 1 1.45-1.4 4.11 4.11 0 0 1 1.95-.475c.584 0 1.159.158 1.725.475.567.316 1.034.783 1.4 1.4.367.616.55 1.366.55 2.25 0 .883-.183 1.633-.55 2.25-.366.616-.833 1.083-1.4 1.4-.566.316-1.141.475-1.725.475-.7 0-1.35-.159-1.95-.475a3.662 3.662 0 0 1-1.45-1.4c-.35-.617-.525-1.367-.525-2.25Zm17.683 6c1.234 0 2.3-.242 3.2-.725.917-.5 1.675-1.234 2.275-2.2l-1.625-1.025c-.416.7-.925 1.225-1.525 1.575-.6.333-1.291.5-2.075.5-.783 0-1.45-.167-2-.5-.55-.334-.966-.817-1.25-1.45-.283-.634-.425-1.4-.425-2.3.017-.884.167-1.625.45-2.225.3-.617.717-1.084 1.25-1.4.55-.334 1.209-.5 1.975-.5.65 0 1.217.141 1.7.425.484.283.859.675 1.125 1.175.284.5.425 1.091.425 1.775 0 .116-.025.266-.075.45-.05.166-.1.291-.15.375l.8-1.15h-8.25v1.7h9.825v-.225c.017-.134.025-.259.025-.375 0-1.217-.216-2.267-.65-3.15-.433-.884-1.058-1.559-1.875-2.025-.8-.484-1.766-.725-2.9-.725-1.133 0-2.133.25-3 .75-.85.5-1.516 1.2-2 2.1-.466.9-.7 1.95-.7 3.15 0 1.183.225 2.225.675 3.125a5.409 5.409 0 0 0 1.925 2.125c.834.5 1.784.75 2.85.75Zm17.212-.25h8.825v-2h-8.825v2Zm0-15.5h8.825v-2h-8.825v2Zm0 7h8.325v-2h-8.325v2Zm-1.175-9v17.5h2.125v-17.5h-2.125Zm12.745 6v1.875h5.75v-1.875h-5.75Zm5.55-5.6 1.1-1.65a1.976 1.976 0 0 0-.5-.475 2.7 2.7 0 0 0-.725-.375c-.284-.1-.609-.15-.975-.15-.7 0-1.3.15-1.8.45-.484.283-.859.716-1.125 1.3-.267.583-.4 1.333-.4 2.25v15.75h2v-15.5c0-.55.05-.992.15-1.325.1-.334.233-.567.4-.7.183-.15.4-.225.65-.225.2 0 .408.041.625.125.233.066.433.241.6.525Zm1.603 5.6v1.875h5.75v-1.875h-5.75Zm5.55-5.6 1.1-1.65a1.96 1.96 0 0 0-.5-.475 2.7 2.7 0 0 0-.725-.375 2.92 2.92 0 0 0-.975-.15c-.7 0-1.3.15-1.8.45-.483.283-.858.716-1.125 1.3-.267.583-.4 1.333-.4 2.25v15.75h2v-15.5c0-.55.05-.992.15-1.325.1-.334.233-.567.4-.7.183-.15.4-.225.65-.225.2 0 .408.041.625.125.233.066.433.241.6.525Zm6.928 17.35c1.234 0 2.3-.242 3.2-.725.917-.5 1.675-1.234 2.275-2.2l-1.625-1.025c-.416.7-.925 1.225-1.525 1.575-.6.333-1.291.5-2.075.5-.783 0-1.45-.167-2-.5-.55-.334-.966-.817-1.25-1.45-.283-.634-.425-1.4-.425-2.3.017-.884.167-1.625.45-2.225.3-.617.717-1.084 1.25-1.4.55-.334 1.209-.5 1.975-.5.65 0 1.217.141 1.7.425.484.283.859.675 1.125 1.175.284.5.425 1.091.425 1.775 0 .116-.025.266-.075.45-.05.166-.1.291-.15.375l.8-1.15h-8.25v1.7H181v-.225c.017-.134.025-.259.025-.375 0-1.217-.216-2.267-.65-3.15-.433-.884-1.058-1.559-1.875-2.025-.8-.484-1.766-.725-2.9-.725-1.133 0-2.133.25-3 .75-.85.5-1.516 1.2-2 2.1-.466.9-.7 1.95-.7 3.15 0 1.183.225 2.225.675 3.125a5.409 5.409 0 0 0 1.925 2.125c.834.5 1.784.75 2.85.75Zm9.317-6c0-.8.166-1.509.5-2.125a3.842 3.842 0 0 1 1.4-1.475c.6-.35 1.275-.525 2.025-.525.616 0 1.191.1 1.725.3.55.183 1.025.433 1.425.75.4.316.683.666.85 1.05v-2.5c-.4-.467-.975-.825-1.725-1.075a6.603 6.603 0 0 0-2.275-.4c-1.117 0-2.125.258-3.025.775a5.835 5.835 0 0 0-2.15 2.125c-.517.9-.775 1.933-.775 3.1 0 1.15.258 2.183.775 3.1.533.9 1.25 1.608 2.15 2.125.9.516 1.908.775 3.025.775.783 0 1.541-.125 2.275-.375.75-.267 1.325-.634 1.725-1.1v-2.5c-.167.366-.45.716-.85 1.05a5.08 5.08 0 0 1-1.425.775 5.286 5.286 0 0 1-1.725.275c-.75 0-1.425-.175-2.025-.525a4.105 4.105 0 0 1-1.4-1.475c-.334-.617-.5-1.325-.5-2.125Zm9.288-5.75v1.875h5.75v-1.875h-5.75Zm1.875-4v15.5h2v-15.5h-2Z"/><path fill="#DFDFDF" d="M858.286 762.562H3.158c-.397 0-.721-.408-.721-.907 0-.5.324-.908.721-.908h855.128c.397 0 .722.408.722.908 0 .499-.325.907-.722.907ZM858.286 730.865H3.158c-.397 0-.721-.408-.721-.908 0-.499.324-.907.721-.907h855.128c.397 0 .722.408.722.907 0 .5-.325.908-.722.908ZM858.286 699.167H3.158c-.397 0-.721-.409-.721-.908 0-.499.324-.907.721-.907h855.128c.397 0 .722.408.722.907 0 .499-.325.908-.722.908ZM858.286 667.469H3.158c-.397 0-.721-.408-.721-.907 0-.499.324-.908.721-.908h855.128c.397 0 .722.409.722.908 0 .499-.325.907-.722.907ZM858.286 635.771H3.158c-.397 0-.721-.408-.721-.907 0-.5.324-.908.721-.908h855.128c.397 0 .722.408.722.908 0 .499-.325.907-.722.907ZM858.286 604.074H3.158c-.397 0-.721-.408-.721-.908 0-.499.324-.907.721-.907h855.128c.397 0 .722.408.722.907 0 .5-.325.908-.722.908ZM858.286 572.376H3.158c-.397 0-.721-.409-.721-.908 0-.499.324-.907.721-.907h855.128c.397 0 .722.408.722.907 0 .499-.325.908-.722.908ZM858.286 540.678H3.158c-.397 0-.721-.408-.721-.907 0-.499.324-.908.721-.908h855.128c.397 0 .722.409.722.908 0 .499-.325.907-.722.907ZM858.286 508.98H3.158c-.397 0-.721-.408-.721-.907 0-.5.324-.908.721-.908h855.128c.397 0 .722.408.722.908 0 .499-.325.907-.722.907ZM858.286 477.282H3.158c-.397 0-.721-.408-.721-.908 0-.499.324-.907.721-.907h855.128c.397 0 .722.408.722.907 0 .5-.325.908-.722.908ZM858.286 445.585H3.158c-.397 0-.721-.409-.721-.908 0-.499.324-.907.721-.907h855.128c.397 0 .722.408.722.907 0 .499-.325.908-.722.908ZM858.286 413.886H3.158c-.397 0-.721-.408-.721-.907 0-.499.324-.908.721-.908h855.128c.397 0 .722.409.722.908 0 .499-.325.907-.722.907ZM858.286 382.189H3.158c-.397 0-.721-.408-.721-.907 0-.5.324-.908.721-.908h855.128c.397 0 .722.408.722.908 0 .499-.325.907-.722.907ZM858.286 350.491H3.158c-.397 0-.721-.408-.721-.908 0-.499.324-.907.721-.907h855.128c.397 0 .722.408.722.907 0 .5-.325.908-.722.908ZM858.286 318.794H3.158c-.397 0-.721-.409-.721-.908 0-.499.324-.907.721-.907h855.128c.397 0 .722.408.722.907 0 .499-.325.908-.722.908ZM858.286 287.095H3.158c-.397 0-.721-.408-.721-.907 0-.499.324-.908.721-.908h855.128c.397 0 .722.409.722.908 0 .499-.325.907-.722.907ZM858.286 255.397H3.158c-.397 0-.721-.408-.721-.907 0-.5.324-.908.721-.908h855.128c.397 0 .722.408.722.908 0 .499-.325.907-.722.907ZM858.286 223.7H3.158c-.397 0-.721-.408-.721-.908 0-.499.324-.907.721-.907h855.128c.397 0 .722.408.722.907 0 .5-.325.908-.722.908ZM858.286 192.002H3.158c-.397 0-.721-.409-.721-.908 0-.499.324-.907.721-.907h855.128c.397 0 .722.408.722.907 0 .499-.325.908-.722.908ZM858.286 160.304H3.158c-.397 0-.721-.408-.721-.907 0-.499.324-.908.721-.908h855.128c.397 0 .722.409.722.908 0 .499-.325.907-.722.907ZM858.286 128.607H3.158c-.397 0-.721-.409-.721-.908 0-.499.324-.907.721-.907h855.128c.397 0 .722.408.722.907 0 .499-.325.908-.722.908ZM858.286 96.908H3.158c-.397 0-.721-.408-.721-.907 0-.5.324-.908.721-.908h855.128c.397 0 .722.409.722.908 0 .499-.325.907-.722.907ZM858.286 65.21H3.158c-.397 0-.721-.408-.721-.907 0-.5.324-.907.721-.907h855.128c.397 0 .722.408.722.907 0 .5-.325.908-.722.908ZM858.286 33.513H3.158c-.397 0-.721-.408-.721-.908 0-.499.324-.907.721-.907h855.128c.397 0 .722.408.722.907 0 .5-.325.908-.722.908ZM858.286 1.815H3.158c-.397 0-.721-.408-.721-.907 0-.5.324-.908.721-.908h855.128c.397 0 .722.408.722.908 0 .499-.325.907-.722.907Z"/><path fill="#4C4F60" d="M858.286 768.508H3.158c-1.732 0-3.158-1.77-3.158-3.971 0-2.178 1.408-3.971 3.158-3.971h855.128c1.732 0 3.158 1.77 3.158 3.971-.018 2.201-1.426 3.971-3.158 3.971Z"/><path fill="url(#a)" d="m221.722 686.176-79.67-21.566-79.67 21.566v75.479h159.34v-75.479Z"/><path fill="url(#b)" d="m415.133 435.125-79.053-72.563-80.288 72.563v326.53h159.341v-326.53Z"/><path fill="url(#c)" d="m607.989 326.282-79.692-72.562-79.67 72.562v435.373h159.362V326.282Z"/><path fill="url(#d)" d="m800.451 196.865-79.394-70.006-79.373 70.006v560.047h158.767V196.865Z"/><path fill="#1A1919" d="M709.355 98.44c0 .573-.127 1.08-.38 1.52-.24.44-.574.786-1 1.04-.427.253-.907.38-1.44.38a2.805 2.805 0 0 1-1.46-.38 2.826 2.826 0 0 1-1.02-1.04c-.24-.44-.36-.947-.36-1.52 0-.574.12-1.074.36-1.5.253-.44.593-.78 1.02-1.02.426-.254.913-.38 1.46-.38.533 0 1.013.126 1.44.38.426.24.76.58 1 1.02.253.426.38.926.38 1.5Zm-3.32 9.26 4.44-5.96c.346-.454.626-.954.84-1.5.226-.547.34-1.147.34-1.8 0-1.04-.227-1.927-.68-2.66a4.44 4.44 0 0 0-1.84-1.7c-.774-.4-1.64-.6-2.6-.6-.96 0-1.827.2-2.6.6a4.56 4.56 0 0 0-1.86 1.7c-.454.733-.68 1.62-.68 2.66 0 .666.113 1.28.34 1.84.226.56.533 1.046.92 1.46.4.4.853.706 1.36.92.506.213 1.04.32 1.6.32.466 0 .873-.054 1.22-.16.346-.107.68-.334 1-.68l-.36.06-4.44 5.5h3Zm6.985-2.66h11.52V103h-2.86l-.34.18h-4.86l3.58-5.24v6.04l-.14.22v3.52h2.42v-14h-1.42l-7.9 11.32Zm12.818-8.2c0 .626.14 1.2.42 1.72.294.506.7.913 1.22 1.22.52.306 1.107.46 1.76.46.68 0 1.274-.154 1.78-.46.52-.307.92-.714 1.2-1.22.294-.52.44-1.094.44-1.72 0-.627-.146-1.194-.44-1.7-.28-.52-.68-.934-1.2-1.24-.506-.307-1.1-.46-1.78-.46a3.4 3.4 0 0 0-1.76.46c-.52.306-.926.72-1.22 1.24a3.455 3.455 0 0 0-.42 1.7Zm1.84 0c0-.307.067-.587.2-.84a1.58 1.58 0 0 1 .54-.6c.24-.147.514-.22.82-.22.334 0 .614.073.84.22.227.146.407.346.54.6.134.253.2.533.2.84 0 .293-.066.573-.2.84-.133.253-.313.46-.54.62-.226.146-.506.22-.84.22-.306 0-.58-.074-.82-.22a1.748 1.748 0 0 1-.54-.62 1.858 1.858 0 0 1-.2-.84Zm6.5 7.76c0 .613.147 1.18.44 1.7.294.52.694.933 1.2 1.24.52.293 1.114.44 1.78.44.667 0 1.254-.147 1.76-.44.52-.307.92-.72 1.2-1.24.294-.52.44-1.087.44-1.7 0-.64-.146-1.214-.44-1.72-.28-.52-.68-.927-1.2-1.22-.506-.307-1.093-.46-1.76-.46-.666 0-1.26.153-1.78.46-.506.293-.906.7-1.2 1.22a3.371 3.371 0 0 0-.44 1.72Zm1.86-.02c0-.294.06-.567.18-.82a1.57 1.57 0 0 1 .54-.6c.24-.16.52-.24.84-.24.32 0 .594.08.82.24.24.146.42.346.54.6.134.253.2.526.2.82 0 .306-.066.586-.2.84-.12.253-.3.46-.54.62-.226.146-.5.22-.82.22-.32 0-.6-.074-.84-.22a1.752 1.752 0 0 1-.54-.62 2.027 2.027 0 0 1-.18-.84Zm1.16-10.86-9.7 14h2.14l9.7-14h-2.14ZM511.853 228.1c0 .586.107 1.106.32 1.56.227.44.534.813.92 1.12.387.306.834.54 1.34.7.507.16 1.047.24 1.62.24.574 0 1.114-.08 1.62-.24.507-.16.954-.394 1.34-.7.387-.307.694-.68.92-1.12.227-.454.34-.974.34-1.56 0-.72-.193-1.347-.58-1.88a3.76 3.76 0 0 0-1.52-1.28c-.626-.307-1.333-.46-2.12-.46-.786 0-1.5.153-2.14.46a3.8 3.8 0 0 0-1.5 1.28c-.373.533-.56 1.16-.56 1.88Zm2.24.24c0-.387.08-.734.24-1.04.174-.307.407-.54.7-.7.307-.174.647-.26 1.02-.26.387 0 .727.086 1.02.26.294.16.52.393.68.7.174.306.26.653.26 1.04 0 .4-.086.746-.26 1.04a1.914 1.914 0 0 1-.72.7c-.293.16-.62.24-.98.24s-.686-.08-.98-.24a2.141 2.141 0 0 1-.72-.7 2.012 2.012 0 0 1-.26-1.04Zm-2.74 6.58c0 .586.12 1.126.36 1.62.24.48.574.906 1 1.28.44.36.94.64 1.5.84.574.2 1.187.3 1.84.3.654 0 1.26-.1 1.82-.3.574-.2 1.074-.48 1.5-.84.44-.374.78-.8 1.02-1.28a3.49 3.49 0 0 0 .38-1.62c0-.68-.14-1.274-.42-1.78a3.634 3.634 0 0 0-1.08-1.26c-.453-.347-.96-.6-1.52-.76a6.156 6.156 0 0 0-3.4 0c-.56.16-1.066.413-1.52.76a3.655 3.655 0 0 0-1.08 1.26c-.266.506-.4 1.1-.4 1.78Zm2.32-.32c0-.44.107-.84.32-1.2.227-.36.52-.64.88-.84a2.34 2.34 0 0 1 1.18-.32c.414 0 .8.106 1.16.32.374.2.674.48.9.84.227.36.34.76.34 1.2 0 .506-.113.94-.34 1.3a2.266 2.266 0 0 1-.9.8 2.49 2.49 0 0 1-1.16.28c-.413 0-.806-.094-1.18-.28a2.315 2.315 0 0 1-.88-.8c-.213-.36-.32-.794-.32-1.3Zm13.403-2.74c.987 0 1.86-.147 2.62-.44.773-.294 1.38-.714 1.82-1.26.44-.547.66-1.174.66-1.88 0-.694-.173-1.32-.52-1.88-.333-.574-.82-1.034-1.46-1.38-.64-.347-1.413-.52-2.32-.52-.853 0-1.607.173-2.26.52a3.86 3.86 0 0 0-1.54 1.38c-.36.586-.54 1.266-.54 2.04h2.22c0-.56.2-1.02.6-1.38.413-.374.927-.56 1.54-.56.413 0 .76.08 1.04.24.28.16.493.386.64.68.147.28.22.606.22.98 0 .293-.067.58-.2.86-.12.266-.3.5-.54.7-.227.2-.507.36-.84.48-.333.106-.713.16-1.14.16v1.26Zm.7 7.1c.96 0 1.8-.167 2.52-.5.72-.334 1.28-.8 1.68-1.4.4-.6.6-1.294.6-2.08 0-.707-.14-1.307-.42-1.8a3.227 3.227 0 0 0-1.18-1.22c-.493-.32-1.073-.554-1.74-.7a9.245 9.245 0 0 0-2.16-.24v1.34c.467 0 .893.053 1.28.16.387.106.713.26.98.46.28.2.493.446.64.74.147.293.22.626.22 1 0 .466-.1.866-.3 1.2-.2.32-.48.566-.84.74-.347.173-.76.26-1.24.26a3.1 3.1 0 0 1-1.28-.26 2.359 2.359 0 0 1-.92-.76c-.213-.334-.32-.727-.32-1.18h-2.36c0 .573.113 1.12.34 1.64.227.506.547.96.96 1.36.413.386.92.693 1.52.92.6.213 1.273.32 2.02.32Zm6.183-11.12c0 .626.14 1.2.42 1.72.294.506.7.913 1.22 1.22.52.306 1.107.46 1.76.46.68 0 1.274-.154 1.78-.46a3.2 3.2 0 0 0 1.2-1.22c.294-.52.44-1.094.44-1.72 0-.627-.146-1.194-.44-1.7a3.15 3.15 0 0 0-1.2-1.24c-.506-.307-1.1-.46-1.78-.46-.653 0-1.24.153-1.76.46a3.3 3.3 0 0 0-1.22 1.24 3.452 3.452 0 0 0-.42 1.7Zm1.84 0c0-.307.067-.587.2-.84a1.57 1.57 0 0 1 .54-.6c.24-.147.514-.22.82-.22.334 0 .614.073.84.22.227.146.407.346.54.6.134.253.2.533.2.84 0 .293-.066.573-.2.84-.133.253-.313.46-.54.62-.226.146-.506.22-.84.22-.306 0-.58-.074-.82-.22a1.752 1.752 0 0 1-.54-.62 1.86 1.86 0 0 1-.2-.84Zm6.5 7.76c0 .613.147 1.18.44 1.7.294.52.694.933 1.2 1.24.52.293 1.114.44 1.78.44.667 0 1.254-.147 1.76-.44.52-.307.92-.72 1.2-1.24.294-.52.44-1.087.44-1.7 0-.64-.146-1.214-.44-1.72-.28-.52-.68-.927-1.2-1.22-.506-.307-1.093-.46-1.76-.46-.666 0-1.26.153-1.78.46-.506.293-.906.7-1.2 1.22a3.371 3.371 0 0 0-.44 1.72Zm1.86-.02c0-.294.06-.567.18-.82a1.57 1.57 0 0 1 .54-.6c.24-.16.52-.24.84-.24.32 0 .594.08.82.24.24.146.42.346.54.6.134.253.2.526.2.82 0 .306-.066.586-.2.84-.12.253-.3.46-.54.62-.226.146-.5.22-.82.22-.32 0-.6-.074-.84-.22a1.752 1.752 0 0 1-.54-.62 2.027 2.027 0 0 1-.18-.84Zm1.16-10.86-9.7 14h2.14l9.7-14h-2.14ZM317.61 327.94h6.94l-5.74 11.78h2.52l6.72-14h-10.44v2.22Zm13.633 4.78c0-.747.073-1.434.22-2.06.147-.627.353-1.167.62-1.62.28-.454.613-.8 1-1.04.387-.254.813-.38 1.28-.38.493 0 .927.126 1.3.38.387.24.713.586.98 1.04.28.453.493.993.64 1.62.147.626.22 1.313.22 2.06 0 .746-.073 1.433-.22 2.06-.147.626-.36 1.166-.64 1.62a3.15 3.15 0 0 1-.98 1.06c-.373.24-.807.36-1.3.36a2.38 2.38 0 0 1-1.28-.36 3.338 3.338 0 0 1-1-1.06c-.267-.454-.473-.994-.62-1.62a9.026 9.026 0 0 1-.22-2.06Zm-2.32 0c0 1.453.227 2.72.68 3.8.467 1.08 1.107 1.92 1.92 2.52.827.6 1.773.9 2.84.9 1.093 0 2.047-.3 2.86-.9.827-.6 1.467-1.44 1.92-2.52.453-1.08.68-2.347.68-3.8 0-1.454-.227-2.72-.68-3.8-.453-1.08-1.093-1.92-1.92-2.52-.813-.6-1.767-.9-2.86-.9-1.067 0-2.013.3-2.84.9-.813.6-1.453 1.44-1.92 2.52-.453 1.08-.68 2.346-.68 3.8Zm12.3-3.88c0 .626.14 1.2.42 1.72.293.506.7.913 1.22 1.22.52.306 1.107.46 1.76.46.68 0 1.273-.154 1.78-.46a3.2 3.2 0 0 0 1.2-1.22c.293-.52.44-1.094.44-1.72 0-.627-.147-1.194-.44-1.7a3.15 3.15 0 0 0-1.2-1.24c-.507-.307-1.1-.46-1.78-.46-.653 0-1.24.153-1.76.46-.52.306-.927.72-1.22 1.24a3.452 3.452 0 0 0-.42 1.7Zm1.84 0c0-.307.067-.587.2-.84.133-.254.313-.454.54-.6.24-.147.513-.22.82-.22.333 0 .613.073.84.22.227.146.407.346.54.6.133.253.2.533.2.84 0 .293-.067.573-.2.84-.133.253-.313.46-.54.62-.227.146-.507.22-.84.22-.307 0-.58-.074-.82-.22a1.732 1.732 0 0 1-.54-.62 1.86 1.86 0 0 1-.2-.84Zm6.5 7.76c0 .613.147 1.18.44 1.7.293.52.693.933 1.2 1.24.52.293 1.113.44 1.78.44s1.253-.147 1.76-.44c.52-.307.92-.72 1.2-1.24.293-.52.44-1.087.44-1.7 0-.64-.147-1.214-.44-1.72-.28-.52-.68-.927-1.2-1.22-.507-.307-1.093-.46-1.76-.46s-1.26.153-1.78.46a3.19 3.19 0 0 0-1.2 1.22 3.371 3.371 0 0 0-.44 1.72Zm1.86-.02c0-.294.06-.567.18-.82.133-.254.313-.454.54-.6.24-.16.52-.24.84-.24.32 0 .593.08.82.24.24.146.42.346.54.6.133.253.2.526.2.82 0 .306-.067.586-.2.84-.12.253-.3.46-.54.62-.227.146-.5.22-.82.22-.32 0-.6-.074-.84-.22a1.732 1.732 0 0 1-.54-.62 2.027 2.027 0 0 1-.18-.84Zm1.16-10.86-9.7 14h2.14l9.7-14h-2.14ZM127.681 635.72h10.68v-2.2h-6.08l3.98-3.9a6.493 6.493 0 0 0 1.38-1.82c.36-.68.54-1.387.54-2.12 0-.467-.1-.947-.3-1.44a3.95 3.95 0 0 0-.88-1.36c-.386-.414-.88-.747-1.48-1-.6-.267-1.306-.4-2.12-.4-1.066 0-1.973.226-2.72.68a4.32 4.32 0 0 0-1.68 1.84c-.373.773-.56 1.66-.56 2.66h2.34c0-.614.1-1.154.3-1.62.214-.467.514-.82.9-1.06.387-.254.847-.38 1.38-.38.387 0 .727.066 1.02.2.294.12.54.286.74.5.214.213.367.453.46.72.107.253.16.513.16.78 0 .373-.06.726-.18 1.06-.12.333-.3.666-.54 1-.24.333-.526.68-.86 1.04l-6.48 6.82Zm12.271-10.88c0 .626.14 1.2.42 1.72.293.506.7.913 1.22 1.22.52.306 1.106.46 1.76.46.68 0 1.273-.154 1.78-.46a3.2 3.2 0 0 0 1.2-1.22c.293-.52.44-1.094.44-1.72 0-.627-.147-1.194-.44-1.7a3.15 3.15 0 0 0-1.2-1.24c-.507-.307-1.1-.46-1.78-.46-.654 0-1.24.153-1.76.46-.52.306-.927.72-1.22 1.24a3.452 3.452 0 0 0-.42 1.7Zm1.84 0c0-.307.066-.587.2-.84.133-.254.313-.454.54-.6.24-.147.513-.22.82-.22.333 0 .613.073.84.22.226.146.406.346.54.6.133.253.2.533.2.84 0 .293-.067.573-.2.84-.134.253-.314.46-.54.62-.227.146-.507.22-.84.22-.307 0-.58-.074-.82-.22a1.732 1.732 0 0 1-.54-.62 1.848 1.848 0 0 1-.2-.84Zm6.5 7.76c0 .613.146 1.18.44 1.7.293.52.693.933 1.2 1.24.52.293 1.113.44 1.78.44.666 0 1.253-.147 1.76-.44.52-.307.92-.72 1.2-1.24.293-.52.44-1.087.44-1.7 0-.64-.147-1.214-.44-1.72-.28-.52-.68-.927-1.2-1.22-.507-.307-1.094-.46-1.76-.46-.667 0-1.26.153-1.78.46a3.19 3.19 0 0 0-1.2 1.22c-.294.506-.44 1.08-.44 1.72Zm1.86-.02c0-.294.06-.567.18-.82.133-.254.313-.454.54-.6.24-.16.52-.24.84-.24.32 0 .593.08.82.24.24.146.42.346.54.6.133.253.2.526.2.82 0 .306-.067.586-.2.84-.12.253-.3.46-.54.62-.227.146-.5.22-.82.22-.32 0-.6-.074-.84-.22a1.732 1.732 0 0 1-.54-.62 2.027 2.027 0 0 1-.18-.84Zm1.16-10.86-9.7 14h2.14l9.7-14h-2.14Z"/><defs><linearGradient id="a" x1="142.052" x2="142.052" y1="664.61" y2="761.655" gradientUnits="userSpaceOnUse"><stop stop-color="#242423" stop-opacity=".9"/><stop offset="1" stop-color="#242423"/></linearGradient><linearGradient id="b" x1="335.462" x2="335.462" y1="362.562" y2="761.655" gradientUnits="userSpaceOnUse"><stop stop-color="#242423" stop-opacity=".9"/><stop offset="1" stop-color="#242423"/></linearGradient><linearGradient id="c" x1="528.308" x2="528.308" y1="253.72" y2="761.655" gradientUnits="userSpaceOnUse"><stop stop-color="#242423" stop-opacity=".9"/><stop offset="1" stop-color="#242423"/></linearGradient><linearGradient id="d" x1="721.068" x2="721.068" y1="126.859" y2="756.912" gradientUnits="userSpaceOnUse"><stop stop-color="#242423" stop-opacity=".9"/><stop offset="1" stop-color="#242423"/></linearGradient></defs></svg>