<svg xmlns="http://www.w3.org/2000/svg" width="404" height="296" fill="none"><path fill="#D9D9D9" d="M250.623 225.256a7.625 7.625 0 0 0 7.622-7.628 7.625 7.625 0 0 0-7.622-7.628 7.625 7.625 0 0 0-7.623 7.628 7.625 7.625 0 0 0 7.623 7.628ZM99.082 198.171a5.084 5.084 0 0 0 5.082-5.086A5.084 5.084 0 0 0 99.082 188 5.084 5.084 0 0 0 94 193.085a5.084 5.084 0 0 0 5.082 5.086ZM175.179 216.865a5.185 5.185 0 0 0 5.187-5.183 5.185 5.185 0 0 0-5.187-5.183 5.186 5.186 0 0 0-5.188 5.183 5.186 5.186 0 0 0 5.188 5.183ZM325.57 155.755a5.181 5.181 0 0 0-2.807-6.772 5.19 5.19 0 0 0-6.778 2.805 5.188 5.188 0 0 0 9.585 3.967ZM84.187 174.365a5.185 5.185 0 0 0 5.188-5.182A5.185 5.185 0 0 0 84.187 164 5.185 5.185 0 0 0 79 169.183a5.185 5.185 0 0 0 5.187 5.182ZM131.004 210.994a5.178 5.178 0 0 0 0-7.329 5.19 5.19 0 0 0-7.336 0 5.178 5.178 0 0 0 0 7.329 5.19 5.19 0 0 0 7.336 0ZM302.57 181.755a5.181 5.181 0 0 0-2.807-6.772 5.19 5.19 0 0 0-6.778 2.805 5.188 5.188 0 0 0 9.585 3.967Z"/><path fill="#242423" d="M195.974 0s-43.459 63.198-42.179 162.164a22.852 22.852 0 0 1-.641 5.616c-1.077 4.476-2.308 13.665 5.104 15.442 4.685 1.123 10.726-1.003 15.332-5.445 4.58-4.416 8.523-11.79 2.609-22.407-10.51-18.877-13.642-90.705 19.775-155.37ZM276.131 13.26S231.69 60.25 233.956 156.453a18.46 18.46 0 0 1-.612 5.225c-1.074 3.981-2.263 12.473 5.437 16.61 4.867 2.618 11.105 2.529 15.836-.27 4.705-2.782 8.72-8.631 2.493-20.836-11.071-21.694-15.001-92.235 19.021-143.922Z"/><mask id="a" fill="#fff"><path fill-rule="evenodd" d="M182.379 154.572c-3.679-13.663-2.413-23.101 3.764-28.055 10.347-8.299 29.316.852 32.313 2.39l.002-.001c.081.068.409.335.814.665.778.635 1.843 1.502 1.994 1.641 7.111 6.467 9.462 16.455 5.987 25.44a65.326 65.326 0 0 1-.85 2.084c-3.032 7.108-2.527 13.613 1.499 19.328 3.125 4.436 8.257 7.479 14.081 8.352 10.093 1.51 17.435-1.079 21.835-7.695 3.633-5.47 4.491-12.676 2.292-19.28-1.055-3.166-2.589-6.291-4.56-9.286-6.001-9.123-2.434-16.039.227-19.349 3.28-4.081 8.362-6.422 13.94-6.422H404v9.617H275.717c-2.605 0-5.012 1.057-6.433 2.83-1.355 1.684-2.375 3.958.312 8.047 2.429 3.694 4.328 7.573 5.648 11.531 3.126 9.39 1.854 19.722-3.409 27.637-6.462 9.718-17.573 13.938-31.281 11.883-8.413-1.263-15.893-5.755-20.523-12.327-4.178-5.928-7.998-15.708-2.481-28.637.259-.606.499-1.199.724-1.778 2.468-6.379-.182-11.862-3.487-14.864-.384-.35-.777-.67-1.183-.967.024-.029.047-.059.07-.09-5.431-2.7-17.129-6.771-21.512-3.246-2.797 2.247-2.976 8.83-.492 18.057 7.801 28.982-6.513 40.422-15.74 44.66-9.639 4.429-21.119 3.662-29.967-2.004-12.478-7.994-15.77-22.811-9.03-40.654.887-2.349 1.336-4.738 1.336-7.103v-.392a5.396 5.396 0 0 0-5.394-5.389H0v-9.617h132.878c8.282 0 15.019 6.731 15.019 15.006v.392c0 3.529-.659 7.06-1.958 10.498-2.933 7.762-6.155 21.874 5.22 29.161 6.11 3.915 14.061 4.436 20.75 1.364 11.496-5.283 15.017-16.528 10.47-33.427Z" clip-rule="evenodd"/></mask><path fill="#242423" fill-opacity=".5" fill-rule="evenodd" d="M182.379 154.572c-3.679-13.663-2.413-23.101 3.764-28.055 10.347-8.299 29.316.852 32.313 2.39l.002-.001c.081.068.409.335.814.665.778.635 1.843 1.502 1.994 1.641 7.111 6.467 9.462 16.455 5.987 25.44a65.326 65.326 0 0 1-.85 2.084c-3.032 7.108-2.527 13.613 1.499 19.328 3.125 4.436 8.257 7.479 14.081 8.352 10.093 1.51 17.435-1.079 21.835-7.695 3.633-5.47 4.491-12.676 2.292-19.28-1.055-3.166-2.589-6.291-4.56-9.286-6.001-9.123-2.434-16.039.227-19.349 3.28-4.081 8.362-6.422 13.94-6.422H404v9.617H275.717c-2.605 0-5.012 1.057-6.433 2.83-1.355 1.684-2.375 3.958.312 8.047 2.429 3.694 4.328 7.573 5.648 11.531 3.126 9.39 1.854 19.722-3.409 27.637-6.462 9.718-17.573 13.938-31.281 11.883-8.413-1.263-15.893-5.755-20.523-12.327-4.178-5.928-7.998-15.708-2.481-28.637.259-.606.499-1.199.724-1.778 2.468-6.379-.182-11.862-3.487-14.864-.384-.35-.777-.67-1.183-.967.024-.029.047-.059.07-.09-5.431-2.7-17.129-6.771-21.512-3.246-2.797 2.247-2.976 8.83-.492 18.057 7.801 28.982-6.513 40.422-15.74 44.66-9.639 4.429-21.119 3.662-29.967-2.004-12.478-7.994-15.77-22.811-9.03-40.654.887-2.349 1.336-4.738 1.336-7.103v-.392a5.396 5.396 0 0 0-5.394-5.389H0v-9.617h132.878c8.282 0 15.019 6.731 15.019 15.006v.392c0 3.529-.659 7.06-1.958 10.498-2.933 7.762-6.155 21.874 5.22 29.161 6.11 3.915 14.061 4.436 20.75 1.364 11.496-5.283 15.017-16.528 10.47-33.427Z" clip-rule="evenodd"/><path fill="#fff" d="m186.143 126.517 1.877 2.34-1.877-2.34Zm-3.764 28.055 2.897-.779-2.897.779Zm36.077-25.665-1.37 2.669 1.578.811 1.471-.994-1.679-2.486Zm.002-.001 1.932-2.295-1.733-1.46-1.878 1.269 1.679 2.486Zm.814.665 1.895-2.325-1.895 2.325Zm1.994 1.641-2.029 2.21.01.009 2.019-2.219Zm5.987 25.44 2.797 1.084.001-.002-2.798-1.082Zm-.85 2.084-2.759-1.178v.001l2.759 1.177Zm1.499 19.328-2.453 1.728 2.453-1.728Zm14.081 8.352-.444 2.967.444-2.967Zm21.835-7.695 2.498 1.661.001-.001-2.499-1.66Zm2.292-19.28 2.846-.948v-.001l-2.846.949Zm-4.56-9.286-2.507 1.649.001.001 2.506-1.65Zm.227-19.349 2.338 1.88-2.338-1.88ZM404 124.384h3v-3h-3v3Zm0 9.617v3h3v-3h-3Zm-128.283 0v3-3Zm-6.433 2.83 2.338 1.88.002-.004-2.34-1.876Zm.312 8.047-2.507 1.648 2.507-1.648Zm5.648 11.531 2.846-.948v-.001l-2.846.949Zm-3.409 27.637-2.498-1.662 2.498 1.662Zm-31.281 11.883-.445 2.966v.001l.445-2.967Zm-20.523-12.327 2.453-1.727v-.001l-2.453 1.728Zm-2.481-28.637-2.759-1.18-.001.003 2.76 1.177Zm.724-1.778 2.797 1.084v-.001l-2.797-1.083Zm-3.487-14.864-2.018 2.22h.001l2.017-2.22Zm-1.183-.967-2.346-1.869-1.951 2.448 2.529 1.845 1.768-2.424Zm.07-.09 2.377 1.83 2.227-2.891-3.268-1.625-1.336 2.686Zm-21.512-3.246 1.879 2.338h.001l-1.88-2.338Zm-.492 18.057 2.897-.78-2.897.78Zm-15.74 44.66-1.252-2.726h-.001l1.253 2.726Zm-29.967-2.004-1.618 2.526 1.618-2.526Zm-9.03-40.654 2.807 1.06v-.001l-2.807-1.059ZM0 141.195h-3v3h3v-3Zm0-9.617v-3h-3v3h3Zm145.939 25.896 2.806 1.06h.001l-2.807-1.06Zm5.22 29.161 1.619-2.526v-.001l-1.619 2.527Zm20.75 1.364 1.252 2.726.001-.001-1.253-2.725Zm12.357-63.822c-7.688 6.166-8.515 17.316-4.784 31.175l5.794-1.559c-3.626-13.468-1.921-21.194 2.744-24.936l-3.754-4.68Zm35.56 2.061c-1.591-.816-7.342-3.618-14.111-5.142-6.605-1.486-15.149-1.972-21.449 3.081l3.754 4.68c4.047-3.246 10.162-3.306 16.377-1.907 6.051 1.362 11.283 3.905 12.689 4.626l2.74-5.338Zm-3.047.182a.285.285 0 0 0-.024.016l-.002.001.006-.004.018-.012 3.358 4.972a.285.285 0 0 0 .024-.016l.001-.001h.001l-.006.004-.018.012-3.358-4.972Zm4.388.826-.525-.429-.175-.143-.055-.045a.387.387 0 0 0-.017-.014l-.005-.004-3.864 4.59c.105.089.463.38.851.696l3.79-4.651Zm2.127 1.756c-.237-.218-1.421-1.181-2.127-1.756l-3.79 4.651c.39.318.847.69 1.225 1l.48.396c.155.129.184.155.155.129l4.057-4.42Zm6.757 28.732c3.921-10.137 1.264-21.438-6.767-28.742l-4.037 4.439c6.192 5.632 8.237 14.307 5.208 22.138l5.596 2.165Zm-.889 2.181c.318-.744.614-1.472.888-2.179l-5.595-2.169c-.249.644-.52 1.309-.811 1.991l5.518 2.357Zm1.192 16.421c-3.355-4.763-3.867-10.15-1.192-16.422l-5.518-2.355c-3.389 7.944-2.891 15.567 1.805 22.233l4.905-3.456Zm12.074 7.113c-5.091-.763-9.463-3.408-12.074-7.113l-4.905 3.456c3.641 5.167 9.533 8.608 16.09 9.591l.889-5.934Zm18.892-6.39c-3.562 5.357-9.559 7.787-18.893 6.39l-.888 5.934c10.852 1.624 19.539-1.124 24.777-9.001l-4.996-3.323Zm1.944-16.67c1.927 5.787 1.143 12.023-1.945 16.671l4.998 3.321c4.178-6.291 5.11-14.468 2.639-21.888l-5.692 1.896Zm-4.22-8.584c1.838 2.792 3.253 5.683 4.22 8.585l5.692-1.898c-1.143-3.429-2.796-6.789-4.901-9.987l-5.011 3.3Zm.395-22.878c-1.541 1.916-3.418 4.962-3.993 8.945-.586 4.061.224 8.803 3.597 13.932l5.013-3.297c-2.627-3.995-3.033-7.272-2.671-9.778.373-2.583 1.61-4.65 2.73-6.043l-4.676-3.759Zm16.278-7.543c-6.419 0-12.387 2.702-16.278 7.543l4.676 3.759c2.67-3.321 6.864-5.302 11.602-5.302v-6Zm128.283 0H275.717v6H404v-6Zm3 12.617v-9.617h-6v9.617h6Zm-131.283 3H404v-6H275.717v6Zm-4.093 1.706c.763-.951 2.246-1.706 4.093-1.706v-6c-3.362 0-6.694 1.359-8.774 3.953l4.681 3.753Zm.479 4.523c-1.118-1.701-1.215-2.644-1.186-3.072.029-.416.206-.827.705-1.447l-4.676-3.76c-.856 1.063-1.866 2.632-2.015 4.796-.147 2.153.589 4.391 2.158 6.779l5.014-3.296Zm5.987 12.23c-1.407-4.219-3.424-8.331-5.987-12.23l-5.014 3.296c2.294 3.49 4.076 7.134 5.309 10.832l5.692-1.898Zm-3.757 30.247c5.799-8.721 7.161-20.022 3.757-30.246l-5.693 1.895c2.849 8.557 1.667 17.921-3.06 25.028l4.996 3.323Zm-34.224 13.189c14.593 2.187 26.98-2.296 34.224-13.189l-4.996-3.323c-5.681 8.544-15.515 12.5-28.338 10.578l-.89 5.934Zm-22.53-13.566c5.132 7.284 13.36 12.189 22.53 13.565l.89-5.933c-7.655-1.149-14.387-5.228-18.515-11.087l-4.905 3.455Zm-2.789-31.542c-6.022 14.114-1.829 24.99 2.789 31.543l4.905-3.457c-3.738-5.303-7.186-13.987-2.175-25.732l-5.519-2.354Zm.686-1.685c-.212.549-.44 1.11-.685 1.682l5.517 2.36c.273-.64.527-1.264.763-1.874l-5.595-2.168Zm-2.706-11.56c2.615 2.376 4.625 6.602 2.706 11.562l5.595 2.165c3.018-7.799-.272-14.538-4.266-18.168l-4.035 4.441Zm-.934-.763c.317.232.627.484.933.763l4.036-4.44a17.112 17.112 0 0 0-1.433-1.17l-3.536 4.847Zm-.539-4.344-.039.051 4.692 3.739.101-.13-4.754-3.66Zm-17.255.922c.384-.309 1.193-.64 2.686-.7 1.449-.058 3.217.154 5.151.581 3.868.852 7.918 2.45 10.46 3.714l2.671-5.373c-2.89-1.437-7.405-3.224-11.84-4.201-2.216-.488-4.534-.802-6.681-.716-2.103.084-4.399.565-6.207 2.019l3.76 4.676Zm.525 14.939c-1.2-4.458-1.706-8.101-1.633-10.784.078-2.844.774-3.887 1.107-4.155l-3.758-4.677c-2.464 1.98-3.256 5.352-3.346 8.668-.095 3.477.552 7.739 1.837 12.508l5.793-1.56Zm-17.385 48.167c4.982-2.289 11.483-6.586 15.648-14.361 4.195-7.83 5.789-18.752 1.737-33.806l-5.793 1.56c3.748 13.927 2.086 23.217-1.233 29.412-3.348 6.25-8.618 9.792-12.863 11.742l2.504 5.453Zm-32.837-2.205c9.719 6.225 22.281 7.054 32.837 2.204l-2.505-5.452c-8.721 4.007-19.119 3.304-27.096-1.804l-3.236 5.052Zm-10.218-44.24c-3.516 9.307-4.514 18.08-2.814 25.731 1.713 7.715 6.132 14.089 13.032 18.509l3.237-5.052c-5.579-3.574-9.046-8.606-10.412-14.758-1.381-6.217-.655-13.774 2.57-22.31l-5.613-2.12Zm1.142-6.043c0 1.982-.375 4.012-1.142 6.043l5.613 2.119c1.007-2.667 1.529-5.414 1.529-8.162h-6Zm0-.392v.392h6v-.392h-6Zm-2.394-2.389a2.396 2.396 0 0 1 2.394 2.389h6c0-4.629-3.762-8.389-8.394-8.389v6ZM0 144.195h132.875v-6H0v6Zm-3-12.617v9.617h6v-9.617h-6Zm135.878-3H0v6h132.878v-6Zm18.019 18.006c0-9.934-8.083-18.006-18.019-18.006v6c6.627 0 12.019 5.391 12.019 12.006h6Zm0 .392v-.392h-6v.392h6Zm-2.151 11.558c1.42-3.762 2.151-7.651 2.151-11.558h-6c0 3.151-.588 6.324-1.764 9.438l5.613 2.12Zm4.032 25.574c-4.673-2.993-6.381-7.32-6.598-12.014-.222-4.816 1.16-9.839 2.565-13.56l-5.612-2.121c-1.528 4.042-3.223 9.956-2.946 15.958.283 6.124 2.651 12.496 9.354 16.79l3.237-5.053Zm17.879 1.164c-5.778 2.654-12.645 2.191-17.879-1.163l-3.237 5.051c6.986 4.478 16.019 5.056 23.62 1.565l-2.504-5.453Zm8.825-29.92c2.193 8.151 2.329 14.558.815 19.393-1.474 4.706-4.597 8.21-9.64 10.528l2.505 5.451c6.452-2.964 10.837-7.724 12.861-14.186 1.983-6.333 1.606-13.998-.747-22.745l-5.794 1.559Z" mask="url(#a)"/><path fill="url(#b)" d="M197.839 233.383c-12.828 4.424-97.884 33.93-128.777 49.307a4.549 4.549 0 0 1-2.081.494h-3.912c-6.053 0-8.047-10.441-2.681-14.076 58.502-39.64 95.576-59.303 120.52-69.101 1.269-.499 2.368-1.53 3.125-2.942l10.087-18.823c1.089-2.032 2.872-3.242 4.778-3.242h12.781c1.854 0 3.597 1.144 4.693 3.085l10.943 19.345c.67 1.185 1.604 2.098 2.665 2.614 68.445 33.356 117.192 69.608 141.304 87.804 23.501 17.736-25.448 1.172-28.708.058-.117-.041-.162-.053-.278-.104-3.579-1.553-95.152-41.243-129.718-54.389-1.05-.399-1.949-1.152-2.679-2.211l-.318-.461c-2.313-3.366-6.368-3.366-8.682 0l-.269.388c-.759 1.104-1.691 1.875-2.793 2.254Z"/><path fill="#fff" fill-rule="evenodd" d="M210.802 198.023c-1.283 1.011-1.694 3.181-.916 4.847l.097.207c.78 1.664 2.453 2.191 3.734 1.175 1.281-1.014 1.687-3.187.905-4.85l-.088-.189c-.778-1.667-2.449-2.201-3.732-1.19Zm5.98 11.694c-1.108 1.313-1.186 3.547-.175 4.986l.129.182c1.017 1.434 2.734 1.525 3.839.206 1.104-1.321 1.176-3.554.159-4.988l-.113-.159c-1.011-1.44-2.731-1.54-3.839-.227Zm10.155 13.827c-1.382-.295-2.38-1.919-2.267-3.761.12-1.944 1.43-3.393 2.925-3.24l.033.005.336.026.419.171c1.431.59 2.222 2.574 1.768 4.432-.433 1.772-1.844 2.79-3.214 2.367Zm9.412.217c-.464 1.852.316 3.844 1.743 4.446l.19.081c1.426.602 2.96-.411 3.425-2.264.464-1.853-.316-3.844-1.742-4.446l-.191-.081c-1.428-.605-2.962.411-3.425 2.264Zm11.505 4.9c-.477 1.848.292 3.847 1.714 4.467l.187.081c1.422.617 2.961-.379 3.439-2.226.477-1.848-.291-3.85-1.714-4.467l-.186-.083c-1.423-.618-2.964.378-3.44 2.228Zm11.436 5.014c-.489 1.843.264 3.852 1.681 4.487l.192.086c1.419.635 2.966-.341 3.455-2.183.491-1.843-.262-3.852-1.681-4.49l-.192-.086c-1.419-.635-2.966.343-3.455 2.186Zm11.456 5.183c-.505 1.835.233 3.854 1.646 4.51l.184.085c1.413.656 2.968-.3 3.472-2.135.507-1.835-.231-3.854-1.644-4.512l-.186-.086c-1.413-.655-2.968.303-3.472 2.138Zm11.379 5.329c-.52 1.827.198 3.857 1.606 4.535l.188.088c1.407.678 2.969-.255 3.492-2.082.52-1.828-.198-3.86-1.606-4.535l-.188-.091c-1.407-.678-2.969.257-3.492 2.085Zm11.32 5.498c-.538 1.82.161 3.862 1.56 4.563l.189.093c1.399.701 2.973-.207 3.513-2.024.537-1.82-.159-3.862-1.561-4.563l-.188-.096c-1.401-.698-2.974.209-3.513 2.027Zm11.279 5.702c-.559 1.81.116 3.864 1.51 4.59l.186.099c1.392.726 2.973-.152 3.534-1.959.559-1.81-.116-3.864-1.508-4.59l-.188-.099c-1.394-.726-2.975.152-3.534 1.959Zm11.224 5.926c-.582 1.798.068 3.867 1.452 4.621l.182.101c1.384.756 2.978-.088 3.56-1.886.58-1.794-.068-3.864-1.452-4.62l-.184-.101c-1.384-.754-2.978.091-3.558 1.885Zm11.112 6.146c-.604 1.785.019 3.867 1.391 4.654l.177.1c1.374.787 2.977-.022 3.583-1.807.606-1.782-.017-3.867-1.39-4.651l-.178-.103c-1.374-.784-2.978.022-3.583 1.807Zm11.057 6.408c-.629 1.77-.031 3.865 1.332 4.681l.174.104c1.365.816 2.978.043 3.607-1.727.627-1.772.031-3.867-1.332-4.684l-.176-.106c-1.365-.814-2.978-.04-3.605 1.732Zm10.98 6.632c-.64 1.763-.06 3.865 1.297 4.699l.178.111c1.357.832 2.978.081 3.62-1.681.641-1.762.06-3.867-1.295-4.699l-.18-.111c-1.357-.834-2.977-.081-3.62 1.681Zm10.939 6.711c-.623 1.772-.019 3.867 1.345 4.674l.181.108c1.366.807 2.977.023 3.598-1.749.623-1.775.02-3.867-1.347-4.677l-.176-.103c-1.367-.809-2.978-.028-3.601 1.747ZM207.227 185.111c1.399.701 2.098 2.743 1.558 4.563l-.066.224c-.545 1.815-2.119 2.715-3.519 2.009-1.397-.708-2.09-2.752-1.547-4.57l.061-.202c.539-1.817 2.111-2.725 3.513-2.024Zm-4.338 12.773c1.281 1.014 1.686 3.187.906 4.85l-.097.205c-.784 1.661-2.457 2.183-3.736 1.164-1.279-1.021-1.681-3.194-.897-4.855l.089-.187c.781-1.666 2.454-2.193 3.735-1.177Zm-5.974 11.619c1.106 1.318 1.18 3.552.165 4.986l-.129.182c-1.02 1.429-2.738 1.515-3.841.191-1.1-1.326-1.166-3.559-.147-4.989l.112-.156c1.016-1.437 2.735-1.533 3.84-.214Zm-10.186 13.764c1.407-.265 2.432-1.906 2.317-3.772-.118-1.943-1.428-3.393-2.923-3.239l-.033.003-.291.022-.377.136c-1.444.527-2.286 2.476-1.88 4.354.392 1.805 1.795 2.886 3.187 2.496Zm-8.975-.353c.417 1.873-.414 3.829-1.854 4.371l-.186.07c-1.442.542-2.948-.537-3.366-2.41-.417-1.87.412-3.829 1.854-4.371l.186-.07c1.442-.542 2.948.537 3.366 2.41Zm-11.173 4.237c.43 1.866-.387 3.834-1.825 4.391l-.183.071c-1.438.56-2.952-.502-3.382-2.37-.431-1.865.386-3.831 1.824-4.391l.184-.07c1.438-.56 2.952.501 3.382 2.369Zm-11.118 4.359c.444 1.86-.359 3.836-1.792 4.414l-.18.073c-1.434.577-2.956-.467-3.4-2.327-.444-1.863.358-3.839 1.791-4.416l.181-.074c1.434-.574 2.956.467 3.4 2.33Zm-11.051 4.487c.46 1.855-.326 3.844-1.755 4.439l-.184.078c-1.429.598-2.96-.423-3.42-2.279-.459-1.855.326-3.844 1.755-4.439l.186-.078c1.428-.598 2.959.423 3.418 2.279Zm-11.086 4.678c.477 1.848-.291 3.85-1.714 4.467l-.179.079c-1.423.62-2.963-.376-3.44-2.224-.477-1.848.29-3.849 1.713-4.467l.18-.08c1.423-.618 2.963.378 3.44 2.225Zm-10.977 4.83c.496 1.841-.251 3.855-1.667 4.498l-.183.083c-1.416.645-2.966-.325-3.463-2.163-.496-1.84.25-3.855 1.667-4.5l.183-.083c1.417-.643 2.967.325 3.463 2.165Zm-10.948 5.04c.517 1.83-.205 3.856-1.614 4.529l-.174.084c-1.409.673-2.971-.265-3.488-2.095-.518-1.83.204-3.857 1.613-4.53l.176-.083c1.408-.673 2.97.264 3.487 2.095Zm-10.893 5.266c.541 1.82-.154 3.861-1.554 4.565l-.173.088c-1.4.703-2.974-.199-3.516-2.017-.542-1.817.153-3.862 1.553-4.565l.175-.088c1.4-.703 2.973.199 3.515 2.017Zm-10.796 5.508c.569 1.802-.096 3.864-1.485 4.603l-.17.09c-1.39.739-2.976-.123-3.546-1.928-.569-1.802.096-3.865 1.484-4.603l.173-.093c1.389-.736 2.976.126 3.544 1.931Zm-10.75 5.805c.598 1.787-.033 3.867-1.409 4.643l-.174.099c-1.376.779-2.977-.041-3.576-1.828-.598-1.787.032-3.867 1.408-4.643l.176-.101c1.377-.777 2.977.043 3.575 1.83Zm-10.618 6.09c.627 1.77.03 3.867-1.332 4.682l-.175.103c-1.363.817-2.977.043-3.605-1.729-.627-1.77-.032-3.865 1.332-4.682l.175-.105c1.363-.815 2.977-.041 3.605 1.731Zm-10.527 6.378c.648 1.757.077 3.865-1.277 4.706l-.17.106c-1.353.842-2.976.101-3.624-1.658-.649-1.757-.077-3.865 1.276-4.707l.17-.106c1.354-.842 2.977-.1 3.625 1.659Zm-10.465 6.521c.632 1.768.041 3.867-1.32 4.687l-.171.103c-1.362.822-2.977.053-3.608-1.717-.632-1.767-.04-3.867 1.322-4.686l.168-.101c1.361-.821 2.977-.053 3.61 1.714Z" clip-rule="evenodd"/><defs><linearGradient id="b" x1="208.783" x2="208.783" y1="138.448" y2="296" gradientUnits="userSpaceOnUse"><stop offset=".177" stop-color="#242423"/><stop offset="1" stop-color="#242423" stop-opacity="0"/></linearGradient></defs></svg>