<svg xmlns="http://www.w3.org/2000/svg" width="362" height="350" fill="none"><path fill="#D9D9D9" d="M123.472 262.598a8.75 8.75 0 0 0 0-12.401c-3.434-3.424-9.002-3.424-12.436 0a8.75 8.75 0 0 0 0 12.401c3.434 3.425 9.002 3.425 12.436 0ZM240.388 268.458c6.678 0 12.093-5.399 12.093-12.058 0-6.66-5.415-12.058-12.093-12.058-6.679 0-12.094 5.398-12.094 12.058 0 6.659 5.415 12.058 12.094 12.058ZM45.794 255.303c4.857 0 8.795-3.926 8.795-8.769s-3.938-8.769-8.795-8.769c-4.857 0-8.794 3.926-8.794 8.769s3.937 8.769 8.794 8.769ZM100.764 252.013a4.39 4.39 0 0 0 4.397-4.384 4.39 4.39 0 0 0-4.397-4.384 4.39 4.39 0 0 0-4.397 4.384 4.39 4.39 0 0 0 4.397 4.384ZM321.675 217.558a4.38 4.38 0 0 0-2.38-5.728 4.4 4.4 0 0 0-5.745 2.373 4.379 4.379 0 0 0 2.379 5.728 4.402 4.402 0 0 0 5.746-2.373ZM76.578 260.784a4.39 4.39 0 0 0 4.397-4.384 4.391 4.391 0 0 0-4.397-4.385 4.39 4.39 0 0 0-4.397 4.385 4.39 4.39 0 0 0 4.397 4.384ZM73.177 221.45a4.376 4.376 0 0 0 0-6.201 4.406 4.406 0 0 0-6.219 0 4.376 4.376 0 0 0 0 6.201 4.406 4.406 0 0 0 6.219 0ZM289.774 241.554a4.38 4.38 0 0 0-2.379-5.729 4.403 4.403 0 0 0-5.746 2.373 4.38 4.38 0 0 0 2.38 5.729 4.401 4.401 0 0 0 5.745-2.373Z"/><path fill="#242423" d="M289.984 0s-93.918 65.498-124.31 223.396a30.195 30.195 0 0 1-2.928 8.388c-3.282 6.236-8.376 19.82 3.509 28.553 7.514 5.522 18.377 6.971 27.59 3.604 9.161-3.348 18.219-11.887 11.761-33.436C194.128 192.196 212.48 75.837 289.984 0ZM155.66 99.004S117.585 131.253 105.263 209a17.224 17.224 0 0 1-1.187 4.131c-1.331 3.07-3.396 9.759 1.423 14.058 3.047 2.718 7.452 3.432 11.186 1.775 3.713-1.648 7.387-5.853 4.768-16.464-4.655-18.865 2.785-76.156 34.207-113.496ZM305.013 92.123s-36.783 21.575-58.526 85.267a14.55 14.55 0 0 1-1.603 3.305c-1.57 2.392-4.287 7.723-.856 12.054 2.169 2.739 5.773 3.987 9.161 3.139 3.369-.844 7.076-3.847 6.423-13.171-1.164-16.574 13.478-63.752 45.401-90.594Z"/><path fill="#242423" fill-opacity=".5" stroke="#fff" stroke-width="2" d="M148.375 245.919c.348 11.619 5.233 20.556 14.533 26.673 6.494 4.271 13.82 6.408 21.004 6.408 6.766 0 13.406-1.895 19.105-5.698 5.157-3.435 10.246-8.872 12.74-17.482 2.499-8.626 2.424-20.54-2.962-36.971l-.009-.027-.007-.027c-.145-.545-1.184-4.627-.972-9.205.211-4.548 1.683-9.912 6.897-12.504l.445.895-.445-.895c3.848-1.913 8.088-1.321 11.273 1.57 2.59 2.351 4.702 6.682 2.753 11.709-.165.424-.341.857-.531 1.301m-83.824 34.253 82.905-34.647m-82.905 34.647c-.287-9.535 2.514-19.177 4.604-26.349l.04-.138c.519-1.782 1.014-3.485 1.386-4.944 1.688-6.625.569-11.158-1.087-14.072-1.637-2.884-3.739-4.077-3.887-4.156l-.013-.007c-1.919-.992-5.121-2.295-8.277-3.023-1.579-.364-3.187-.595-4.639-.553-1.435.04-2.845.35-3.897 1.193-1.355 1.087-1.903 3.051-1.965 5.327-.064 2.331.372 5.254 1.274 8.598m16.461 38.124-16.461-38.124m100.285 3.871-.919-.394m.919.394.001-.001-.92-.393m.919.394c-3.775 8.829-1.166 15.44 1.673 19.462l-.817.577c-2.986-4.231-5.719-11.207-1.775-20.433m-99.366-3.477c2.738 10.151 1.562 17.089-.978 21.821-2.549 4.749-6.552 7.421-9.73 8.878-6.586 3.02-14.436 2.492-20.47-1.364-4.241-2.711-6.901-6.557-7.944-11.244-1.048-4.708-.477-10.331 1.884-16.569.674-1.782 1.02-3.606 1.02-5.422v-.28c0-2.675-2.181-4.845-4.857-4.845H45.455v-4.863h45.386c5.372 0 9.739 4.359 9.739 9.708v.28c0 2.392-.448 4.794-1.335 7.137-1.07 2.823-2.222 6.874-2.035 10.932.19 4.099 1.758 8.257 6.164 11.073 4.66 2.978 10.706 3.371 15.791 1.039l-.417-.909.417.909c4.344-1.992 7.239-5.149 8.582-9.427 1.329-4.234 1.105-9.465-.547-15.594-2.611-9.684-1.559-15.847 2.35-18.978 3.411-2.73 8.415-2.592 13.024-1.504 4.537 1.07 8.359 2.983 9.134 3.386.233.126 3.165 1.758 5.504 5.462 2.335 3.698 4.14 9.556 1.924 18.262l-27.222-7.888Zm25.752 13.13c.553-1.9 1.07-3.673 1.469-5.241l-1.469 5.241Zm0 0-.016.055c-2.013 6.908-4.589 15.748-4.409 24.339.181 8.679 3.178 17.179 12.356 23.215 10.908 7.175 24.538 7.505 34.711.728l-42.642-48.337Zm52.679 32.454.968.253c-1.735 6.649-5.44 11.924-11.005 15.63l10.037-15.883Zm0 0 .968.253c2.303-8.831 1.182-20.071-3.178-33.34m2.21 33.087-2.21-33.087m0 0-.003-.009-.03-.097-.003-.01c-.13-.463-1.526-5.616-1.121-11.528.407-5.951 2.613-12.462 9.546-15.91l-.445-.895.446.895c5.657-2.814 12.057-1.926 16.742 2.325 4.778 4.338 6.356 11.025 4.02 17.051v.001c-.183.472-.381.958-.594 1.453v.002c-2.288 5.353-1.931 10.366 1.174 14.761 2.407 3.407 6.329 5.713 10.737 6.372 7.469 1.118 13.166-.782 16.592-5.926 2.782-4.176 3.42-9.643 1.755-14.628-.784-2.347-1.92-4.655-3.374-6.86m-55.442 13.003 59.523-15.67c-1.036-1.573-1.441-2.924-1.358-4.133.083-1.213.647-2.112 1.191-2.787 1.238-1.535 3.264-2.389 5.38-2.389h46.173m-55.467 11.976-.835.551.835-.551Zm0 0c-2.021-3.066-2.388-5.682-2.086-7.765.305-2.109 1.311-3.77 2.192-4.864 2.14-2.659 5.477-4.209 9.188-4.209h46.173m0 0v4.862m0-4.862h1l-57.14 3.582c2.344-2.912 5.977-4.582 9.967-4.582h46.173v1Zm0 4.862h1v1h-1v-1Zm-80.824 17.163c-.188.483-.39.98-.608 1.487-2.168 5.074-1.809 9.714 1.072 13.791 2.235 3.164 5.904 5.337 10.068 5.96 7.217 1.08 12.466-.768 15.612-5.491l-26.144-15.747Z"/><circle cx="30" cy="320" r="30" fill="#242423"/><path fill="#fff" d="M13.368 313.4V326h2.628v-12.6h-2.628Zm4.284 12.6c1.32 0 2.472-.258 3.456-.774a5.652 5.652 0 0 0 2.322-2.178c.552-.948.828-2.064.828-3.348 0-1.284-.276-2.394-.828-3.33a5.617 5.617 0 0 0-2.322-2.196c-.984-.516-2.136-.774-3.456-.774h-2.628v2.34h2.538c.552 0 1.074.078 1.566.234.492.144.924.378 1.296.702.372.324.66.738.864 1.242.216.492.324 1.086.324 1.782s-.108 1.296-.324 1.8c-.204.492-.492.9-.864 1.224a3.61 3.61 0 0 1-1.296.72 5.548 5.548 0 0 1-1.566.216h-2.538V326h2.628Zm9.447-5.544h9.252v-2.322h-9.252v2.322Zm7.614-7.056V326h2.574v-12.6h-2.574Zm-8.46 0V326h2.574v-12.6h-2.574Zm12.486 2.322h3.384V326h2.574v-10.278h3.402V313.4h-9.36v2.322Z"/><path fill="#242423" d="M161.061 322.061a1.502 1.502 0 0 0 0-2.122l-9.546-9.546a1.502 1.502 0 0 0-2.122 0 1.502 1.502 0 0 0 0 2.122l8.486 8.485-8.486 8.485a1.502 1.502 0 0 0 0 2.122 1.502 1.502 0 0 0 2.122 0l9.546-9.546ZM100 322.5h60v-3h-60v3ZM261.061 322.061a1.502 1.502 0 0 0 0-2.122l-9.546-9.546a1.502 1.502 0 0 0-2.122 0 1.502 1.502 0 0 0 0 2.122l8.486 8.485-8.486 8.485a1.502 1.502 0 0 0 0 2.122 1.502 1.502 0 0 0 2.122 0l9.546-9.546ZM200 322.5h60v-3h-60v3ZM361.061 322.061a1.502 1.502 0 0 0 0-2.122l-9.546-9.546a1.502 1.502 0 0 0-2.122 0 1.502 1.502 0 0 0 0 2.122l8.486 8.485-8.486 8.485a1.502 1.502 0 0 0 0 2.122 1.502 1.502 0 0 0 2.122 0l9.546-9.546ZM300 322.5h60v-3h-60v3Z"/></svg>