<svg xmlns="http://www.w3.org/2000/svg" width="374.667" height="149.333" version="1.0" viewBox="0 0 281 112"><path d="M3.8 2.2c-5 4-2.2 8.7 8.3 14.3 11.1 5.8 14.3 9.3 17.4 18.4 1.4 4.3 4.1 10.2 6 13.2 4.1 6.4 4.3 8.2 1.1 10.3-1.4.8-2.7 2.5-3.1 3.6-.8 2.5 1.9 7 4.1 7 1.3 0 1.5.8.9 4.2-1.2 7.4-4 12.6-7.2 13.4-9.7 2.2-9.5 8.1.3 10.5 3.6.9 5.1 2 7.6 5.6 1.7 2.5 4.5 5.1 6.4 5.9 8.2 3.4 23.7 2.8 45.9-2 6.1-1.4 15.7-3.4 21.5-4.6 10-2.1 21.7-5.6 37.8-11.4 11-4 24-5.5 51.7-6.2 13.8-.3 28-.9 31.7-1.5 8.9-1.2 8.6-1.3 8 1.6-.5 3 2.1 6.5 5 6.5 2.6 0 6.1-3.8 5.5-6.1-.3-1-.4-1.9-.3-1.9 1.7 0 12.4 3.9 19.2 7 4.7 2.2 8.8 4 9 4 .2 0 .4-18.1.4-40.1V13.8l-8.7.6c-10.9.9-17.9 2.1-26.3 4.8-13.4 4.3-19.3 8.9-28 21.8-6.6 9.9-12.3 15.3-24.1 23.2-21.8 14.4-40.2 20.5-73.7 24.3-4.9.5-5.2.4-4.3-1.2 2.1-4-3.1-7.2-6-3.7-1 1.3-1 2 0 3.6 1.2 1.9 1 2-16.1 1.6-15.2-.3-18-.7-23.1-2.7C62.8 83 59 79.4 53 69.5c-7-11.6-8.8-16-10.1-25.1l-1.2-7.9L34 29c-4.2-4.1-9.2-9.5-11-12C18.1 10.4 11.9 4 8.8 2.4c-3.3-1.7-3-1.7-5-.2zm6.6 2.9c1.5 1.2 2.5 2.3 2.3 2.6-.8.7-7.7-2.5-7.7-3.6 0-1.8 2.5-1.3 5.4 1zm19.5 21.4c3.7 3.3 8.1 9.8 8.1 11.7-.1.7-.6.3-1.3-.9-.7-1.2-4.6-5.9-8.6-10.5-7-7.7-6.6-7.8 1.8-.3zM46 73.4c0 1.9-.4 3.7-.8 4-.5.3-.8-1.3-.8-3.5.1-2.1.4-3.9.9-3.9.4 0 .7 1.5.7 3.4zM32 90c-2 1.3-6.3 1.3-5.5 0 .3-.6 2.1-1 3.8-1 2.4 0 2.8.3 1.7 1zm18.5 11.5c1.6 1.3 2.6 2.7 2.3 3-1 1-6.8-2.4-6.8-4 0-2.1 1-1.8 4.5 1z"/><path d="M15.7 79.6c-1.2 1.2-.8 4.1.7 5.3 2.2 1.8 5.8-.4 5.4-3.2-.3-2.2-4.5-3.6-6.1-2.1z"/></svg>