<svg xmlns="http://www.w3.org/2000/svg" width="395" height="350" fill="none"><path fill="#D9D9D9" d="M137.655 272.601a8.75 8.75 0 0 0 0-12.401c-3.434-3.424-9.002-3.424-12.437 0a8.752 8.752 0 0 0 0 12.401c3.435 3.425 9.003 3.425 12.437 0ZM282.093 272.116c6.679 0 12.093-5.398 12.093-12.058 0-6.659-5.414-12.058-12.093-12.058S270 253.399 270 260.058c0 6.66 5.414 12.058 12.093 12.058ZM68.794 255.303c4.857 0 8.794-3.926 8.794-8.769s-3.937-8.769-8.794-8.769c-4.857 0-8.794 3.926-8.794 8.769s3.937 8.769 8.794 8.769ZM123.764 252.013a4.39 4.39 0 0 0 4.397-4.384 4.39 4.39 0 0 0-4.397-4.384 4.39 4.39 0 0 0-4.397 4.384 4.39 4.39 0 0 0 4.397 4.384ZM344.675 217.558a4.38 4.38 0 0 0-2.38-5.728 4.4 4.4 0 0 0-5.745 2.373 4.379 4.379 0 0 0 2.379 5.728 4.402 4.402 0 0 0 5.746-2.373ZM99.578 260.784a4.39 4.39 0 0 0 4.397-4.384 4.391 4.391 0 0 0-4.397-4.385 4.39 4.39 0 0 0-4.397 4.385 4.39 4.39 0 0 0 4.397 4.384ZM96.177 221.45a4.376 4.376 0 0 0 0-6.201 4.406 4.406 0 0 0-6.219 0 4.376 4.376 0 0 0 0 6.201 4.406 4.406 0 0 0 6.219 0ZM312.774 241.554a4.38 4.38 0 0 0-2.379-5.729 4.403 4.403 0 0 0-5.746 2.373 4.38 4.38 0 0 0 2.38 5.729 4.401 4.401 0 0 0 5.745-2.373Z"/><path fill="#242423" d="M312.984 0s-93.918 65.498-124.31 223.396a30.195 30.195 0 0 1-2.928 8.388c-3.282 6.236-8.376 19.82 3.509 28.553 7.514 5.522 18.377 6.971 27.59 3.604 9.161-3.348 18.219-11.887 11.761-33.436C217.128 192.196 235.48 75.837 312.984 0ZM148.466 164.895s-14.588 15.516-16.057 49.083a7.31 7.31 0 0 1-.304 1.809c-.416 1.366-.968 4.303 1.283 5.893a4.477 4.477 0 0 0 4.83.212c1.495-.878 2.849-2.839 1.226-7.212-2.886-7.776-2.499-32.432 9.022-49.785ZM278.59 185.363s-8.821 11.463-7.556 34.257c.023.416-.003.834-.084 1.243-.189.952-.365 2.974 1.264 3.899a3.04 3.04 0 0 0 3.28-.178c.952-.694 1.736-2.11.345-4.959-2.475-5.063-3.872-21.76 2.751-34.262Z"/><path fill="#242423" fill-opacity=".5" stroke="#fff" stroke-width="2" d="M171.375 245.919c.348 11.619 5.233 20.556 14.533 26.673 6.494 4.271 13.82 6.408 21.004 6.408 6.766 0 13.406-1.896 19.105-5.698v-.001c5.156-3.434 10.246-8.871 12.74-17.481 2.499-8.626 2.423-20.54-2.962-36.971l-.009-.027-.008-.027c-.144-.545-1.183-4.627-.971-9.205.211-4.548 1.683-9.912 6.896-12.504l.444.891-.443-.891c3.848-1.913 8.088-1.321 11.273 1.57 2.59 2.351 4.702 6.682 2.753 11.709-.165.424-.341.857-.531 1.301m-83.824 34.253 82.905-34.647m-82.905 34.647c-.287-9.535 2.514-19.178 4.604-26.349l.04-.138c.519-1.782 1.014-3.485 1.386-4.944 1.688-6.625.569-11.158-1.087-14.073-1.637-2.883-3.739-4.076-3.887-4.155v-.001l-.013-.006c-1.919-.992-5.121-2.295-8.277-3.023-1.579-.364-3.187-.595-4.639-.554-1.435.041-2.845.35-3.897 1.194-1.355 1.087-1.903 3.05-1.965 5.327-.064 2.331.372 5.254 1.274 8.598m16.461 38.124 5.061-31.678c3.259-12.793-4.399-17.058-4.477-17.1-3.71-1.918-12.496-5.083-15.728-2.491-1.998 1.604-2.128 6.301-.352 12.885m99.32 4.131-.919-.394m.919.394v-.001l-.919-.393m.919.394c-3.775 8.829-1.166 15.44 1.672 19.462l-.789.557.79-.557c3.142 4.453 8.241 7.522 14.004 8.383 9.509 1.423 17.028-1.502 21.386-8.045 3.584-5.378 4.464-12.428 2.321-18.849v-.001c-.913-2.736-2.233-5.426-3.925-7.994l.835-.55m-37.213 7.2c-3.944 9.226-1.211 16.202 1.774 20.432 3.311 4.692 8.659 7.897 14.674 8.796 9.803 1.467 17.747-1.545 22.366-8.479 3.763-5.648 4.674-13.02 2.437-19.721-.941-2.824-2.301-5.592-4.038-8.228m0 0-.835.55c-1.036-1.573-1.441-2.924-1.358-4.133.083-1.213.647-2.112 1.191-2.787 1.238-1.535 3.264-2.389 5.38-2.389h46.173m-50.551 8.759c-1.921-2.918-1.192-4.54-.223-5.742 1.018-1.263 2.737-2.017 4.601-2.017h46.173v-1m-186.165 12.222-.965.26m.965-.26c5.578 20.678-4.657 28.841-11.256 31.868l11.256-31.868Zm-.965.26c2.738 10.151 1.562 17.089-.978 21.82-2.549 4.75-6.553 7.422-9.73 8.879m10.708-30.699-10.708 30.699m0 0c-6.586 3.02-14.436 2.492-20.471-1.364-4.24-2.711-6.9-6.557-7.943-11.244-1.048-4.708-.477-10.331 1.884-16.569.674-1.782 1.02-3.606 1.02-5.422v-.28c0-2.675-2.181-4.845-4.857-4.845H68.455v-4.863h45.386c5.372 0 9.739 4.359 9.739 9.708v.28c0 2.392-.448 4.794-1.336 7.137-1.069 2.823-2.221 6.874-2.034 10.932.19 4.099 1.758 8.257 6.164 11.073 4.659 2.978 10.706 3.371 15.791 1.039l-.384-.837.384.837c4.344-1.992 7.239-5.149 8.582-9.427 1.328-4.234 1.105-9.465-.548-15.594-2.61-9.684-1.559-15.847 2.351-18.978 3.411-2.73 8.415-2.592 13.024-1.504 4.537 1.07 8.359 2.983 9.133 3.386.234.126 3.166 1.758 5.505 5.462 2.335 3.698 4.14 9.556 1.923 18.262l-37.929 22.811Zm36.46-17.569c.553-1.9 1.069-3.673 1.469-5.241l-1.469 5.241Zm0 0-.016.055c-2.013 6.907-4.589 15.748-4.409 24.339.181 8.678 3.178 17.178 12.356 23.215 10.908 7.175 24.538 7.504 34.71.728l-42.641-48.337Zm50.469-.632c4.36 13.268 5.481 24.508 3.177 33.338l-.931-.243.931.244c-1.734 6.649-5.439 11.923-11.004 15.63l7.827-48.969Zm0 0a.126.126 0 0 0-.003-.01l-.033-.108c-.13-.463-1.526-5.616-1.121-11.527.407-5.951 2.613-12.462 9.546-15.91l-.445-.895.445.895c5.658-2.814 12.058-1.926 16.743 2.325 4.778 4.338 6.356 11.025 4.02 17.051v.001c-.183.472-.381.958-.594 1.453l-.001.002c-2.287 5.353-1.93 10.366 1.175 14.761l.817-.577-.817.577c2.407 3.407 6.329 5.713 10.737 6.372 7.469 1.118 13.166-.782 16.592-5.926 2.782-4.176 3.42-9.643 1.755-14.628-.784-2.347-1.92-4.656-3.374-6.86m-55.442 13.004 110.909-30.843v1m-55.467 16.839-.835.551.835-.551Zm0 0c-2.021-3.066-2.388-5.682-2.087-7.765.306-2.109 1.312-3.77 2.193-4.864 2.14-2.659 5.477-4.21 9.188-4.21h46.173m0 0v4.863m0-4.863h1v4.863h-1"/><circle cx="30" cy="286" r="30" fill="#242423"/><path fill="#fff" d="M13.368 279.4V292h2.628v-12.6h-2.628Zm4.284 12.6c1.32 0 2.472-.258 3.456-.774a5.652 5.652 0 0 0 2.322-2.178c.552-.948.828-2.064.828-3.348 0-1.284-.276-2.394-.828-3.33a5.617 5.617 0 0 0-2.322-2.196c-.984-.516-2.136-.774-3.456-.774h-2.628v2.34h2.538c.552 0 1.074.078 1.566.234.492.144.924.378 1.296.702.372.324.66.738.864 1.242.216.492.324 1.086.324 1.782s-.108 1.296-.324 1.8c-.204.492-.492.9-.864 1.224a3.61 3.61 0 0 1-1.296.72 5.548 5.548 0 0 1-1.566.216h-2.538V292h2.628Zm9.447-5.544h9.252v-2.322h-9.252v2.322Zm7.614-7.056V292h2.574v-12.6h-2.574Zm-8.46 0V292h2.574v-12.6h-2.574Zm12.486 2.322h3.384V292h2.574v-10.278h3.402V279.4h-9.36v2.322Z"/><ellipse cx="365" cy="297.5" fill="#242423" rx="30" ry="31.5"/><path fill="#fff" d="M348.368 290.25h2.628v12.6h-2.628v-12.6Zm4.284 12.6h-2.628v-2.34h2.538c.552 0 1.074-.072 1.566-.216a3.61 3.61 0 0 0 1.296-.72c.372-.324.66-.732.864-1.224.216-.504.324-1.104.324-1.8s-.108-1.29-.324-1.782a3.213 3.213 0 0 0-.864-1.242 3.401 3.401 0 0 0-1.296-.702 5.151 5.151 0 0 0-1.566-.234h-2.538v-2.34h2.628c1.32 0 2.472.258 3.456.774a5.617 5.617 0 0 1 2.322 2.196c.552.936.828 2.046.828 3.33 0 1.284-.276 2.4-.828 3.348a5.652 5.652 0 0 1-2.322 2.178c-.984.516-2.136.774-3.456.774Zm9.447-5.544v-2.322h9.252v2.322h-9.252Zm7.614-7.056h2.574v12.6h-2.574v-12.6Zm-8.46 0h2.574v12.6h-2.574v-12.6Zm12.486 2.322v-2.322h9.36v2.322h-3.402v10.278h-2.574v-10.278h-3.384Z"/><circle cx="161" cy="320" r="30" fill="#242423"/><path fill="#fff" d="M144.368 313.4V326h2.628v-12.6h-2.628Zm4.284 12.6c1.32 0 2.472-.258 3.456-.774a5.652 5.652 0 0 0 2.322-2.178c.552-.948.828-2.064.828-3.348 0-1.284-.276-2.394-.828-3.33a5.617 5.617 0 0 0-2.322-2.196c-.984-.516-2.136-.774-3.456-.774h-2.628v2.34h2.538c.552 0 1.074.078 1.566.234.492.144.924.378 1.296.702.372.324.66.738.864 1.242.216.492.324 1.086.324 1.782s-.108 1.296-.324 1.8c-.204.492-.492.9-.864 1.224a3.61 3.61 0 0 1-1.296.72 5.548 5.548 0 0 1-1.566.216h-2.538V326h2.628Zm9.447-5.544h9.252v-2.322h-9.252v2.322Zm7.614-7.056V326h2.574v-12.6h-2.574Zm-8.46 0V326h2.574v-12.6h-2.574Zm12.486 2.322h3.384V326h2.574v-10.278h3.402V313.4h-9.36v2.322Z"/></svg>