<svg xmlns="http://www.w3.org/2000/svg" width="665.333" height="273.333" version="1.0" viewBox="0 0 499 205"><path d="M0 1.8C0 2.4.5 3 1 3.2c.6.2 1.3 2.1 1.6 4.3.5 3.8.4 3.9-1 2.1C.1 7.7 0 7.8 0 11.3c0 3.4.5 4 4.8 6.7C18.2 26.2 21.6 30.7 18 35.2c-1 1.3-5.4 4.1-9.9 6.3C1.5 44.8 0 45.9 0 47.8c0 2.6.9 2.5 8.8-.9 2.9-1.2 4.2-1.4 4-.6-.3.6-3.2 2.3-6.6 3.6L0 52.4l.2 67.9.3 68 14.5 7.6 14.5 7.6H39c8 0 11.2-.5 20.3-3.4 10.3-3.3 11.1-3.4 16.6-2.3 8.7 1.8 16.6 1.5 27.6-1.2 25.2-6.2 39.3-13 57-27.6 14.6-12 21.8-16.4 38.3-23.4 7-3 19-8.4 26.7-12.1 12.7-6.1 23.5-10.5 25.7-10.5.4 0 .8.9.8 1.9 0 1.1.7 2.7 1.6 3.5 3.5 3.6 10 .6 9.1-4.1-.4-2.4-.3-2.5 4.2-1.9 2.5.3 17.9 1 34.1 1.5 16.2.6 32.4 1.5 36 2.1 3.6.6 14.4 3.7 24 7 19.5 6.5 21.3 7 39 10.6 27.7 5.6 34.3 6.6 43 6.1 10.8-.6 14.9-2.3 18.6-7.8 2.2-3.3 3.9-4.6 7.3-5.6 5.4-1.6 7.3-3.1 6.9-5.7-.2-1.4-1.7-2.5-4.7-3.6-5-1.7-7.5-5.5-8.6-13-.6-4.1-.4-4.6 1.7-5.5 4.5-1.9 3-9.9-2.2-11.7-1.4-.4.6-5.2 4.1-9.6 1-1.3 3-6 4.5-10.5 3.2-9.7 6.4-13.2 17.3-19.2 6.6-3.6 11.1-7.5 11.1-9.6 0-.4-1-2-2.3-3.5-2.2-2.5-2.4-2.6-5.3-1.1-3.4 1.8-8.1 6.7-15.2 15.9-5.5 7.2-5.8 8.6-.8 4 1.7-1.5.2.6-3.3 4.6-8.5 9.7-10.3 10.8-4.8 2.8l2-2.9-2.6 1.7c-4.8 3.2-7.8 8.3-8.7 14.9-1.3 8.7-3.3 13.9-9.2 23.7-6.2 10.3-7.3 11.6-11.8 14.5-7.3 4.6-12.7 5.7-29.3 6.2l-15.8.5.3-2.7c.2-1.7-.3-3.1-1.3-3.8-2.4-1.5-4.9-.1-4.9 2.8 0 3-1 3.1-15.5 1-26.3-3.7-42.1-9.7-62.5-23.6-10.5-7.1-16.3-13-23.2-23.4-3.1-4.6-7.4-9.5-10.2-11.6C262.2 58.5 238 53.5 217 56c-5.2.6-14.3 1.4-20.2 1.7-9.7.5-10.8.4-11.4-1.2-.5-1.3.1-2.5 2.2-4.2 10.1-8.2 11.5-9.6 11.2-11.6-.2-1.1-1.1-2.5-2-3.1-2.8-1.7-6.4 1.1-10.9 8.6-6 9.9-13.3 16.9-22.1 21-4 2-8.7 4.7-10.3 6-1.7 1.4-3.8 2.8-4.8 3.1-.9.4-2 1.9-2.3 3.4-.7 3.3-7.2 13.2-9.6 14.7-1.2.7-2.4.6-4.1-.3-1.3-.7-3.3-1.1-4.3-.9-1.7.3-1.9 1.2-1.6 7.3.4 7.8-.8 14.4-3.9 21.6-1.8 4.1-2.8 5-7.7 7.2-9.8 4.4-14.3 5.1-20 3.3-5.5-1.9-9.9-5.7-14.8-13.1-3.9-5.8-4.1-7.2-1.4-12.5 1.1-2.2 2-5 1.9-6.2v-2.3l-1.1 2.2c-.6 1.3-1.7 2.3-2.5 2.3-1.7 0-1.7-1 .3-3.8.9-1.3 1.1-2.2.4-2.2-1.6 0-5 6.2-5 9.2 0 3.3-2.5 5.9-4.8 5.1-5.8-2-9.7-8.7-15.7-27.3-5.5-17.1-9.6-25.2-17-33.9-3-3.5-6.1-8.5-7-10.9-1.1-3.3-4-7.1-10.5-13.7-6.7-6.9-9.7-10.8-11.8-15.6C3.5 4 0-.6 0 1.8zm25.8 35.7c-.3.3-.9-.2-1.2-1.2-.6-1.4-.5-1.5.5-.6.7.7 1 1.5.7 1.8zm170.3 3.8c-1.3 1.3-2.6.3-1.6-1.2.3-.6 1.1-.8 1.7-.5.6.4.6 1-.1 1.7zM495 45c0 1.2-6.2 4.1-7 3.3-.7-.7 4-4.3 5.6-4.3.8 0 1.4.5 1.4 1zM130 97.8c0 1.5-.2 1.5-1 .2-1.3-2-1.3-3.3 0-2.5.6.3 1 1.4 1 2.3zm325.7 17.4c-.2 1.3-.4.5-.4-1.7-.1-2.2.1-3.2.4-2.3.2 1 .2 2.8 0 4zm18.3 14.4c0 .2-1.3.4-3 .4-1.6 0-3-.4-3-.8 0-.5 1.4-.7 3-.4 1.7.2 3 .6 3 .8zm-19 9.4c0 1.5-4.2 5-5.9 5-1.1 0-.5-1 1.7-3 3.5-3.2 4.2-3.6 4.2-2z"/><path d="M204.2 25.2c-.7.7-1.2 2.4-1.2 3.8 0 3.3 1.7 5 5.1 5 3.7 0 6.2-3.5 4.7-6.4-.6-1.2-1.6-2.4-2.2-2.8-1.7-1.2-5.1-.9-6.4.4zM80.2 90.9c-2.1 1.3-1.1 5.5 1.4 5.9 3 .4 4.8-2.1 3.4-4.7-1.1-2.2-2.7-2.6-4.8-1.2zM479.5 119.6c-1.8 1.8-1.6 3.3.7 4.7 3.5 2.2 6.6-2.1 3.6-5.1-1.6-1.6-2.3-1.5-4.3.4z"/></svg>