<svg width="195" height="240" viewBox="0 0 195 240" fill="none" xmlns="http://www.w3.org/2000/svg">
<g filter="url(#filter0_f_1_1922)">
<circle cx="98" cy="96.9199" r="15" fill="#242423"/>
</g>
<circle cx="98" cy="96.9199" r="15" fill="#242423"/>
<path fill-rule="evenodd" clip-rule="evenodd" d="M102 160.797C135.483 158.732 162 130.923 162 96.9199C162 61.5737 133.346 32.9199 98 32.9199C62.6538 32.9199 34 61.5737 34 96.9199C34 130.584 59.9906 158.177 93 160.727V161.73C59.4378 159.177 33 131.136 33 96.9199C33 61.0214 62.1015 31.9199 98 31.9199C133.899 31.9199 163 61.0214 163 96.9199C163 131.475 136.036 159.733 102 161.799V160.797Z" fill="#242423"/>
<path d="M32.8845 147.479L30.3427 143.573C30.8663 143.376 31.402 143.258 31.9498 143.22C32.4903 143.17 33.0261 143.211 33.5572 143.343C34.0883 143.474 34.5959 143.717 35.0802 144.07C35.546 144.419 35.968 144.884 36.3462 145.465C36.8844 146.292 37.1761 147.168 37.2213 148.093C37.2665 149.018 37.0736 149.907 36.6426 150.76C36.2043 151.602 35.5325 152.318 34.6273 152.907C33.7109 153.503 32.7846 153.828 31.8484 153.88C30.8937 153.929 30.0026 153.745 29.1751 153.329C28.3477 152.913 27.6648 152.292 27.1266 151.465C26.5448 150.571 26.2182 149.678 26.1467 148.786C26.064 147.901 26.2156 147.071 26.6014 146.295L25.0249 145.889C24.6955 146.58 24.5064 147.292 24.4576 148.024C24.4016 148.744 24.4786 149.474 24.6886 150.212C24.8913 150.939 25.2291 151.666 25.7018 152.392C26.2545 153.242 26.9181 153.931 27.6926 154.461C28.4559 154.999 29.2858 155.357 30.1825 155.537C31.068 155.725 31.9777 155.729 32.9116 155.551C33.8383 155.361 34.7375 154.983 35.6091 154.416C36.4808 153.849 37.1909 153.18 37.7393 152.409C38.2805 151.627 38.6504 150.79 38.8489 149.897C39.0362 149.012 39.0444 148.108 38.8734 147.185C38.6912 146.269 38.3237 145.387 37.771 144.538C37.1892 143.644 36.5108 142.956 35.7358 142.474C34.9424 141.988 34.1043 141.69 33.2217 141.581C32.339 141.471 31.4545 141.53 30.5681 141.756C29.6705 141.991 28.8138 142.373 27.998 142.904L31.5435 148.352L32.8845 147.479Z" fill="#242423"/>
<path d="M22.3717 108.619C22.2945 107.636 22.035 106.8 21.5931 106.113C21.137 105.413 20.5046 104.854 19.6961 104.436L18.9803 105.796C19.5647 106.085 20.0153 106.457 20.332 106.914C20.6354 107.371 20.8116 107.913 20.8607 108.537C20.9097 109.162 20.8185 109.704 20.5871 110.164C20.3557 110.623 19.9963 110.986 19.509 111.252C19.0216 111.517 18.419 111.678 17.7012 111.735C16.9957 111.777 16.3948 111.703 15.8985 111.515C15.3879 111.314 14.9896 111.011 14.7037 110.606C14.4034 110.188 14.2292 109.673 14.1812 109.062C14.1405 108.543 14.218 108.083 14.4137 107.679C14.6094 107.276 14.8983 106.953 15.2804 106.709C15.6614 106.451 16.1244 106.301 16.6694 106.258C16.7625 106.251 16.8837 106.262 17.033 106.29C17.1691 106.32 17.2719 106.352 17.3415 106.386L16.3742 105.82L16.8908 112.4L18.2466 112.294L17.6314 104.458C17.6048 104.46 17.545 104.464 17.452 104.472C17.3446 104.467 17.2444 104.468 17.1513 104.475C16.181 104.551 15.3571 104.79 14.6798 105.191C14.0024 105.592 13.5032 106.133 13.1821 106.813C12.8468 107.481 12.7146 108.268 12.7855 109.171C12.8565 110.075 13.1185 110.857 13.5715 111.517C14.0235 112.164 14.6236 112.652 15.3716 112.981C16.1186 113.297 16.9707 113.417 17.9277 113.342C18.8715 113.268 19.6882 113.023 20.3778 112.608C21.0663 112.179 21.5911 111.623 21.952 110.939C22.2986 110.243 22.4385 109.47 22.3717 108.619Z" fill="#242423"/>
<path d="M14.1837 77.9534L15.6085 78.4223L17.0465 74.0529L15.6217 73.5839L14.1837 77.9534ZM11.613 75.5281L23.3915 79.4047L23.8917 77.8849L12.1132 74.0083L11.613 75.5281Z" fill="#242423"/>
<path d="M41.91 26.3589L50.1174 37.7007L51.4947 36.7041L43.2872 25.3623L41.91 26.3589Z" fill="#242423"/>
<path d="M73.1002 19.2478L74.5856 24.6472L76.1283 24.2228L74.5898 18.6306C74.2963 17.5635 73.7882 16.7975 73.0657 16.3325C72.3524 15.8511 71.5266 15.7395 70.5881 15.9977C70.0096 16.1569 69.5307 16.4269 69.1515 16.8078C68.7852 17.1851 68.5284 17.6845 68.3813 18.3058L67.9993 16.9173L66.4566 17.3417L68.8969 26.2122L70.4396 25.7878L68.9542 20.3884C68.834 19.9513 68.8179 19.5409 68.9059 19.1571C69.0068 18.7698 69.1996 18.4402 69.4843 18.1682C69.7784 17.8799 70.1504 17.6739 70.6003 17.5501C71.2174 17.3803 71.7379 17.4376 72.1619 17.722C72.5858 18.0064 72.8986 18.515 73.1002 19.2478Z" fill="#242423"/>
<path d="M128.686 13.7735L131.912 15.3725L126.404 26.4823L127.927 27.2373L133.435 16.1275L136.66 17.7265L137.371 16.2929L129.397 12.34L128.686 13.7735Z" fill="#242423"/>
<path d="M154.126 38.4965C153.408 39.072 152.893 39.7504 152.579 40.5317C152.284 41.315 152.201 42.1168 152.329 42.9371C152.457 43.7573 152.8 44.5159 153.359 45.2129C153.927 45.9202 154.592 46.4202 155.357 46.7129C156.13 47.016 156.926 47.1036 157.747 46.9756C158.586 46.8497 159.364 46.499 160.082 45.9234C160.81 45.3395 161.321 44.6559 161.616 43.8726C161.919 43.0997 162.007 42.3031 161.879 41.4828C161.759 40.673 161.416 39.9144 160.849 39.207C160.29 38.5101 159.624 38.0101 158.851 37.707C158.078 37.4039 157.277 37.3111 156.449 37.4287C155.628 37.5566 154.854 37.9126 154.126 38.4965ZM155.14 39.7603C155.639 39.3599 156.164 39.1094 156.716 39.0088C157.286 38.9103 157.827 38.9555 158.337 39.1444C158.856 39.3437 159.303 39.6774 159.678 40.1454C160.054 40.6135 160.278 41.1172 160.352 41.6564C160.434 42.2061 160.36 42.7434 160.132 43.2684C159.922 43.7955 159.568 44.2592 159.068 44.6596C158.569 45.06 158.039 45.3053 157.479 45.3955C156.928 45.4961 156.387 45.4509 155.858 45.2599C155.348 45.071 154.905 44.7425 154.53 44.2745C154.154 43.8064 153.926 43.2975 153.844 42.7479C153.781 42.2003 153.854 41.663 154.064 41.1359C154.282 40.6192 154.64 40.1607 155.14 39.7603Z" fill="#242423"/>
<path d="M173.79 72.0999L179.245 70.8316L178.882 69.2732L173.233 70.5868C172.168 70.8344 171.382 71.3114 170.876 72.0178C170.369 72.7242 170.225 73.545 170.442 74.48C170.581 75.0774 170.832 75.5667 171.194 75.9479C171.57 76.326 172.058 76.6025 172.66 76.7774L171.258 77.1035L171.62 78.662L180.581 76.5783L180.218 75.0199L174.764 76.2882C174.322 76.3909 173.91 76.3841 173.527 76.2678C173.147 76.1645 172.819 75.9601 172.543 75.6548C172.283 75.3594 172.1 74.9844 171.994 74.5299C171.849 73.9065 171.933 73.3872 172.248 72.972C172.562 72.5567 173.076 72.266 173.79 72.0999Z" fill="#242423"/>
<path d="M178.493 105.824C179.119 105.955 179.647 106.202 180.075 106.564C180.514 106.941 180.822 107.387 181.001 107.902C181.176 108.429 181.203 108.986 181.08 109.573C180.979 110.056 180.807 110.49 180.563 110.875C180.329 111.276 180.055 111.607 179.742 111.868C179.428 112.129 179.108 112.294 178.781 112.361L180.738 112.771C181.169 112.534 181.544 112.143 181.863 111.596C182.191 111.066 182.42 110.494 182.548 109.88C182.731 109.006 182.694 108.174 182.437 107.385C182.18 106.595 181.742 105.918 181.125 105.353C180.505 104.801 179.738 104.43 178.825 104.238C177.924 104.05 177.073 104.083 176.27 104.338C175.478 104.608 174.806 105.053 174.254 105.673C173.702 106.293 173.335 107.04 173.152 107.915C173.023 108.528 172.997 109.143 173.073 109.758C173.159 110.389 173.352 110.899 173.652 111.289L175.609 111.698C175.349 111.508 175.122 111.228 174.926 110.861C174.744 110.495 174.619 110.081 174.553 109.618C174.497 109.17 174.519 108.705 174.62 108.222C174.743 107.635 174.99 107.135 175.363 106.722C175.745 106.326 176.207 106.041 176.747 105.868C177.284 105.708 177.866 105.693 178.493 105.824Z" fill="#242423"/>
<path d="M175.692 146.329L176.649 145.046L164.144 135.719L163.188 137.002L175.692 146.329ZM165.106 143.797L160.617 140.449L159.66 141.731L164.309 145.199C164.951 145.677 165.565 145.969 166.152 146.074C166.731 146.19 167.27 146.135 167.771 145.91C168.264 145.695 168.702 145.331 169.084 144.818C169.467 144.305 169.672 143.751 169.7 143.157C169.72 142.572 169.583 141.997 169.291 141.43C169.01 140.87 168.575 140.371 167.987 139.933L167.676 140.35C168.029 140.613 168.289 140.923 168.455 141.28C168.613 141.647 168.669 142.03 168.622 142.427C168.567 142.836 168.4 143.227 168.121 143.601C167.73 144.124 167.284 144.399 166.783 144.424C166.274 144.46 165.715 144.251 165.106 143.797Z" fill="#242423"/>
<line x1="98" y1="90.9199" x2="98" y2="238.92" stroke="#242423" stroke-width="2" stroke-linecap="round"/>
<defs>
<filter id="filter0_f_1_1922" x="59" y="57.9199" width="78" height="78" filterUnits="userSpaceOnUse" color-interpolation-filters="sRGB">
<feFlood flood-opacity="0" result="BackgroundImageFix"/>
<feBlend mode="normal" in="SourceGraphic" in2="BackgroundImageFix" result="shape"/>
<feGaussianBlur stdDeviation="12" result="effect1_foregroundBlur_1_1922"/>
</filter>
</defs>
</svg>
