<svg width="862" height="820" viewBox="0 0 862 820" fill="none" xmlns="http://www.w3.org/2000/svg">
<path d="M671.61 801.97C671.61 800.603 671.91 799.411 672.51 798.395C673.127 797.361 673.927 796.553 674.91 795.97C675.894 795.386 676.96 795.095 678.11 795.095C678.944 795.095 679.702 795.203 680.385 795.42C681.085 795.636 681.719 795.945 682.285 796.345C682.852 796.728 683.335 797.178 683.735 797.695V794.895C683.002 794.245 682.202 793.761 681.335 793.445C680.469 793.128 679.394 792.97 678.11 792.97C676.894 792.97 675.752 793.195 674.685 793.645C673.635 794.078 672.71 794.703 671.91 795.52C671.11 796.32 670.485 797.27 670.035 798.37C669.585 799.47 669.36 800.67 669.36 801.97C669.36 803.27 669.585 804.47 670.035 805.57C670.485 806.67 671.11 807.628 671.91 808.445C672.71 809.245 673.635 809.87 674.685 810.32C675.752 810.753 676.894 810.97 678.11 810.97C679.394 810.97 680.469 810.811 681.335 810.495C682.202 810.178 683.002 809.695 683.735 809.045V806.245C683.335 806.761 682.852 807.22 682.285 807.62C681.719 808.003 681.085 808.303 680.385 808.52C679.702 808.736 678.944 808.845 678.11 808.845C676.96 808.845 675.894 808.553 674.91 807.97C673.927 807.386 673.127 806.578 672.51 805.545C671.91 804.511 671.61 803.32 671.61 801.97ZM686.35 804.97C686.35 806.12 686.608 807.153 687.125 808.07C687.658 808.97 688.375 809.678 689.275 810.195C690.175 810.711 691.183 810.97 692.3 810.97C693.433 810.97 694.441 810.711 695.325 810.195C696.225 809.678 696.933 808.97 697.45 808.07C697.983 807.153 698.25 806.12 698.25 804.97C698.25 803.803 697.983 802.77 697.45 801.87C696.933 800.97 696.225 800.261 695.325 799.745C694.441 799.228 693.433 798.97 692.3 798.97C691.183 798.97 690.175 799.228 689.275 799.745C688.375 800.261 687.658 800.97 687.125 801.87C686.608 802.77 686.35 803.803 686.35 804.97ZM688.375 804.97C688.375 804.17 688.541 803.461 688.875 802.845C689.225 802.211 689.691 801.72 690.275 801.37C690.875 801.02 691.55 800.845 692.3 800.845C693.05 800.845 693.716 801.02 694.3 801.37C694.9 801.72 695.366 802.211 695.7 802.845C696.05 803.461 696.225 804.17 696.225 804.97C696.225 805.77 696.05 806.478 695.7 807.095C695.366 807.711 694.9 808.203 694.3 808.57C693.716 808.92 693.05 809.095 692.3 809.095C691.55 809.095 690.875 808.92 690.275 808.57C689.691 808.203 689.225 807.711 688.875 807.095C688.541 806.478 688.375 805.77 688.375 804.97ZM716.747 803.47C716.747 802.52 716.597 801.711 716.297 801.045C716.014 800.361 715.597 799.845 715.047 799.495C714.497 799.145 713.83 798.97 713.047 798.97C712.28 798.97 711.597 799.153 710.997 799.52C710.397 799.87 709.897 800.403 709.497 801.12C709.23 800.436 708.805 799.911 708.222 799.545C707.655 799.161 706.972 798.97 706.172 798.97C705.455 798.97 704.83 799.128 704.297 799.445C703.78 799.761 703.347 800.245 702.997 800.895V799.22H700.997V810.72H702.997V803.72C702.997 803.12 703.105 802.603 703.322 802.17C703.539 801.736 703.847 801.411 704.247 801.195C704.647 800.961 705.122 800.845 705.672 800.845C706.422 800.845 706.972 801.078 707.322 801.545C707.689 802.011 707.872 802.736 707.872 803.72V810.72H709.872V803.72C709.872 803.12 709.98 802.603 710.197 802.17C710.414 801.736 710.722 801.411 711.122 801.195C711.522 800.961 711.997 800.845 712.547 800.845C713.297 800.845 713.847 801.078 714.197 801.545C714.564 802.011 714.747 802.736 714.747 803.72V810.72H716.747V803.47ZM722.379 791.22H720.379V810.72H722.379V791.22ZM732.004 804.97C732.004 803.72 731.746 802.653 731.229 801.77C730.712 800.87 730.021 800.178 729.154 799.695C728.304 799.211 727.354 798.97 726.304 798.97C725.354 798.97 724.512 799.211 723.779 799.695C723.062 800.178 722.496 800.87 722.079 801.77C721.679 802.653 721.479 803.72 721.479 804.97C721.479 806.203 721.679 807.27 722.079 808.17C722.496 809.07 723.062 809.761 723.779 810.245C724.512 810.728 725.354 810.97 726.304 810.97C727.354 810.97 728.304 810.728 729.154 810.245C730.021 809.761 730.712 809.07 731.229 808.17C731.746 807.27 732.004 806.203 732.004 804.97ZM729.979 804.97C729.979 805.853 729.796 806.603 729.429 807.22C729.079 807.836 728.604 808.303 728.004 808.62C727.421 808.936 726.771 809.095 726.054 809.095C725.471 809.095 724.896 808.936 724.329 808.62C723.762 808.303 723.296 807.836 722.929 807.22C722.562 806.603 722.379 805.853 722.379 804.97C722.379 804.086 722.562 803.336 722.929 802.72C723.296 802.103 723.762 801.636 724.329 801.32C724.896 801.003 725.471 800.845 726.054 800.845C726.771 800.845 727.421 801.003 728.004 801.32C728.604 801.636 729.079 802.103 729.429 802.72C729.796 803.336 729.979 804.086 729.979 804.97ZM734.762 794.47C734.762 794.836 734.895 795.161 735.162 795.445C735.445 795.711 735.77 795.845 736.137 795.845C736.52 795.845 736.845 795.711 737.112 795.445C737.378 795.161 737.512 794.836 737.512 794.47C737.512 794.086 737.378 793.761 737.112 793.495C736.845 793.228 736.52 793.095 736.137 793.095C735.77 793.095 735.445 793.228 735.162 793.495C734.895 793.761 734.762 794.086 734.762 794.47ZM735.137 799.22V810.72H737.137V799.22H735.137ZM748.631 803.72V810.72H750.631V803.47C750.631 802.086 750.273 800.995 749.556 800.195C748.856 799.378 747.898 798.97 746.681 798.97C745.931 798.97 745.264 799.136 744.681 799.47C744.114 799.803 743.639 800.32 743.256 801.02V799.22H741.256V810.72H743.256V803.72C743.256 803.153 743.373 802.653 743.606 802.22C743.856 801.786 744.198 801.453 744.631 801.22C745.081 800.97 745.598 800.845 746.181 800.845C746.981 800.845 747.589 801.086 748.006 801.57C748.423 802.053 748.631 802.77 748.631 803.72ZM758.841 810.97C760.074 810.97 761.141 810.728 762.041 810.245C762.957 809.745 763.716 809.011 764.316 808.045L762.691 807.02C762.274 807.72 761.766 808.245 761.166 808.595C760.566 808.928 759.874 809.095 759.091 809.095C758.307 809.095 757.641 808.928 757.091 808.595C756.541 808.261 756.124 807.778 755.841 807.145C755.557 806.511 755.416 805.745 755.416 804.845C755.432 803.961 755.582 803.22 755.866 802.62C756.166 802.003 756.582 801.536 757.116 801.22C757.666 800.886 758.324 800.72 759.091 800.72C759.741 800.72 760.307 800.861 760.791 801.145C761.274 801.428 761.649 801.82 761.916 802.32C762.199 802.82 762.341 803.411 762.341 804.095C762.341 804.211 762.316 804.361 762.266 804.545C762.216 804.711 762.166 804.836 762.116 804.92L762.916 803.77H754.666V805.47H764.491C764.491 805.436 764.491 805.361 764.491 805.245C764.507 805.111 764.516 804.986 764.516 804.87C764.516 803.653 764.299 802.603 763.866 801.72C763.432 800.836 762.807 800.161 761.991 799.695C761.191 799.211 760.224 798.97 759.091 798.97C757.957 798.97 756.957 799.22 756.091 799.72C755.241 800.22 754.574 800.92 754.091 801.82C753.624 802.72 753.391 803.77 753.391 804.97C753.391 806.153 753.616 807.195 754.066 808.095C754.532 808.995 755.174 809.703 755.991 810.22C756.824 810.72 757.774 810.97 758.841 810.97ZM775.882 791.22V810.72H777.882V791.22H775.882ZM766.257 804.97C766.257 806.203 766.515 807.27 767.032 808.17C767.549 809.07 768.24 809.761 769.107 810.245C769.974 810.728 770.924 810.97 771.957 810.97C772.924 810.97 773.765 810.728 774.482 810.245C775.199 809.761 775.757 809.07 776.157 808.17C776.574 807.27 776.782 806.203 776.782 804.97C776.782 803.72 776.574 802.653 776.157 801.77C775.757 800.87 775.199 800.178 774.482 799.695C773.765 799.211 772.924 798.97 771.957 798.97C770.924 798.97 769.974 799.211 769.107 799.695C768.24 800.178 767.549 800.87 767.032 801.77C766.515 802.653 766.257 803.72 766.257 804.97ZM768.282 804.97C768.282 804.086 768.457 803.336 768.807 802.72C769.174 802.103 769.657 801.636 770.257 801.32C770.857 801.003 771.507 800.845 772.207 800.845C772.79 800.845 773.365 801.003 773.932 801.32C774.499 801.636 774.965 802.103 775.332 802.72C775.699 803.336 775.882 804.086 775.882 804.97C775.882 805.853 775.699 806.603 775.332 807.22C774.965 807.836 774.499 808.303 773.932 808.62C773.365 808.936 772.79 809.095 772.207 809.095C771.507 809.095 770.857 808.936 770.257 808.62C769.657 808.303 769.174 807.836 768.807 807.22C768.457 806.603 768.282 805.853 768.282 804.97Z" fill="#242423" fill-opacity="0.7"/>
<path d="M470.521 795.22H478.346V793.22H470.521V795.22ZM470.521 802.22H478.096V800.22H470.521V802.22ZM469.346 793.22V810.72H471.471V793.22H469.346ZM481.721 794.47C481.721 794.836 481.855 795.161 482.121 795.445C482.405 795.711 482.73 795.845 483.096 795.845C483.48 795.845 483.805 795.711 484.071 795.445C484.338 795.161 484.471 794.836 484.471 794.47C484.471 794.086 484.338 793.761 484.071 793.495C483.805 793.228 483.48 793.095 483.096 793.095C482.73 793.095 482.405 793.228 482.121 793.495C481.855 793.761 481.721 794.086 481.721 794.47ZM482.096 799.22V810.72H484.096V799.22H482.096ZM495.59 803.72V810.72H497.59V803.47C497.59 802.086 497.232 800.995 496.515 800.195C495.815 799.378 494.857 798.97 493.64 798.97C492.89 798.97 492.224 799.136 491.64 799.47C491.074 799.803 490.599 800.32 490.215 801.02V799.22H488.215V810.72H490.215V803.72C490.215 803.153 490.332 802.653 490.565 802.22C490.815 801.786 491.157 801.453 491.59 801.22C492.04 800.97 492.557 800.845 493.14 800.845C493.94 800.845 494.549 801.086 494.965 801.57C495.382 802.053 495.59 802.77 495.59 803.72ZM502.25 807.17C502.25 806.753 502.35 806.395 502.55 806.095C502.75 805.795 503.05 805.561 503.45 805.395C503.867 805.228 504.4 805.145 505.05 805.145C505.75 805.145 506.408 805.236 507.025 805.42C507.642 805.586 508.242 805.87 508.825 806.27V805.095C508.708 804.945 508.483 804.753 508.15 804.52C507.817 804.27 507.367 804.053 506.8 803.87C506.25 803.67 505.558 803.57 504.725 803.57C503.308 803.57 502.2 803.911 501.4 804.595C500.617 805.261 500.225 806.153 500.225 807.27C500.225 808.053 500.408 808.72 500.775 809.27C501.142 809.82 501.625 810.245 502.225 810.545C502.842 810.828 503.5 810.97 504.2 810.97C504.833 810.97 505.467 810.853 506.1 810.62C506.75 810.386 507.292 810.028 507.725 809.545C508.175 809.061 508.4 808.453 508.4 807.72L508 806.22C508 806.82 507.85 807.353 507.55 807.82C507.267 808.27 506.875 808.62 506.375 808.87C505.892 809.12 505.342 809.245 504.725 809.245C504.242 809.245 503.808 809.17 503.425 809.02C503.058 808.853 502.767 808.611 502.55 808.295C502.35 807.978 502.25 807.603 502.25 807.17ZM501.95 801.87C502.133 801.736 502.383 801.578 502.7 801.395C503.017 801.211 503.4 801.053 503.85 800.92C504.317 800.786 504.833 800.72 505.4 800.72C505.75 800.72 506.083 800.753 506.4 800.82C506.717 800.886 506.992 800.995 507.225 801.145C507.475 801.295 507.667 801.503 507.8 801.77C507.933 802.02 508 802.345 508 802.745V810.72H510V802.47C510 801.72 509.808 801.086 509.425 800.57C509.058 800.053 508.533 799.661 507.85 799.395C507.183 799.111 506.4 798.97 505.5 798.97C504.433 798.97 503.517 799.128 502.75 799.445C502 799.761 501.408 800.078 500.975 800.395L501.95 801.87ZM513.861 807.195L512.286 808.17C512.503 808.62 512.82 809.061 513.236 809.495C513.67 809.928 514.195 810.286 514.811 810.57C515.428 810.836 516.12 810.97 516.886 810.97C518.07 810.97 519.02 810.636 519.736 809.97C520.47 809.303 520.836 808.47 520.836 807.47C520.836 806.786 520.67 806.228 520.336 805.795C520.02 805.361 519.586 804.995 519.036 804.695C518.486 804.378 517.878 804.086 517.211 803.82C516.811 803.653 516.428 803.478 516.061 803.295C515.695 803.111 515.395 802.903 515.161 802.67C514.928 802.436 514.811 802.17 514.811 801.87C514.811 801.486 514.961 801.203 515.261 801.02C515.561 800.836 515.92 800.745 516.336 800.745C516.936 800.745 517.47 800.886 517.936 801.17C518.42 801.453 518.82 801.811 519.136 802.245L520.736 801.22C520.503 800.786 520.178 800.403 519.761 800.07C519.345 799.736 518.861 799.47 518.311 799.27C517.778 799.07 517.203 798.97 516.586 798.97C515.97 798.97 515.37 799.078 514.786 799.295C514.22 799.511 513.753 799.845 513.386 800.295C513.036 800.745 512.861 801.311 512.861 801.995C512.861 802.661 513.028 803.22 513.361 803.67C513.711 804.103 514.136 804.461 514.636 804.745C515.153 805.011 515.661 805.245 516.161 805.445C516.611 805.611 517.036 805.795 517.436 805.995C517.836 806.178 518.161 806.411 518.411 806.695C518.678 806.961 518.811 807.295 518.811 807.695C518.811 808.145 518.645 808.503 518.311 808.77C517.995 809.02 517.553 809.145 516.986 809.145C516.52 809.145 516.086 809.061 515.686 808.895C515.303 808.711 514.961 808.47 514.661 808.17C514.361 807.87 514.095 807.545 513.861 807.195ZM521.719 799.22V801.095H527.469V799.22H521.719ZM523.594 795.22V810.72H525.594V795.22H523.594ZM533.925 810.97C535.158 810.97 536.225 810.728 537.125 810.245C538.042 809.745 538.8 809.011 539.4 808.045L537.775 807.02C537.358 807.72 536.85 808.245 536.25 808.595C535.65 808.928 534.958 809.095 534.175 809.095C533.392 809.095 532.725 808.928 532.175 808.595C531.625 808.261 531.208 807.778 530.925 807.145C530.642 806.511 530.5 805.745 530.5 804.845C530.517 803.961 530.667 803.22 530.95 802.62C531.25 802.003 531.667 801.536 532.2 801.22C532.75 800.886 533.408 800.72 534.175 800.72C534.825 800.72 535.392 800.861 535.875 801.145C536.358 801.428 536.733 801.82 537 802.32C537.283 802.82 537.425 803.411 537.425 804.095C537.425 804.211 537.4 804.361 537.35 804.545C537.3 804.711 537.25 804.836 537.2 804.92L538 803.77H529.75V805.47H539.575C539.575 805.436 539.575 805.361 539.575 805.245C539.592 805.111 539.6 804.986 539.6 804.87C539.6 803.653 539.383 802.603 538.95 801.72C538.517 800.836 537.892 800.161 537.075 799.695C536.275 799.211 535.308 798.97 534.175 798.97C533.042 798.97 532.042 799.22 531.175 799.72C530.325 800.22 529.658 800.92 529.175 801.82C528.708 802.72 528.475 803.77 528.475 804.97C528.475 806.153 528.7 807.195 529.15 808.095C529.617 808.995 530.258 809.703 531.075 810.22C531.908 810.72 532.858 810.97 533.925 810.97ZM544.341 799.22H542.341V810.72H544.341V799.22ZM547.816 801.42L548.916 799.77C548.616 799.453 548.283 799.245 547.916 799.145C547.566 799.028 547.183 798.97 546.766 798.97C546.233 798.97 545.708 799.178 545.191 799.595C544.675 800.011 544.25 800.578 543.916 801.295C543.6 801.995 543.441 802.803 543.441 803.72H544.341C544.341 803.17 544.391 802.678 544.491 802.245C544.608 801.811 544.808 801.47 545.091 801.22C545.375 800.97 545.766 800.845 546.266 800.845C546.6 800.845 546.875 800.895 547.091 800.995C547.308 801.078 547.55 801.22 547.816 801.42ZM550.911 794.47C550.911 794.836 551.044 795.161 551.311 795.445C551.594 795.711 551.919 795.845 552.286 795.845C552.669 795.845 552.994 795.711 553.261 795.445C553.527 795.161 553.661 794.836 553.661 794.47C553.661 794.086 553.527 793.761 553.261 793.495C552.994 793.228 552.669 793.095 552.286 793.095C551.919 793.095 551.594 793.228 551.311 793.495C551.044 793.761 550.911 794.086 550.911 794.47ZM551.286 799.22V810.72H553.286V799.22H551.286ZM566.03 791.22V810.72H568.03V791.22H566.03ZM556.405 804.97C556.405 806.203 556.663 807.27 557.18 808.17C557.696 809.07 558.388 809.761 559.255 810.245C560.121 810.728 561.071 810.97 562.105 810.97C563.071 810.97 563.913 810.728 564.63 810.245C565.346 809.761 565.905 809.07 566.305 808.17C566.721 807.27 566.93 806.203 566.93 804.97C566.93 803.72 566.721 802.653 566.305 801.77C565.905 800.87 565.346 800.178 564.63 799.695C563.913 799.211 563.071 798.97 562.105 798.97C561.071 798.97 560.121 799.211 559.255 799.695C558.388 800.178 557.696 800.87 557.18 801.77C556.663 802.653 556.405 803.72 556.405 804.97ZM558.43 804.97C558.43 804.086 558.605 803.336 558.955 802.72C559.321 802.103 559.805 801.636 560.405 801.32C561.005 801.003 561.655 800.845 562.355 800.845C562.938 800.845 563.513 801.003 564.08 801.32C564.646 801.636 565.113 802.103 565.48 802.72C565.846 803.336 566.03 804.086 566.03 804.97C566.03 805.853 565.846 806.603 565.48 807.22C565.113 807.836 564.646 808.303 564.08 808.62C563.513 808.936 562.938 809.095 562.355 809.095C561.655 809.095 561.005 808.936 560.405 808.62C559.805 808.303 559.321 807.836 558.955 807.22C558.605 806.603 558.43 805.853 558.43 804.97ZM576.113 810.97C577.346 810.97 578.413 810.728 579.313 810.245C580.229 809.745 580.988 809.011 581.588 808.045L579.963 807.02C579.546 807.72 579.038 808.245 578.438 808.595C577.838 808.928 577.146 809.095 576.363 809.095C575.579 809.095 574.913 808.928 574.363 808.595C573.813 808.261 573.396 807.778 573.113 807.145C572.829 806.511 572.688 805.745 572.688 804.845C572.704 803.961 572.854 803.22 573.138 802.62C573.438 802.003 573.854 801.536 574.388 801.22C574.938 800.886 575.596 800.72 576.363 800.72C577.013 800.72 577.579 800.861 578.063 801.145C578.546 801.428 578.921 801.82 579.188 802.32C579.471 802.82 579.613 803.411 579.613 804.095C579.613 804.211 579.588 804.361 579.538 804.545C579.488 804.711 579.438 804.836 579.388 804.92L580.188 803.77H571.938V805.47H581.763C581.763 805.436 581.763 805.361 581.763 805.245C581.779 805.111 581.788 804.986 581.788 804.87C581.788 803.653 581.571 802.603 581.138 801.72C580.704 800.836 580.079 800.161 579.263 799.695C578.463 799.211 577.496 798.97 576.363 798.97C575.229 798.97 574.229 799.22 573.363 799.72C572.513 800.22 571.846 800.92 571.363 801.82C570.896 802.72 570.663 803.77 570.663 804.97C570.663 806.153 570.888 807.195 571.338 808.095C571.804 808.995 572.446 809.703 573.263 810.22C574.096 810.72 575.046 810.97 576.113 810.97Z" fill="#242423" fill-opacity="0.7"/>
<path d="M289.597 798.895L295.297 809.095L300.997 798.895L302.297 810.72H304.422L302.297 792.345L295.297 805.02L288.297 792.345L286.172 810.72H288.297L289.597 798.895ZM307.287 794.47C307.287 794.836 307.42 795.161 307.687 795.445C307.97 795.711 308.295 795.845 308.662 795.845C309.045 795.845 309.37 795.711 309.637 795.445C309.903 795.161 310.037 794.836 310.037 794.47C310.037 794.086 309.903 793.761 309.637 793.495C309.37 793.228 309.045 793.095 308.662 793.095C308.295 793.095 307.97 793.228 307.687 793.495C307.42 793.761 307.287 794.086 307.287 794.47ZM307.662 799.22V810.72H309.662V799.22H307.662ZM321.156 803.72V810.72H323.156V803.47C323.156 802.086 322.797 800.995 322.081 800.195C321.381 799.378 320.422 798.97 319.206 798.97C318.456 798.97 317.789 799.136 317.206 799.47C316.639 799.803 316.164 800.32 315.781 801.02V799.22H313.781V810.72H315.781V803.72C315.781 803.153 315.897 802.653 316.131 802.22C316.381 801.786 316.722 801.453 317.156 801.22C317.606 800.97 318.122 800.845 318.706 800.845C319.506 800.845 320.114 801.086 320.531 801.57C320.947 802.053 321.156 802.77 321.156 803.72ZM325.916 804.97C325.916 806.12 326.174 807.153 326.691 808.07C327.224 808.97 327.941 809.678 328.841 810.195C329.741 810.711 330.749 810.97 331.866 810.97C332.999 810.97 334.007 810.711 334.891 810.195C335.791 809.678 336.499 808.97 337.016 808.07C337.549 807.153 337.816 806.12 337.816 804.97C337.816 803.803 337.549 802.77 337.016 801.87C336.499 800.97 335.791 800.261 334.891 799.745C334.007 799.228 332.999 798.97 331.866 798.97C330.749 798.97 329.741 799.228 328.841 799.745C327.941 800.261 327.224 800.97 326.691 801.87C326.174 802.77 325.916 803.803 325.916 804.97ZM327.941 804.97C327.941 804.17 328.107 803.461 328.441 802.845C328.791 802.211 329.257 801.72 329.841 801.37C330.441 801.02 331.116 800.845 331.866 800.845C332.616 800.845 333.282 801.02 333.866 801.37C334.466 801.72 334.932 802.211 335.266 802.845C335.616 803.461 335.791 804.17 335.791 804.97C335.791 805.77 335.616 806.478 335.266 807.095C334.932 807.711 334.466 808.203 333.866 808.57C333.282 808.92 332.616 809.095 331.866 809.095C331.116 809.095 330.441 808.92 329.841 808.57C329.257 808.203 328.791 807.711 328.441 807.095C328.107 806.478 327.941 805.77 327.941 804.97ZM346.322 799.22L343.572 803.22L340.822 799.22H338.572L342.497 804.795L338.322 810.72H340.572L343.572 806.37L346.572 810.72H348.822L344.647 804.795L348.572 799.22H346.322ZM350.695 794.47C350.695 794.836 350.828 795.161 351.095 795.445C351.378 795.711 351.703 795.845 352.07 795.845C352.453 795.845 352.778 795.711 353.045 795.445C353.311 795.161 353.445 794.836 353.445 794.47C353.445 794.086 353.311 793.761 353.045 793.495C352.778 793.228 352.453 793.095 352.07 793.095C351.703 793.095 351.378 793.228 351.095 793.495C350.828 793.761 350.695 794.086 350.695 794.47ZM351.07 799.22V810.72H353.07V799.22H351.07ZM365.814 791.22V810.72H367.814V791.22H365.814ZM356.189 804.97C356.189 806.203 356.447 807.27 356.964 808.17C357.481 809.07 358.172 809.761 359.039 810.245C359.906 810.728 360.856 810.97 361.889 810.97C362.856 810.97 363.697 810.728 364.414 810.245C365.131 809.761 365.689 809.07 366.089 808.17C366.506 807.27 366.714 806.203 366.714 804.97C366.714 803.72 366.506 802.653 366.089 801.77C365.689 800.87 365.131 800.178 364.414 799.695C363.697 799.211 362.856 798.97 361.889 798.97C360.856 798.97 359.906 799.211 359.039 799.695C358.172 800.178 357.481 800.87 356.964 801.77C356.447 802.653 356.189 803.72 356.189 804.97ZM358.214 804.97C358.214 804.086 358.389 803.336 358.739 802.72C359.106 802.103 359.589 801.636 360.189 801.32C360.789 801.003 361.439 800.845 362.139 800.845C362.722 800.845 363.297 801.003 363.864 801.32C364.431 801.636 364.897 802.103 365.264 802.72C365.631 803.336 365.814 804.086 365.814 804.97C365.814 805.853 365.631 806.603 365.264 807.22C364.897 807.836 364.431 808.303 363.864 808.62C363.297 808.936 362.722 809.095 362.139 809.095C361.439 809.095 360.789 808.936 360.189 808.62C359.589 808.303 359.106 807.836 358.739 807.22C358.389 806.603 358.214 805.853 358.214 804.97ZM371.447 794.47C371.447 794.836 371.58 795.161 371.847 795.445C372.13 795.711 372.455 795.845 372.822 795.845C373.205 795.845 373.53 795.711 373.797 795.445C374.063 795.161 374.197 794.836 374.197 794.47C374.197 794.086 374.063 793.761 373.797 793.495C373.53 793.228 373.205 793.095 372.822 793.095C372.455 793.095 372.13 793.228 371.847 793.495C371.58 793.761 371.447 794.086 371.447 794.47ZM371.822 799.22V810.72H373.822V799.22H371.822ZM377.941 791.22V810.72H379.941V791.22H377.941Z" fill="#242423" fill-opacity="0.7"/>
<path d="M88.8141 805.42L87.1141 806.57C87.4974 807.336 87.9891 808.061 88.5891 808.745C89.2057 809.411 89.9141 809.953 90.7141 810.37C91.5307 810.77 92.4141 810.97 93.3641 810.97C94.0641 810.97 94.7307 810.853 95.3641 810.62C96.0141 810.386 96.5891 810.053 97.0891 809.62C97.6057 809.186 98.0057 808.661 98.2891 808.045C98.5891 807.428 98.7391 806.736 98.7391 805.97C98.7391 805.17 98.5974 804.486 98.3141 803.92C98.0307 803.336 97.6641 802.845 97.2141 802.445C96.7807 802.028 96.3057 801.686 95.7891 801.42C95.2724 801.153 94.7807 800.936 94.3141 800.77C93.2974 800.42 92.4891 800.07 91.8891 799.72C91.3057 799.353 90.8891 798.97 90.6391 798.57C90.3891 798.153 90.2641 797.703 90.2641 797.22C90.2641 796.653 90.4807 796.145 90.9141 795.695C91.3474 795.228 92.0391 794.995 92.9891 794.995C93.6724 794.995 94.2474 795.128 94.7141 795.395C95.1974 795.661 95.6057 796.003 95.9391 796.42C96.2724 796.836 96.5474 797.261 96.7641 797.695L98.5891 796.645C98.3057 796.028 97.9141 795.445 97.4141 794.895C96.9141 794.328 96.3057 793.87 95.5891 793.52C94.8891 793.153 94.0641 792.97 93.1141 792.97C92.1307 792.97 91.2557 793.17 90.4891 793.57C89.7224 793.953 89.1224 794.486 88.6891 795.17C88.2557 795.853 88.0391 796.628 88.0391 797.495C88.0391 798.295 88.1891 798.97 88.4891 799.52C88.8057 800.07 89.2057 800.536 89.6891 800.92C90.1724 801.286 90.6807 801.595 91.2141 801.845C91.7474 802.078 92.2307 802.27 92.6641 802.42C93.3307 802.653 93.9557 802.92 94.5391 803.22C95.1391 803.503 95.6224 803.878 95.9891 804.345C96.3557 804.811 96.5391 805.436 96.5391 806.22C96.5391 807.02 96.2557 807.678 95.6891 808.195C95.1224 808.711 94.3724 808.97 93.4391 808.97C92.7391 808.97 92.1141 808.82 91.5641 808.52C91.0141 808.22 90.5141 807.803 90.0641 807.27C89.6307 806.736 89.2141 806.12 88.8141 805.42ZM101.735 794.47C101.735 794.836 101.869 795.161 102.135 795.445C102.419 795.711 102.744 795.845 103.11 795.845C103.494 795.845 103.819 795.711 104.085 795.445C104.352 795.161 104.485 794.836 104.485 794.47C104.485 794.086 104.352 793.761 104.085 793.495C103.819 793.228 103.494 793.095 103.11 793.095C102.744 793.095 102.419 793.228 102.135 793.495C101.869 793.761 101.735 794.086 101.735 794.47ZM102.11 799.22V810.72H104.11V799.22H102.11ZM116.854 791.22V810.72H118.854V791.22H116.854ZM107.229 804.97C107.229 806.203 107.488 807.27 108.004 808.17C108.521 809.07 109.213 809.761 110.079 810.245C110.946 810.728 111.896 810.97 112.929 810.97C113.896 810.97 114.738 810.728 115.454 810.245C116.171 809.761 116.729 809.07 117.129 808.17C117.546 807.27 117.754 806.203 117.754 804.97C117.754 803.72 117.546 802.653 117.129 801.77C116.729 800.87 116.171 800.178 115.454 799.695C114.738 799.211 113.896 798.97 112.929 798.97C111.896 798.97 110.946 799.211 110.079 799.695C109.213 800.178 108.521 800.87 108.004 801.77C107.488 802.653 107.229 803.72 107.229 804.97ZM109.254 804.97C109.254 804.086 109.429 803.336 109.779 802.72C110.146 802.103 110.629 801.636 111.229 801.32C111.829 801.003 112.479 800.845 113.179 800.845C113.763 800.845 114.338 801.003 114.904 801.32C115.471 801.636 115.938 802.103 116.304 802.72C116.671 803.336 116.854 804.086 116.854 804.97C116.854 805.853 116.671 806.603 116.304 807.22C115.938 807.836 115.471 808.303 114.904 808.62C114.338 808.936 113.763 809.095 113.179 809.095C112.479 809.095 111.829 808.936 111.229 808.62C110.629 808.303 110.146 807.836 109.779 807.22C109.429 806.603 109.254 805.853 109.254 804.97ZM126.937 810.97C128.171 810.97 129.237 810.728 130.137 810.245C131.054 809.745 131.812 809.011 132.412 808.045L130.787 807.02C130.371 807.72 129.862 808.245 129.262 808.595C128.662 808.928 127.971 809.095 127.187 809.095C126.404 809.095 125.737 808.928 125.187 808.595C124.637 808.261 124.221 807.778 123.937 807.145C123.654 806.511 123.512 805.745 123.512 804.845C123.529 803.961 123.679 803.22 123.962 802.62C124.262 802.003 124.679 801.536 125.212 801.22C125.762 800.886 126.421 800.72 127.187 800.72C127.837 800.72 128.404 800.861 128.887 801.145C129.371 801.428 129.746 801.82 130.012 802.32C130.296 802.82 130.437 803.411 130.437 804.095C130.437 804.211 130.412 804.361 130.362 804.545C130.312 804.711 130.262 804.836 130.212 804.92L131.012 803.77H122.762V805.47H132.587C132.587 805.436 132.587 805.361 132.587 805.245C132.604 805.111 132.612 804.986 132.612 804.87C132.612 803.653 132.396 802.603 131.962 801.72C131.529 800.836 130.904 800.161 130.087 799.695C129.287 799.211 128.321 798.97 127.187 798.97C126.054 798.97 125.054 799.22 124.187 799.72C123.337 800.22 122.671 800.92 122.187 801.82C121.721 802.72 121.487 803.77 121.487 804.97C121.487 806.153 121.712 807.195 122.162 808.095C122.629 808.995 123.271 809.703 124.087 810.22C124.921 810.72 125.871 810.97 126.937 810.97ZM144.149 810.72H152.974V808.72H144.149V810.72ZM144.149 795.22H152.974V793.22H144.149V795.22ZM144.149 802.22H152.474V800.22H144.149V802.22ZM142.974 793.22V810.72H145.099V793.22H142.974ZM155.719 799.22V801.095H161.469V799.22H155.719ZM161.269 793.62L162.369 791.97C162.252 791.803 162.085 791.645 161.869 791.495C161.669 791.345 161.427 791.22 161.144 791.12C160.86 791.02 160.535 790.97 160.169 790.97C159.469 790.97 158.869 791.12 158.369 791.42C157.885 791.703 157.51 792.136 157.244 792.72C156.977 793.303 156.844 794.053 156.844 794.97V810.72H158.844V795.22C158.844 794.67 158.894 794.228 158.994 793.895C159.094 793.561 159.227 793.328 159.394 793.195C159.577 793.045 159.794 792.97 160.044 792.97C160.244 792.97 160.452 793.011 160.669 793.095C160.902 793.161 161.102 793.336 161.269 793.62ZM162.872 799.22V801.095H168.622V799.22H162.872ZM168.422 793.62L169.522 791.97C169.405 791.803 169.239 791.645 169.022 791.495C168.822 791.345 168.58 791.22 168.297 791.12C168.014 791.02 167.689 790.97 167.322 790.97C166.622 790.97 166.022 791.12 165.522 791.42C165.039 791.703 164.664 792.136 164.397 792.72C164.13 793.303 163.997 794.053 163.997 794.97V810.72H165.997V795.22C165.997 794.67 166.047 794.228 166.147 793.895C166.247 793.561 166.38 793.328 166.547 793.195C166.73 793.045 166.947 792.97 167.197 792.97C167.397 792.97 167.605 793.011 167.822 793.095C168.055 793.161 168.255 793.336 168.422 793.62ZM175.35 810.97C176.584 810.97 177.65 810.728 178.55 810.245C179.467 809.745 180.225 809.011 180.825 808.045L179.2 807.02C178.784 807.72 178.275 808.245 177.675 808.595C177.075 808.928 176.384 809.095 175.6 809.095C174.817 809.095 174.15 808.928 173.6 808.595C173.05 808.261 172.634 807.778 172.35 807.145C172.067 806.511 171.925 805.745 171.925 804.845C171.942 803.961 172.092 803.22 172.375 802.62C172.675 802.003 173.092 801.536 173.625 801.22C174.175 800.886 174.834 800.72 175.6 800.72C176.25 800.72 176.817 800.861 177.3 801.145C177.784 801.428 178.159 801.82 178.425 802.32C178.709 802.82 178.85 803.411 178.85 804.095C178.85 804.211 178.825 804.361 178.775 804.545C178.725 804.711 178.675 804.836 178.625 804.92L179.425 803.77H171.175V805.47H181C181 805.436 181 805.361 181 805.245C181.017 805.111 181.025 804.986 181.025 804.87C181.025 803.653 180.809 802.603 180.375 801.72C179.942 800.836 179.317 800.161 178.5 799.695C177.7 799.211 176.734 798.97 175.6 798.97C174.467 798.97 173.467 799.22 172.6 799.72C171.75 800.22 171.084 800.92 170.6 801.82C170.134 802.72 169.9 803.77 169.9 804.97C169.9 806.153 170.125 807.195 170.575 808.095C171.042 808.995 171.684 809.703 172.5 810.22C173.334 810.72 174.284 810.97 175.35 810.97ZM184.667 804.97C184.667 804.17 184.833 803.461 185.167 802.845C185.517 802.211 185.983 801.72 186.567 801.37C187.167 801.02 187.842 800.845 188.592 800.845C189.208 800.845 189.783 800.945 190.317 801.145C190.867 801.328 191.342 801.578 191.742 801.895C192.142 802.211 192.425 802.561 192.592 802.945V800.445C192.192 799.978 191.617 799.62 190.867 799.37C190.133 799.103 189.375 798.97 188.592 798.97C187.475 798.97 186.467 799.228 185.567 799.745C184.667 800.261 183.95 800.97 183.417 801.87C182.9 802.77 182.642 803.803 182.642 804.97C182.642 806.12 182.9 807.153 183.417 808.07C183.95 808.97 184.667 809.678 185.567 810.195C186.467 810.711 187.475 810.97 188.592 810.97C189.375 810.97 190.133 810.845 190.867 810.595C191.617 810.328 192.192 809.961 192.592 809.495V806.995C192.425 807.361 192.142 807.711 191.742 808.045C191.342 808.361 190.867 808.62 190.317 808.82C189.783 809.003 189.208 809.095 188.592 809.095C187.842 809.095 187.167 808.92 186.567 808.57C185.983 808.203 185.517 807.711 185.167 807.095C184.833 806.478 184.667 805.77 184.667 804.97ZM193.955 799.22V801.095H199.705V799.22H193.955ZM195.83 795.22V810.72H197.83V795.22H195.83Z" fill="#242423" fill-opacity="0.7"/>
<path d="M858.286 762.562H3.15842C2.76138 762.562 2.43652 762.154 2.43652 761.655C2.43652 761.155 2.76138 760.747 3.15842 760.747H858.286C858.683 760.747 859.008 761.155 859.008 761.655C859.008 762.154 858.683 762.562 858.286 762.562Z" fill="#DFDFDF"/>
<path d="M858.286 730.865H3.15842C2.76138 730.865 2.43652 730.457 2.43652 729.957C2.43652 729.458 2.76138 729.05 3.15842 729.05H858.286C858.683 729.05 859.008 729.458 859.008 729.957C859.008 730.457 858.683 730.865 858.286 730.865Z" fill="#DFDFDF"/>
<path d="M858.286 699.167H3.15842C2.76138 699.167 2.43652 698.758 2.43652 698.259C2.43652 697.76 2.76138 697.352 3.15842 697.352H858.286C858.683 697.352 859.008 697.76 859.008 698.259C859.008 698.758 858.683 699.167 858.286 699.167Z" fill="#DFDFDF"/>
<path d="M858.286 667.469H3.15842C2.76138 667.469 2.43652 667.061 2.43652 666.562C2.43652 666.063 2.76138 665.654 3.15842 665.654H858.286C858.683 665.654 859.008 666.063 859.008 666.562C859.008 667.061 858.683 667.469 858.286 667.469Z" fill="#DFDFDF"/>
<path d="M858.286 635.771H3.15842C2.76138 635.771 2.43652 635.363 2.43652 634.864C2.43652 634.364 2.76138 633.956 3.15842 633.956H858.286C858.683 633.956 859.008 634.364 859.008 634.864C859.008 635.363 858.683 635.771 858.286 635.771Z" fill="#DFDFDF"/>
<path d="M858.286 604.074H3.15842C2.76138 604.074 2.43652 603.666 2.43652 603.166C2.43652 602.667 2.76138 602.259 3.15842 602.259H858.286C858.683 602.259 859.008 602.667 859.008 603.166C859.008 603.666 858.683 604.074 858.286 604.074Z" fill="#DFDFDF"/>
<path d="M858.286 572.376H3.15842C2.76138 572.376 2.43652 571.967 2.43652 571.468C2.43652 570.969 2.76138 570.561 3.15842 570.561H858.286C858.683 570.561 859.008 570.969 859.008 571.468C859.008 571.967 858.683 572.376 858.286 572.376Z" fill="#DFDFDF"/>
<path d="M858.286 540.678H3.15842C2.76138 540.678 2.43652 540.27 2.43652 539.771C2.43652 539.272 2.76138 538.863 3.15842 538.863H858.286C858.683 538.863 859.008 539.272 859.008 539.771C859.008 540.27 858.683 540.678 858.286 540.678Z" fill="#DFDFDF"/>
<path d="M858.286 508.98H3.15842C2.76138 508.98 2.43652 508.572 2.43652 508.073C2.43652 507.573 2.76138 507.165 3.15842 507.165H858.286C858.683 507.165 859.008 507.573 859.008 508.073C859.008 508.572 858.683 508.98 858.286 508.98Z" fill="#DFDFDF"/>
<path d="M858.286 477.282H3.15842C2.76138 477.282 2.43652 476.874 2.43652 476.374C2.43652 475.875 2.76138 475.467 3.15842 475.467H858.286C858.683 475.467 859.008 475.875 859.008 476.374C859.008 476.874 858.683 477.282 858.286 477.282Z" fill="#DFDFDF"/>
<path d="M858.286 445.585H3.15842C2.76138 445.585 2.43652 445.176 2.43652 444.677C2.43652 444.178 2.76138 443.77 3.15842 443.77H858.286C858.683 443.77 859.008 444.178 859.008 444.677C859.008 445.176 858.683 445.585 858.286 445.585Z" fill="#DFDFDF"/>
<path d="M858.286 413.886H3.15842C2.76138 413.886 2.43652 413.478 2.43652 412.979C2.43652 412.48 2.76138 412.071 3.15842 412.071H858.286C858.683 412.071 859.008 412.48 859.008 412.979C859.008 413.478 858.683 413.886 858.286 413.886Z" fill="#DFDFDF"/>
<path d="M858.286 382.189H3.15842C2.76138 382.189 2.43652 381.781 2.43652 381.282C2.43652 380.782 2.76138 380.374 3.15842 380.374H858.286C858.683 380.374 859.008 380.782 859.008 381.282C859.008 381.781 858.683 382.189 858.286 382.189Z" fill="#DFDFDF"/>
<path d="M858.286 350.491H3.15842C2.76138 350.491 2.43652 350.083 2.43652 349.583C2.43652 349.084 2.76138 348.676 3.15842 348.676H858.286C858.683 348.676 859.008 349.084 859.008 349.583C859.008 350.083 858.683 350.491 858.286 350.491Z" fill="#DFDFDF"/>
<path d="M858.286 318.794H3.15842C2.76138 318.794 2.43652 318.385 2.43652 317.886C2.43652 317.387 2.76138 316.979 3.15842 316.979H858.286C858.683 316.979 859.008 317.387 859.008 317.886C859.008 318.385 858.683 318.794 858.286 318.794Z" fill="#DFDFDF"/>
<path d="M858.286 287.095H3.15842C2.76138 287.095 2.43652 286.687 2.43652 286.188C2.43652 285.689 2.76138 285.28 3.15842 285.28H858.286C858.683 285.28 859.008 285.689 859.008 286.188C859.008 286.687 858.683 287.095 858.286 287.095Z" fill="#DFDFDF"/>
<path d="M858.286 255.397H3.15842C2.76138 255.397 2.43652 254.989 2.43652 254.49C2.43652 253.99 2.76138 253.582 3.15842 253.582H858.286C858.683 253.582 859.008 253.99 859.008 254.49C859.008 254.989 858.683 255.397 858.286 255.397Z" fill="#DFDFDF"/>
<path d="M858.286 223.7H3.15842C2.76138 223.7 2.43652 223.292 2.43652 222.792C2.43652 222.293 2.76138 221.885 3.15842 221.885H858.286C858.683 221.885 859.008 222.293 859.008 222.792C859.008 223.292 858.683 223.7 858.286 223.7Z" fill="#DFDFDF"/>
<path d="M858.286 192.002H3.15842C2.76138 192.002 2.43652 191.593 2.43652 191.094C2.43652 190.595 2.76138 190.187 3.15842 190.187H858.286C858.683 190.187 859.008 190.595 859.008 191.094C859.008 191.593 858.683 192.002 858.286 192.002Z" fill="#DFDFDF"/>
<path d="M858.286 160.304H3.15842C2.76138 160.304 2.43652 159.896 2.43652 159.397C2.43652 158.898 2.76138 158.489 3.15842 158.489H858.286C858.683 158.489 859.008 158.898 859.008 159.397C859.008 159.896 858.683 160.304 858.286 160.304Z" fill="#DFDFDF"/>
<path d="M858.286 128.607H3.15842C2.76138 128.607 2.43652 128.198 2.43652 127.699C2.43652 127.2 2.76138 126.792 3.15842 126.792H858.286C858.683 126.792 859.008 127.2 859.008 127.699C859.008 128.198 858.683 128.607 858.286 128.607Z" fill="#DFDFDF"/>
<path d="M858.286 96.9084H3.15842C2.76138 96.9084 2.43652 96.5 2.43652 96.0009C2.43652 95.5017 2.76138 95.0933 3.15842 95.0933H858.286C858.683 95.0933 859.008 95.5017 859.008 96.0009C859.008 96.5 858.683 96.9084 858.286 96.9084Z" fill="#DFDFDF"/>
<path d="M858.286 65.2107H3.15842C2.76138 65.2107 2.43652 64.8023 2.43652 64.3031C2.43652 63.8039 2.76138 63.3955 3.15842 63.3955H858.286C858.683 63.3955 859.008 63.8039 859.008 64.3031C859.008 64.8023 858.683 65.2107 858.286 65.2107Z" fill="#DFDFDF"/>
<path d="M858.286 33.513H3.15842C2.76138 33.513 2.43652 33.1045 2.43652 32.6054C2.43652 32.1062 2.76138 31.6978 3.15842 31.6978H858.286C858.683 31.6978 859.008 32.1062 859.008 32.6054C859.008 33.1045 858.683 33.513 858.286 33.513Z" fill="#DFDFDF"/>
<path d="M858.286 1.8152H3.15842C2.76138 1.8152 2.43652 1.40678 2.43652 0.9076C2.43652 0.408422 2.76138 0 3.15842 0H858.286C858.683 0 859.008 0.408422 859.008 0.9076C859.008 1.40678 858.683 1.8152 858.286 1.8152Z" fill="#DFDFDF"/>
<path d="M858.286 768.508H3.15831C1.42575 768.508 0 766.738 0 764.537C0 762.359 1.40771 760.566 3.15831 760.566H858.286C860.018 760.566 861.444 762.336 861.444 764.537C861.426 766.738 860.018 768.508 858.286 768.508Z" fill="#4C4F60"/>
<path d="M221.722 686.176L142.052 664.61L62.3813 686.176V761.655H221.722V686.176Z" fill="url(#paint0_linear_28_347)"/>
<path d="M415.133 435.125L336.08 362.562L255.792 435.125V761.655H415.133V435.125Z" fill="url(#paint1_linear_28_347)"/>
<path d="M607.989 326.282L528.297 253.72L448.627 326.282V761.655H607.989V326.282Z" fill="url(#paint2_linear_28_347)"/>
<path d="M800.451 196.865L721.057 126.859L641.684 196.865V756.912H800.451V196.865Z" fill="url(#paint3_linear_28_347)"/>
<path d="M709.355 98.4397C709.355 99.0131 709.228 99.5197 708.975 99.9597C708.735 100.4 708.401 100.746 707.975 101C707.548 101.253 707.068 101.38 706.535 101.38C705.988 101.38 705.501 101.253 705.075 101C704.648 100.746 704.308 100.4 704.055 99.9597C703.815 99.5197 703.695 99.0131 703.695 98.4397C703.695 97.8664 703.815 97.3664 704.055 96.9397C704.308 96.4997 704.648 96.1597 705.075 95.9197C705.501 95.6664 705.988 95.5397 706.535 95.5397C707.068 95.5397 707.548 95.6664 707.975 95.9197C708.401 96.1597 708.735 96.4997 708.975 96.9397C709.228 97.3664 709.355 97.8664 709.355 98.4397ZM706.035 107.7L710.475 101.74C710.821 101.286 711.101 100.786 711.315 100.24C711.541 99.6931 711.655 99.0931 711.655 98.4397C711.655 97.3997 711.428 96.5131 710.975 95.7797C710.521 95.0331 709.908 94.4664 709.135 94.0797C708.361 93.6797 707.495 93.4797 706.535 93.4797C705.575 93.4797 704.708 93.6797 703.935 94.0797C703.161 94.4664 702.541 95.0331 702.075 95.7797C701.621 96.5131 701.395 97.3997 701.395 98.4397C701.395 99.1064 701.508 99.7197 701.735 100.28C701.961 100.84 702.268 101.326 702.655 101.74C703.055 102.14 703.508 102.446 704.015 102.66C704.521 102.873 705.055 102.98 705.615 102.98C706.081 102.98 706.488 102.926 706.835 102.82C707.181 102.713 707.515 102.486 707.835 102.14L707.475 102.2L703.035 107.7H706.035ZM713.02 105.04H724.54V103H721.68L721.34 103.18H716.48L720.06 97.9397V103.98L719.92 104.2V107.72H722.34V93.7197H720.92L713.02 105.04ZM725.838 96.8397C725.838 97.4664 725.978 98.0397 726.258 98.5597C726.552 99.0664 726.958 99.4731 727.478 99.7797C727.998 100.086 728.585 100.24 729.238 100.24C729.918 100.24 730.512 100.086 731.018 99.7797C731.538 99.4731 731.938 99.0664 732.218 98.5597C732.512 98.0397 732.658 97.4664 732.658 96.8397C732.658 96.2131 732.512 95.6464 732.218 95.1397C731.938 94.6197 731.538 94.2064 731.018 93.8997C730.512 93.5931 729.918 93.4397 729.238 93.4397C728.585 93.4397 727.998 93.5931 727.478 93.8997C726.958 94.2064 726.552 94.6197 726.258 95.1397C725.978 95.6464 725.838 96.2131 725.838 96.8397ZM727.678 96.8397C727.678 96.5331 727.745 96.2531 727.878 95.9997C728.012 95.7464 728.192 95.5464 728.418 95.3997C728.658 95.2531 728.932 95.1797 729.238 95.1797C729.572 95.1797 729.852 95.2531 730.078 95.3997C730.305 95.5464 730.485 95.7464 730.618 95.9997C730.752 96.2531 730.818 96.5331 730.818 96.8397C730.818 97.1331 730.752 97.4131 730.618 97.6797C730.485 97.9331 730.305 98.1397 730.078 98.2997C729.852 98.4464 729.572 98.5197 729.238 98.5197C728.932 98.5197 728.658 98.4464 728.418 98.2997C728.192 98.1397 728.012 97.9331 727.878 97.6797C727.745 97.4131 727.678 97.1331 727.678 96.8397ZM734.178 104.6C734.178 105.213 734.325 105.78 734.618 106.3C734.912 106.82 735.312 107.233 735.818 107.54C736.338 107.833 736.932 107.98 737.598 107.98C738.265 107.98 738.852 107.833 739.358 107.54C739.878 107.233 740.278 106.82 740.558 106.3C740.852 105.78 740.998 105.213 740.998 104.6C740.998 103.96 740.852 103.386 740.558 102.88C740.278 102.36 739.878 101.953 739.358 101.66C738.852 101.353 738.265 101.2 737.598 101.2C736.932 101.2 736.338 101.353 735.818 101.66C735.312 101.953 734.912 102.36 734.618 102.88C734.325 103.386 734.178 103.96 734.178 104.6ZM736.038 104.58C736.038 104.286 736.098 104.013 736.218 103.76C736.352 103.506 736.532 103.306 736.758 103.16C736.998 103 737.278 102.92 737.598 102.92C737.918 102.92 738.192 103 738.418 103.16C738.658 103.306 738.838 103.506 738.958 103.76C739.092 104.013 739.158 104.286 739.158 104.58C739.158 104.886 739.092 105.166 738.958 105.42C738.838 105.673 738.658 105.88 738.418 106.04C738.192 106.186 737.918 106.26 737.598 106.26C737.278 106.26 736.998 106.186 736.758 106.04C736.532 105.88 736.352 105.673 736.218 105.42C736.098 105.153 736.038 104.873 736.038 104.58ZM737.198 93.7197L727.498 107.72H729.638L739.338 93.7197H737.198Z" fill="#1A1919"/>
<path d="M511.853 228.1C511.853 228.686 511.96 229.206 512.173 229.66C512.4 230.1 512.707 230.473 513.093 230.78C513.48 231.086 513.927 231.32 514.433 231.48C514.94 231.64 515.48 231.72 516.053 231.72C516.627 231.72 517.167 231.64 517.673 231.48C518.18 231.32 518.627 231.086 519.013 230.78C519.4 230.473 519.707 230.1 519.933 229.66C520.16 229.206 520.273 228.686 520.273 228.1C520.273 227.38 520.08 226.753 519.693 226.22C519.32 225.673 518.813 225.246 518.173 224.94C517.547 224.633 516.84 224.48 516.053 224.48C515.267 224.48 514.553 224.633 513.913 224.94C513.287 225.246 512.787 225.673 512.413 226.22C512.04 226.753 511.853 227.38 511.853 228.1ZM514.093 228.34C514.093 227.953 514.173 227.606 514.333 227.3C514.507 226.993 514.74 226.76 515.033 226.6C515.34 226.426 515.68 226.34 516.053 226.34C516.44 226.34 516.78 226.426 517.073 226.6C517.367 226.76 517.593 226.993 517.753 227.3C517.927 227.606 518.013 227.953 518.013 228.34C518.013 228.74 517.927 229.086 517.753 229.38C517.58 229.673 517.34 229.906 517.033 230.08C516.74 230.24 516.413 230.32 516.053 230.32C515.693 230.32 515.367 230.24 515.073 230.08C514.78 229.906 514.54 229.673 514.353 229.38C514.18 229.086 514.093 228.74 514.093 228.34ZM511.353 234.92C511.353 235.506 511.473 236.046 511.713 236.54C511.953 237.02 512.287 237.446 512.713 237.82C513.153 238.18 513.653 238.46 514.213 238.66C514.787 238.86 515.4 238.96 516.053 238.96C516.707 238.96 517.313 238.86 517.873 238.66C518.447 238.46 518.947 238.18 519.373 237.82C519.813 237.446 520.153 237.02 520.393 236.54C520.647 236.046 520.773 235.506 520.773 234.92C520.773 234.24 520.633 233.646 520.353 233.14C520.087 232.633 519.727 232.213 519.273 231.88C518.82 231.533 518.313 231.28 517.753 231.12C517.193 230.96 516.627 230.88 516.053 230.88C515.48 230.88 514.913 230.96 514.353 231.12C513.793 231.28 513.287 231.533 512.833 231.88C512.38 232.213 512.02 232.633 511.753 233.14C511.487 233.646 511.353 234.24 511.353 234.92ZM513.673 234.6C513.673 234.16 513.78 233.76 513.993 233.4C514.22 233.04 514.513 232.76 514.873 232.56C515.247 232.346 515.64 232.24 516.053 232.24C516.467 232.24 516.853 232.346 517.213 232.56C517.587 232.76 517.887 233.04 518.113 233.4C518.34 233.76 518.453 234.16 518.453 234.6C518.453 235.106 518.34 235.54 518.113 235.9C517.887 236.246 517.587 236.513 517.213 236.7C516.853 236.886 516.467 236.98 516.053 236.98C515.64 236.98 515.247 236.886 514.873 236.7C514.513 236.513 514.22 236.246 513.993 235.9C513.78 235.54 513.673 235.106 513.673 234.6ZM527.076 231.86C528.063 231.86 528.936 231.713 529.696 231.42C530.469 231.126 531.076 230.706 531.516 230.16C531.956 229.613 532.176 228.986 532.176 228.28C532.176 227.586 532.003 226.96 531.656 226.4C531.323 225.826 530.836 225.366 530.196 225.02C529.556 224.673 528.783 224.5 527.876 224.5C527.023 224.5 526.269 224.673 525.616 225.02C524.963 225.353 524.449 225.813 524.076 226.4C523.716 226.986 523.536 227.666 523.536 228.44H525.756C525.756 227.88 525.956 227.42 526.356 227.06C526.769 226.686 527.283 226.5 527.896 226.5C528.309 226.5 528.656 226.58 528.936 226.74C529.216 226.9 529.429 227.126 529.576 227.42C529.723 227.7 529.796 228.026 529.796 228.4C529.796 228.693 529.729 228.98 529.596 229.26C529.476 229.526 529.296 229.76 529.056 229.96C528.829 230.16 528.549 230.32 528.216 230.44C527.883 230.546 527.503 230.6 527.076 230.6V231.86ZM527.776 238.96C528.736 238.96 529.576 238.793 530.296 238.46C531.016 238.126 531.576 237.66 531.976 237.06C532.376 236.46 532.576 235.766 532.576 234.98C532.576 234.273 532.436 233.673 532.156 233.18C531.876 232.673 531.483 232.266 530.976 231.96C530.483 231.64 529.903 231.406 529.236 231.26C528.569 231.1 527.849 231.02 527.076 231.02V232.36C527.543 232.36 527.969 232.413 528.356 232.52C528.743 232.626 529.069 232.78 529.336 232.98C529.616 233.18 529.829 233.426 529.976 233.72C530.123 234.013 530.196 234.346 530.196 234.72C530.196 235.186 530.096 235.586 529.896 235.92C529.696 236.24 529.416 236.486 529.056 236.66C528.709 236.833 528.296 236.92 527.816 236.92C527.349 236.92 526.923 236.833 526.536 236.66C526.149 236.473 525.843 236.22 525.616 235.9C525.403 235.566 525.296 235.173 525.296 234.72H522.936C522.936 235.293 523.049 235.84 523.276 236.36C523.503 236.866 523.823 237.32 524.236 237.72C524.649 238.106 525.156 238.413 525.756 238.64C526.356 238.853 527.029 238.96 527.776 238.96ZM533.959 227.84C533.959 228.466 534.099 229.04 534.379 229.56C534.673 230.066 535.079 230.473 535.599 230.78C536.119 231.086 536.706 231.24 537.359 231.24C538.039 231.24 538.633 231.086 539.139 230.78C539.659 230.473 540.059 230.066 540.339 229.56C540.633 229.04 540.779 228.466 540.779 227.84C540.779 227.213 540.633 226.646 540.339 226.14C540.059 225.62 539.659 225.206 539.139 224.9C538.633 224.593 538.039 224.44 537.359 224.44C536.706 224.44 536.119 224.593 535.599 224.9C535.079 225.206 534.673 225.62 534.379 226.14C534.099 226.646 533.959 227.213 533.959 227.84ZM535.799 227.84C535.799 227.533 535.866 227.253 535.999 227C536.133 226.746 536.313 226.546 536.539 226.4C536.779 226.253 537.053 226.18 537.359 226.18C537.693 226.18 537.973 226.253 538.199 226.4C538.426 226.546 538.606 226.746 538.739 227C538.873 227.253 538.939 227.533 538.939 227.84C538.939 228.133 538.873 228.413 538.739 228.68C538.606 228.933 538.426 229.14 538.199 229.3C537.973 229.446 537.693 229.52 537.359 229.52C537.053 229.52 536.779 229.446 536.539 229.3C536.313 229.14 536.133 228.933 535.999 228.68C535.866 228.413 535.799 228.133 535.799 227.84ZM542.299 235.6C542.299 236.213 542.446 236.78 542.739 237.3C543.033 237.82 543.433 238.233 543.939 238.54C544.459 238.833 545.053 238.98 545.719 238.98C546.386 238.98 546.973 238.833 547.479 238.54C547.999 238.233 548.399 237.82 548.679 237.3C548.973 236.78 549.119 236.213 549.119 235.6C549.119 234.96 548.973 234.386 548.679 233.88C548.399 233.36 547.999 232.953 547.479 232.66C546.973 232.353 546.386 232.2 545.719 232.2C545.053 232.2 544.459 232.353 543.939 232.66C543.433 232.953 543.033 233.36 542.739 233.88C542.446 234.386 542.299 234.96 542.299 235.6ZM544.159 235.58C544.159 235.286 544.219 235.013 544.339 234.76C544.473 234.506 544.653 234.306 544.879 234.16C545.119 234 545.399 233.92 545.719 233.92C546.039 233.92 546.313 234 546.539 234.16C546.779 234.306 546.959 234.506 547.079 234.76C547.213 235.013 547.279 235.286 547.279 235.58C547.279 235.886 547.213 236.166 547.079 236.42C546.959 236.673 546.779 236.88 546.539 237.04C546.313 237.186 546.039 237.26 545.719 237.26C545.399 237.26 545.119 237.186 544.879 237.04C544.653 236.88 544.473 236.673 544.339 236.42C544.219 236.153 544.159 235.873 544.159 235.58ZM545.319 224.72L535.619 238.72H537.759L547.459 224.72H545.319Z" fill="#1A1919"/>
<path d="M317.61 327.94H324.55L318.81 339.72H321.33L328.05 325.72H317.61V327.94ZM331.243 332.72C331.243 331.973 331.316 331.286 331.463 330.66C331.61 330.033 331.816 329.493 332.083 329.04C332.363 328.586 332.696 328.24 333.083 328C333.47 327.746 333.896 327.62 334.363 327.62C334.856 327.62 335.29 327.746 335.663 328C336.05 328.24 336.376 328.586 336.643 329.04C336.923 329.493 337.136 330.033 337.283 330.66C337.43 331.286 337.503 331.973 337.503 332.72C337.503 333.466 337.43 334.153 337.283 334.78C337.136 335.406 336.923 335.946 336.643 336.4C336.376 336.853 336.05 337.206 335.663 337.46C335.29 337.7 334.856 337.82 334.363 337.82C333.896 337.82 333.47 337.7 333.083 337.46C332.696 337.206 332.363 336.853 332.083 336.4C331.816 335.946 331.61 335.406 331.463 334.78C331.316 334.153 331.243 333.466 331.243 332.72ZM328.923 332.72C328.923 334.173 329.15 335.44 329.603 336.52C330.07 337.6 330.71 338.44 331.523 339.04C332.35 339.64 333.296 339.94 334.363 339.94C335.456 339.94 336.41 339.64 337.223 339.04C338.05 338.44 338.69 337.6 339.143 336.52C339.596 335.44 339.823 334.173 339.823 332.72C339.823 331.266 339.596 330 339.143 328.92C338.69 327.84 338.05 327 337.223 326.4C336.41 325.8 335.456 325.5 334.363 325.5C333.296 325.5 332.35 325.8 331.523 326.4C330.71 327 330.07 327.84 329.603 328.92C329.15 330 328.923 331.266 328.923 332.72ZM341.223 328.84C341.223 329.466 341.363 330.04 341.643 330.56C341.936 331.066 342.343 331.473 342.863 331.78C343.383 332.086 343.97 332.24 344.623 332.24C345.303 332.24 345.896 332.086 346.403 331.78C346.923 331.473 347.323 331.066 347.603 330.56C347.896 330.04 348.043 329.466 348.043 328.84C348.043 328.213 347.896 327.646 347.603 327.14C347.323 326.62 346.923 326.206 346.403 325.9C345.896 325.593 345.303 325.44 344.623 325.44C343.97 325.44 343.383 325.593 342.863 325.9C342.343 326.206 341.936 326.62 341.643 327.14C341.363 327.646 341.223 328.213 341.223 328.84ZM343.063 328.84C343.063 328.533 343.13 328.253 343.263 328C343.396 327.746 343.576 327.546 343.803 327.4C344.043 327.253 344.316 327.18 344.623 327.18C344.956 327.18 345.236 327.253 345.463 327.4C345.69 327.546 345.87 327.746 346.003 328C346.136 328.253 346.203 328.533 346.203 328.84C346.203 329.133 346.136 329.413 346.003 329.68C345.87 329.933 345.69 330.14 345.463 330.3C345.236 330.446 344.956 330.52 344.623 330.52C344.316 330.52 344.043 330.446 343.803 330.3C343.576 330.14 343.396 329.933 343.263 329.68C343.13 329.413 343.063 329.133 343.063 328.84ZM349.563 336.6C349.563 337.213 349.71 337.78 350.003 338.3C350.296 338.82 350.696 339.233 351.203 339.54C351.723 339.833 352.316 339.98 352.983 339.98C353.65 339.98 354.236 339.833 354.743 339.54C355.263 339.233 355.663 338.82 355.943 338.3C356.236 337.78 356.383 337.213 356.383 336.6C356.383 335.96 356.236 335.386 355.943 334.88C355.663 334.36 355.263 333.953 354.743 333.66C354.236 333.353 353.65 333.2 352.983 333.2C352.316 333.2 351.723 333.353 351.203 333.66C350.696 333.953 350.296 334.36 350.003 334.88C349.71 335.386 349.563 335.96 349.563 336.6ZM351.423 336.58C351.423 336.286 351.483 336.013 351.603 335.76C351.736 335.506 351.916 335.306 352.143 335.16C352.383 335 352.663 334.92 352.983 334.92C353.303 334.92 353.576 335 353.803 335.16C354.043 335.306 354.223 335.506 354.343 335.76C354.476 336.013 354.543 336.286 354.543 336.58C354.543 336.886 354.476 337.166 354.343 337.42C354.223 337.673 354.043 337.88 353.803 338.04C353.576 338.186 353.303 338.26 352.983 338.26C352.663 338.26 352.383 338.186 352.143 338.04C351.916 337.88 351.736 337.673 351.603 337.42C351.483 337.153 351.423 336.873 351.423 336.58ZM352.583 325.72L342.883 339.72H345.023L354.723 325.72H352.583Z" fill="#1A1919"/>
<path d="M127.681 635.72H138.361V633.52H132.281L136.261 629.62C136.835 629.086 137.295 628.48 137.641 627.8C138.001 627.12 138.181 626.413 138.181 625.68C138.181 625.213 138.081 624.733 137.881 624.24C137.695 623.746 137.401 623.293 137.001 622.88C136.615 622.466 136.121 622.133 135.521 621.88C134.921 621.613 134.215 621.48 133.401 621.48C132.335 621.48 131.428 621.706 130.681 622.16C129.948 622.6 129.388 623.213 129.001 624C128.628 624.773 128.441 625.66 128.441 626.66H130.781C130.781 626.046 130.881 625.506 131.081 625.04C131.295 624.573 131.595 624.22 131.981 623.98C132.368 623.726 132.828 623.6 133.361 623.6C133.748 623.6 134.088 623.666 134.381 623.8C134.675 623.92 134.921 624.086 135.121 624.3C135.335 624.513 135.488 624.753 135.581 625.02C135.688 625.273 135.741 625.533 135.741 625.8C135.741 626.173 135.681 626.526 135.561 626.86C135.441 627.193 135.261 627.526 135.021 627.86C134.781 628.193 134.495 628.54 134.161 628.9L127.681 635.72ZM139.952 624.84C139.952 625.466 140.092 626.04 140.372 626.56C140.665 627.066 141.072 627.473 141.592 627.78C142.112 628.086 142.698 628.24 143.352 628.24C144.032 628.24 144.625 628.086 145.132 627.78C145.652 627.473 146.052 627.066 146.332 626.56C146.625 626.04 146.772 625.466 146.772 624.84C146.772 624.213 146.625 623.646 146.332 623.14C146.052 622.62 145.652 622.206 145.132 621.9C144.625 621.593 144.032 621.44 143.352 621.44C142.698 621.44 142.112 621.593 141.592 621.9C141.072 622.206 140.665 622.62 140.372 623.14C140.092 623.646 139.952 624.213 139.952 624.84ZM141.792 624.84C141.792 624.533 141.858 624.253 141.992 624C142.125 623.746 142.305 623.546 142.532 623.4C142.772 623.253 143.045 623.18 143.352 623.18C143.685 623.18 143.965 623.253 144.192 623.4C144.418 623.546 144.598 623.746 144.732 624C144.865 624.253 144.932 624.533 144.932 624.84C144.932 625.133 144.865 625.413 144.732 625.68C144.598 625.933 144.418 626.14 144.192 626.3C143.965 626.446 143.685 626.52 143.352 626.52C143.045 626.52 142.772 626.446 142.532 626.3C142.305 626.14 142.125 625.933 141.992 625.68C141.858 625.413 141.792 625.133 141.792 624.84ZM148.292 632.6C148.292 633.213 148.438 633.78 148.732 634.3C149.025 634.82 149.425 635.233 149.932 635.54C150.452 635.833 151.045 635.98 151.712 635.98C152.378 635.98 152.965 635.833 153.472 635.54C153.992 635.233 154.392 634.82 154.672 634.3C154.965 633.78 155.112 633.213 155.112 632.6C155.112 631.96 154.965 631.386 154.672 630.88C154.392 630.36 153.992 629.953 153.472 629.66C152.965 629.353 152.378 629.2 151.712 629.2C151.045 629.2 150.452 629.353 149.932 629.66C149.425 629.953 149.025 630.36 148.732 630.88C148.438 631.386 148.292 631.96 148.292 632.6ZM150.152 632.58C150.152 632.286 150.212 632.013 150.332 631.76C150.465 631.506 150.645 631.306 150.872 631.16C151.112 631 151.392 630.92 151.712 630.92C152.032 630.92 152.305 631 152.532 631.16C152.772 631.306 152.952 631.506 153.072 631.76C153.205 632.013 153.272 632.286 153.272 632.58C153.272 632.886 153.205 633.166 153.072 633.42C152.952 633.673 152.772 633.88 152.532 634.04C152.305 634.186 152.032 634.26 151.712 634.26C151.392 634.26 151.112 634.186 150.872 634.04C150.645 633.88 150.465 633.673 150.332 633.42C150.212 633.153 150.152 632.873 150.152 632.58ZM151.312 621.72L141.612 635.72H143.752L153.452 621.72H151.312Z" fill="#1A1919"/>
<defs>
<linearGradient id="paint0_linear_28_347" x1="142.052" y1="664.61" x2="142.052" y2="761.655" gradientUnits="userSpaceOnUse">
<stop stop-color="#242423" stop-opacity="0.9"/>
<stop offset="1" stop-color="#242423"/>
</linearGradient>
<linearGradient id="paint1_linear_28_347" x1="335.462" y1="362.562" x2="335.462" y2="761.655" gradientUnits="userSpaceOnUse">
<stop stop-color="#242423" stop-opacity="0.9"/>
<stop offset="1" stop-color="#242423"/>
</linearGradient>
<linearGradient id="paint2_linear_28_347" x1="528.308" y1="253.72" x2="528.308" y2="761.655" gradientUnits="userSpaceOnUse">
<stop stop-color="#242423" stop-opacity="0.9"/>
<stop offset="1" stop-color="#242423"/>
</linearGradient>
<linearGradient id="paint3_linear_28_347" x1="721.068" y1="126.859" x2="721.068" y2="756.912" gradientUnits="userSpaceOnUse">
<stop stop-color="#242423" stop-opacity="0.9"/>
<stop offset="1" stop-color="#242423"/>
</linearGradient>
</defs>
</svg>
