<svg width="395" height="350" viewBox="0 0 395 350" fill="none" xmlns="http://www.w3.org/2000/svg">
<path d="M137.655 272.601C141.09 269.177 141.09 263.625 137.655 260.2C134.221 256.776 128.653 256.776 125.218 260.2C121.784 263.625 121.784 269.177 125.218 272.601C128.653 276.026 134.221 276.026 137.655 272.601Z" fill="#D9D9D9"/>
<path d="M282.093 272.116C288.772 272.116 294.186 266.718 294.186 260.058C294.186 253.399 288.772 248 282.093 248C275.414 248 270 253.399 270 260.058C270 266.718 275.414 272.116 282.093 272.116Z" fill="#D9D9D9"/>
<path d="M68.7943 255.303C73.6512 255.303 77.5885 251.377 77.5885 246.534C77.5885 241.691 73.6512 237.765 68.7943 237.765C63.9373 237.765 60 241.691 60 246.534C60 251.377 63.9373 255.303 68.7943 255.303Z" fill="#D9D9D9"/>
<path d="M123.764 252.013C126.193 252.013 128.161 250.051 128.161 247.629C128.161 245.208 126.193 243.245 123.764 243.245C121.336 243.245 119.367 245.208 119.367 247.629C119.367 250.051 121.336 252.013 123.764 252.013Z" fill="#D9D9D9"/>
<path d="M344.675 217.558C345.604 215.321 344.539 212.756 342.295 211.83C340.051 210.903 337.479 211.965 336.55 214.203C335.62 216.44 336.686 219.005 338.929 219.931C341.173 220.858 343.745 219.796 344.675 217.558Z" fill="#D9D9D9"/>
<path d="M99.578 260.784C102.006 260.784 103.975 258.821 103.975 256.4C103.975 253.978 102.006 252.015 99.578 252.015C97.1495 252.015 95.1809 253.978 95.1809 256.4C95.1809 258.821 97.1495 260.784 99.578 260.784Z" fill="#D9D9D9"/>
<path d="M96.1767 221.45C97.8939 219.737 97.8939 216.961 96.1767 215.249C94.4595 213.537 91.6755 213.537 89.9583 215.249C88.2411 216.961 88.2411 219.737 89.9583 221.45C91.6755 223.162 94.4595 223.162 96.1767 221.45Z" fill="#D9D9D9"/>
<path d="M312.774 241.554C313.704 239.317 312.638 236.752 310.395 235.825C308.151 234.899 305.579 235.961 304.649 238.198C303.72 240.435 304.785 243 307.029 243.927C309.273 244.854 311.845 243.791 312.774 241.554Z" fill="#D9D9D9"/>
<path d="M312.984 0C312.984 0 219.066 65.4976 188.674 223.396C188.118 226.28 187.158 229.106 185.746 231.784C182.464 238.02 177.37 251.604 189.255 260.337C196.769 265.859 207.632 267.308 216.845 263.941C226.006 260.593 235.064 252.054 228.606 230.505C217.128 192.196 235.48 75.837 312.984 0Z" fill="#242423"/>
<path d="M148.466 164.895C148.466 164.895 133.878 180.411 132.409 213.978C132.382 214.59 132.284 215.2 132.105 215.787C131.689 217.153 131.137 220.09 133.388 221.68C134.812 222.685 136.714 222.775 138.218 221.892C139.713 221.014 141.067 219.053 139.444 214.68C136.558 206.904 136.945 182.248 148.466 164.895Z" fill="#242423"/>
<path d="M278.59 185.363C278.59 185.363 269.769 196.826 271.034 219.62C271.057 220.036 271.031 220.454 270.95 220.863C270.761 221.815 270.585 223.837 272.214 224.762C273.245 225.348 274.537 225.281 275.494 224.584C276.446 223.89 277.23 222.474 275.839 219.625C273.364 214.562 271.967 197.865 278.59 185.363Z" fill="#242423"/>
<path d="M171.375 245.919V245.919C171.723 257.538 176.608 266.475 185.908 272.592C192.402 276.863 199.728 279 206.912 279C213.678 279 220.318 277.104 226.017 273.302L226.017 273.301C231.173 269.867 236.263 264.43 238.757 255.82C241.256 247.194 241.18 235.28 235.795 218.849L235.786 218.822L235.778 218.795C235.634 218.25 234.595 214.168 234.807 209.59C235.018 205.042 236.49 199.678 241.703 197.086L242.147 197.977L241.704 197.086C245.552 195.173 249.792 195.765 252.977 198.656C255.567 201.007 257.679 205.338 255.73 210.365L255.73 210.365C255.565 210.789 255.389 211.222 255.199 211.666M171.375 245.919L254.28 211.272M171.375 245.919C171.088 236.384 173.889 226.741 175.979 219.57L175.979 219.57L176.019 219.432C176.538 217.65 177.033 215.947 177.405 214.488L177.405 214.488C179.093 207.863 177.974 203.33 176.318 200.415C174.681 197.532 172.579 196.339 172.431 196.26L172.431 196.259L172.418 196.253C170.499 195.261 167.297 193.958 164.141 193.23C162.562 192.866 160.954 192.635 159.502 192.676C158.067 192.717 156.657 193.026 155.605 193.87L155.605 193.87C154.25 194.957 153.702 196.92 153.64 199.197C153.576 201.528 154.012 204.451 154.914 207.795M171.375 245.919L176.436 214.241C179.695 201.448 172.037 197.183 171.959 197.141C168.249 195.223 159.463 192.058 156.231 194.65C154.233 196.254 154.103 200.951 155.879 207.535M255.199 211.666L254.28 211.272M255.199 211.666C255.199 211.665 255.199 211.665 255.199 211.665L254.28 211.272M255.199 211.666C251.424 220.495 254.033 227.106 256.871 231.128L256.082 231.685L256.872 231.128C260.014 235.581 265.113 238.65 270.876 239.511L270.876 239.511C280.385 240.934 287.904 238.009 292.262 231.466L292.262 231.466C295.846 226.088 296.726 219.038 294.583 212.617L294.583 212.616C293.67 209.88 292.35 207.19 290.658 204.622L291.493 204.072M254.28 211.272C250.336 220.498 253.069 227.474 256.054 231.704C259.365 236.396 264.713 239.601 270.728 240.5C280.531 241.967 288.475 238.955 293.094 232.021C296.857 226.373 297.768 219.001 295.531 212.3C294.59 209.476 293.23 206.708 291.493 204.072M291.493 204.072L290.658 204.622C289.622 203.049 289.217 201.698 289.3 200.489C289.383 199.276 289.947 198.377 290.491 197.702L290.491 197.702C291.729 196.167 293.755 195.313 295.871 195.313H342.044M291.493 204.072C289.572 201.154 290.301 199.532 291.27 198.33C292.288 197.067 294.007 196.313 295.871 196.313H342.044V195.313M155.879 207.535L154.914 207.795C154.914 207.795 154.914 207.795 154.914 207.795M155.879 207.535C161.457 228.213 151.222 236.376 144.623 239.403L155.879 207.535ZM154.914 207.795C157.652 217.946 156.476 224.884 153.936 229.615C151.387 234.365 147.383 237.037 144.206 238.494M154.914 207.795L144.206 238.494M144.206 238.494C137.62 241.514 129.77 240.986 123.735 237.13C119.495 234.419 116.835 230.573 115.792 225.886C114.744 221.178 115.315 215.555 117.676 209.317L117.676 209.317C118.35 207.535 118.696 205.711 118.696 203.895V203.615C118.696 200.94 116.515 198.77 113.839 198.77H68.4553V193.907H113.841C119.213 193.907 123.58 198.266 123.58 203.615V203.895C123.58 206.287 123.132 208.689 122.244 211.032L122.244 211.032C121.175 213.855 120.023 217.906 120.21 221.964C120.4 226.063 121.968 230.221 126.374 233.037C131.033 236.015 137.08 236.408 142.165 234.076L141.781 233.239L142.165 234.076C146.509 232.084 149.404 228.927 150.747 224.649C152.075 220.415 151.852 215.184 150.199 209.055C147.589 199.371 148.64 193.208 152.55 190.077C155.961 187.347 160.965 187.485 165.574 188.573C170.111 189.643 173.933 191.556 174.707 191.959C174.941 192.085 177.873 193.717 180.212 197.421C182.547 201.119 184.352 206.977 182.135 215.683L144.206 238.494ZM180.666 220.925C181.219 219.025 181.735 217.252 182.135 215.684L180.666 220.925ZM180.666 220.925L180.65 220.98C178.637 227.887 176.061 236.728 176.241 245.319C176.422 253.997 179.419 262.497 188.597 268.534C199.505 275.709 213.135 276.038 223.307 269.262L180.666 220.925ZM231.135 220.293C235.495 233.561 236.616 244.801 234.312 253.631L233.381 253.388L234.312 253.632C232.578 260.281 228.873 265.555 223.308 269.262L231.135 220.293ZM231.135 220.293C231.134 220.289 231.133 220.286 231.132 220.283L231.099 220.175C230.969 219.712 229.573 214.559 229.978 208.648C230.385 202.697 232.591 196.186 239.524 192.738L239.079 191.843L239.524 192.738C245.182 189.924 251.582 190.812 256.267 195.063C261.045 199.401 262.623 206.088 260.287 212.114L260.287 212.115C260.104 212.587 259.906 213.073 259.693 213.568L259.692 213.57C257.405 218.923 257.762 223.936 260.867 228.331L261.684 227.754L260.867 228.331C263.274 231.738 267.196 234.044 271.604 234.703C279.073 235.821 284.77 233.921 288.196 228.777C290.978 224.601 291.616 219.134 289.951 214.149C289.167 211.802 288.031 209.493 286.577 207.289M231.135 220.293L342.044 189.45V190.45M286.577 207.289C286.577 207.289 286.577 207.289 286.577 207.289L285.742 207.84L286.577 207.289ZM286.577 207.289C284.556 204.223 284.189 201.607 284.49 199.524C284.796 197.415 285.802 195.754 286.683 194.66L286.683 194.66C288.823 192.001 292.16 190.45 295.871 190.45H342.044M342.044 190.45V195.313M342.044 190.45H343.044V195.313H342.044" fill="#242423" fill-opacity="0.5" stroke="white" stroke-width="2"/>
<circle cx="30" cy="286" r="30" fill="#242423"/>
<path d="M13.368 279.4V292H15.996V279.4H13.368ZM17.652 292C18.972 292 20.124 291.742 21.108 291.226C22.104 290.71 22.878 289.984 23.43 289.048C23.982 288.1 24.258 286.984 24.258 285.7C24.258 284.416 23.982 283.306 23.43 282.37C22.878 281.422 22.104 280.69 21.108 280.174C20.124 279.658 18.972 279.4 17.652 279.4H15.024V281.74H17.562C18.114 281.74 18.636 281.818 19.128 281.974C19.62 282.118 20.052 282.352 20.424 282.676C20.796 283 21.084 283.414 21.288 283.918C21.504 284.41 21.612 285.004 21.612 285.7C21.612 286.396 21.504 286.996 21.288 287.5C21.084 287.992 20.796 288.4 20.424 288.724C20.052 289.048 19.62 289.288 19.128 289.444C18.636 289.588 18.114 289.66 17.562 289.66H15.024V292H17.652ZM27.0988 286.456H36.3508V284.134H27.0988V286.456ZM34.7128 279.4V292H37.2868V279.4H34.7128ZM26.2528 279.4V292H28.8268V279.4H26.2528ZM38.7389 281.722H42.1229V292H44.6969V281.722H48.0989V279.4H38.7389V281.722Z" fill="white"/>
<ellipse cx="365" cy="297.5" rx="30" ry="31.5" fill="#242423"/>
<path d="M348.368 290.25H350.996V302.85H348.368V290.25ZM352.652 302.85H350.024V300.51H352.562C353.114 300.51 353.636 300.438 354.128 300.294C354.62 300.138 355.052 299.898 355.424 299.574C355.796 299.25 356.084 298.842 356.288 298.35C356.504 297.846 356.612 297.246 356.612 296.55C356.612 295.854 356.504 295.26 356.288 294.768C356.084 294.264 355.796 293.85 355.424 293.526C355.052 293.202 354.62 292.968 354.128 292.824C353.636 292.668 353.114 292.59 352.562 292.59H350.024V290.25H352.652C353.972 290.25 355.124 290.508 356.108 291.024C357.104 291.54 357.878 292.272 358.43 293.22C358.982 294.156 359.258 295.266 359.258 296.55C359.258 297.834 358.982 298.95 358.43 299.898C357.878 300.834 357.104 301.56 356.108 302.076C355.124 302.592 353.972 302.85 352.652 302.85ZM362.099 297.306V294.984H371.351V297.306H362.099ZM369.713 290.25H372.287V302.85H369.713V290.25ZM361.253 290.25H363.827V302.85H361.253V290.25ZM373.739 292.572V290.25H383.099V292.572H379.697V302.85H377.123V292.572H373.739Z" fill="white"/>
<circle cx="161" cy="320" r="30" fill="#242423"/>
<path d="M144.368 313.4V326H146.996V313.4H144.368ZM148.652 326C149.972 326 151.124 325.742 152.108 325.226C153.104 324.71 153.878 323.984 154.43 323.048C154.982 322.1 155.258 320.984 155.258 319.7C155.258 318.416 154.982 317.306 154.43 316.37C153.878 315.422 153.104 314.69 152.108 314.174C151.124 313.658 149.972 313.4 148.652 313.4H146.024V315.74H148.562C149.114 315.74 149.636 315.818 150.128 315.974C150.62 316.118 151.052 316.352 151.424 316.676C151.796 317 152.084 317.414 152.288 317.918C152.504 318.41 152.612 319.004 152.612 319.7C152.612 320.396 152.504 320.996 152.288 321.5C152.084 321.992 151.796 322.4 151.424 322.724C151.052 323.048 150.62 323.288 150.128 323.444C149.636 323.588 149.114 323.66 148.562 323.66H146.024V326H148.652ZM158.099 320.456H167.351V318.134H158.099V320.456ZM165.713 313.4V326H168.287V313.4H165.713ZM157.253 313.4V326H159.827V313.4H157.253ZM169.739 315.722H173.123V326H175.697V315.722H179.099V313.4H169.739V315.722Z" fill="white"/>
</svg>
