<?xml version="1.0" standalone="no"?>
<!DOCTYPE svg PUBLIC "-//W3C//DTD SVG 20010904//EN"
 "http://www.w3.org/TR/2001/REC-SVG-20010904/DTD/svg10.dtd">
<svg version="1.0" xmlns="http://www.w3.org/2000/svg"
 width="281.000000pt" height="112.000000pt" viewBox="0 0 281.000000 112.000000"
 preserveAspectRatio="xMidYMid meet">

<g transform="translate(0.000000,112.000000) scale(0.100000,-0.100000)"
fill="#000000" stroke="none">
<path d="M38 1098 c-50 -40 -22 -87 83 -143 111 -58 143 -93 174 -184 14 -43
41 -102 60 -132 41 -64 43 -82 11 -103 -14 -8 -27 -25 -31 -36 -8 -25 19 -70
41 -70 13 0 15 -8 9 -42 -12 -74 -40 -126 -72 -134 -97 -22 -95 -81 3 -105 36
-9 51 -20 76 -56 17 -25 45 -51 64 -59 82 -34 237 -28 459 20 61 14 157 34
215 46 100 21 217 56 378 114 110 40 240 55 517 62 138 3 280 9 317 15 89 12
86 13 80 -16 -5 -30 21 -65 50 -65 26 0 61 38 55 61 -3 10 -4 19 -3 19 17 0
124 -39 192 -70 47 -22 88 -40 90 -40 2 0 4 181 4 401 l0 401 -87 -6 c-109 -9
-179 -21 -263 -48 -134 -43 -193 -89 -280 -218 -66 -99 -123 -153 -241 -232
-218 -144 -402 -205 -737 -243 -49 -5 -52 -4 -43 12 21 40 -31 72 -60 37 -10
-13 -10 -20 0 -36 12 -19 10 -20 -161 -16 -152 3 -180 7 -231 27 -79 31 -117
67 -177 166 -70 116 -88 160 -101 251 l-12 79 -77 75 c-42 41 -92 95 -110 120
-49 66 -111 130 -142 146 -33 17 -30 17 -50 2z m66 -29 c15 -12 25 -23 23 -26
-8 -7 -77 25 -77 36 0 18 25 13 54 -10z m195 -214 c37 -33 81 -98 81 -117 -1
-7 -6 -3 -13 9 -7 12 -46 59 -86 105 -70 77 -66 78 18 3z m161 -469 c0 -19 -4
-37 -8 -40 -5 -3 -8 13 -8 35 1 21 4 39 9 39 4 0 7 -15 7 -34z m-140 -166
c-20 -13 -63 -13 -55 0 3 6 21 10 38 10 24 0 28 -3 17 -10z m185 -115 c16 -13
26 -27 23 -30 -10 -10 -68 24 -68 40 0 21 10 18 45 -10z"/>
<path d="M157 324 c-12 -12 -8 -41 7 -53 22 -18 58 4 54 32 -3 22 -45 36 -61
21z"/>
</g>
</svg>
