<?xml version="1.0" standalone="no"?>
<!DOCTYPE svg PUBLIC "-//W3C//DTD SVG 20010904//EN"
 "http://www.w3.org/TR/2001/REC-SVG-20010904/DTD/svg10.dtd">
<svg version="1.0" xmlns="http://www.w3.org/2000/svg"
 width="499.000000pt" height="205.000000pt" viewBox="0 0 499.000000 205.000000"
 preserveAspectRatio="xMidYMid meet">

<g transform="translate(0.000000,205.000000) scale(0.100000,-0.100000)"
fill="#000000" stroke="none">
<path d="M0 2032 c0 -6 5 -12 10 -14 6 -2 13 -21 16 -43 5 -38 4 -39 -10 -21
-15 19 -16 18 -16 -17 0 -34 5 -40 48 -67 134 -82 168 -127 132 -172 -10 -13
-54 -41 -99 -63 -66 -33 -81 -44 -81 -63 0 -26 9 -25 88 9 29 12 42 14 40 6
-3 -6 -32 -23 -66 -36 l-62 -25 2 -679 3 -680 145 -76 145 -76 95 0 c80 0 112
5 203 34 103 33 111 34 166 23 87 -18 166 -15 276 12 252 62 393 130 570 276
146 120 218 164 383 234 70 30 190 84 267 121 127 61 235 105 257 105 4 0 8
-9 8 -19 0 -11 7 -27 16 -35 35 -36 100 -6 91 41 -4 24 -3 25 42 19 25 -3 179
-10 341 -15 162 -6 324 -15 360 -21 36 -6 144 -37 240 -70 195 -65 213 -70
390 -106 277 -56 343 -66 430 -61 108 6 149 23 186 78 22 33 39 46 73 56 54
16 73 31 69 57 -2 14 -17 25 -47 36 -50 17 -75 55 -86 130 -6 41 -4 46 17 55
45 19 30 99 -22 117 -14 4 6 52 41 96 10 13 30 60 45 105 32 97 64 132 173
192 66 36 111 75 111 96 0 4 -10 20 -23 35 -22 25 -24 26 -53 11 -34 -18 -81
-67 -152 -159 -55 -72 -58 -86 -8 -40 17 15 2 -6 -33 -46 -85 -97 -103 -108
-48 -28 l20 29 -26 -17 c-48 -32 -78 -83 -87 -149 -13 -87 -33 -139 -92 -237
-62 -103 -73 -116 -118 -145 -73 -46 -127 -57 -293 -62 l-158 -5 3 27 c2 17
-3 31 -13 38 -24 15 -49 1 -49 -28 0 -30 -10 -31 -155 -10 -263 37 -421 97
-625 236 -105 71 -163 130 -232 234 -31 46 -74 95 -102 116 -124 94 -366 144
-576 119 -52 -6 -143 -14 -202 -17 -97 -5 -108 -4 -114 12 -5 13 1 25 22 42
101 82 115 96 112 116 -2 11 -11 25 -20 31 -28 17 -64 -11 -109 -86 -60 -99
-133 -169 -221 -210 -40 -20 -87 -47 -103 -60 -17 -14 -38 -28 -48 -31 -9 -4
-20 -19 -23 -34 -7 -33 -72 -132 -96 -147 -12 -7 -24 -6 -41 3 -13 7 -33 11
-43 9 -17 -3 -19 -12 -16 -73 4 -78 -8 -144 -39 -216 -18 -41 -28 -50 -77 -72
-98 -44 -143 -51 -200 -33 -55 19 -99 57 -148 131 -39 58 -41 72 -14 125 11
22 20 50 19 62 l0 23 -11 -22 c-6 -13 -17 -23 -25 -23 -17 0 -17 10 3 38 9 13
11 22 4 22 -16 0 -50 -62 -50 -92 0 -33 -25 -59 -48 -51 -58 20 -97 87 -157
273 -55 171 -96 252 -170 339 -30 35 -61 85 -70 109 -11 33 -40 71 -105 137
-67 69 -97 108 -118 156 -27 59 -62 105 -62 81z m258 -357 c-3 -3 -9 2 -12 12
-6 14 -5 15 5 6 7 -7 10 -15 7 -18z m1703 -38 c-13 -13 -26 -3 -16 12 3 6 11
8 17 5 6 -4 6 -10 -1 -17z m2989 -37 c0 -12 -62 -41 -70 -33 -7 7 40 43 56 43
8 0 14 -5 14 -10z m-3650 -528 c0 -15 -2 -15 -10 -2 -13 20 -13 33 0 25 6 -3
10 -14 10 -23z m3257 -174 c-2 -13 -4 -5 -4 17 -1 22 1 32 4 23 2 -10 2 -28 0
-40z m183 -144 c0 -2 -13 -4 -30 -4 -16 0 -30 4 -30 8 0 5 14 7 30 4 17 -2 30
-6 30 -8z m-190 -94 c0 -15 -42 -50 -59 -50 -11 0 -5 10 17 30 35 32 42 36 42
20z"/>
<path d="M2042 1798 c-7 -7 -12 -24 -12 -38 0 -33 17 -50 51 -50 37 0 62 35
47 64 -6 12 -16 24 -22 28 -17 12 -51 9 -64 -4z"/>
<path d="M802 1141 c-21 -13 -11 -55 14 -59 30 -4 48 21 34 47 -11 22 -27 26
-48 12z"/>
<path d="M4795 854 c-18 -18 -16 -33 7 -47 35 -22 66 21 36 51 -16 16 -23 15
-43 -4z"/>
</g>
</svg>
