<svg width="362" height="350" viewBox="0 0 362 350" fill="none" xmlns="http://www.w3.org/2000/svg">
<path d="M123.472 262.598C126.907 259.174 126.907 253.622 123.472 250.197C120.038 246.773 114.47 246.773 111.036 250.197C107.601 253.622 107.601 259.174 111.036 262.598C114.47 266.023 120.038 266.023 123.472 262.598Z" fill="#D9D9D9"/>
<path d="M240.388 268.458C247.066 268.458 252.481 263.059 252.481 256.4C252.481 249.74 247.066 244.342 240.388 244.342C233.709 244.342 228.294 249.74 228.294 256.4C228.294 263.059 233.709 268.458 240.388 268.458Z" fill="#D9D9D9"/>
<path d="M45.7943 255.303C50.6512 255.303 54.5885 251.377 54.5885 246.534C54.5885 241.691 50.6512 237.765 45.7943 237.765C40.9373 237.765 37 241.691 37 246.534C37 251.377 40.9373 255.303 45.7943 255.303Z" fill="#D9D9D9"/>
<path d="M100.764 252.013C103.193 252.013 105.161 250.051 105.161 247.629C105.161 245.208 103.193 243.245 100.764 243.245C98.3357 243.245 96.367 245.208 96.367 247.629C96.367 250.051 98.3357 252.013 100.764 252.013Z" fill="#D9D9D9"/>
<path d="M321.675 217.558C322.604 215.321 321.539 212.756 319.295 211.83C317.051 210.903 314.479 211.965 313.55 214.203C312.62 216.44 313.686 219.005 315.929 219.931C318.173 220.858 320.745 219.796 321.675 217.558Z" fill="#D9D9D9"/>
<path d="M76.578 260.784C79.0065 260.784 80.9752 258.821 80.9752 256.4C80.9752 253.978 79.0065 252.015 76.578 252.015C74.1496 252.015 72.1809 253.978 72.1809 256.4C72.1809 258.821 74.1496 260.784 76.578 260.784Z" fill="#D9D9D9"/>
<path d="M73.1767 221.45C74.8939 219.737 74.8939 216.961 73.1767 215.249C71.4596 213.537 68.6755 213.537 66.9583 215.249C65.2411 216.961 65.2411 219.737 66.9583 221.45C68.6755 223.162 71.4596 223.162 73.1767 221.45Z" fill="#D9D9D9"/>
<path d="M289.774 241.554C290.704 239.317 289.638 236.752 287.395 235.825C285.151 234.899 282.579 235.961 281.649 238.198C280.72 240.435 281.785 243 284.029 243.927C286.273 244.854 288.845 243.791 289.774 241.554Z" fill="#D9D9D9"/>
<path d="M289.984 0C289.984 0 196.066 65.4976 165.674 223.396C165.118 226.28 164.158 229.106 162.746 231.784C159.464 238.02 154.37 251.604 166.255 260.337C173.769 265.859 184.632 267.308 193.845 263.941C203.006 260.593 212.064 252.054 205.606 230.505C194.128 192.196 212.48 75.837 289.984 0Z" fill="#242423"/>
<path d="M155.66 99.0039C155.66 99.0039 117.585 131.253 105.263 209C105.037 210.419 104.647 211.811 104.076 213.131C102.745 216.201 100.68 222.89 105.499 227.189C108.546 229.907 112.951 230.621 116.685 228.964C120.398 227.316 124.072 223.111 121.453 212.5C116.798 193.635 124.238 136.344 155.66 99.0039Z" fill="#242423"/>
<path d="M305.013 92.1229C305.013 92.1229 268.23 113.698 246.487 177.39C246.091 178.554 245.558 179.669 244.884 180.695C243.314 183.087 240.597 188.418 244.028 192.749C246.197 195.488 249.801 196.736 253.189 195.888C256.558 195.044 260.265 192.041 259.612 182.717C258.448 166.143 273.09 118.965 305.013 92.1229Z" fill="#242423"/>
<path d="M148.375 245.919V245.919C148.723 257.538 153.608 266.475 162.908 272.592C169.402 276.863 176.728 279 183.912 279C190.678 279 197.318 277.105 203.017 273.302L203.017 273.302C208.174 269.867 213.263 264.43 215.757 255.82C218.256 247.194 218.181 235.28 212.795 218.849L212.786 218.822L212.779 218.795C212.634 218.25 211.595 214.168 211.807 209.59C212.018 205.042 213.49 199.678 218.704 197.086L219.149 197.981L218.704 197.086C222.552 195.173 226.792 195.765 229.977 198.656C232.567 201.007 234.679 205.338 232.73 210.365L232.73 210.365C232.565 210.789 232.389 211.222 232.199 211.666M148.375 245.919L231.28 211.272M148.375 245.919C148.088 236.384 150.889 226.742 152.979 219.57L152.979 219.57L153.019 219.432C153.538 217.65 154.033 215.947 154.405 214.488L154.405 214.488C156.093 207.863 154.974 203.33 153.318 200.416C151.681 197.532 149.579 196.339 149.431 196.26L149.431 196.26L149.418 196.253C147.499 195.261 144.297 193.958 141.141 193.23C139.562 192.866 137.954 192.635 136.502 192.677C135.067 192.717 133.657 193.027 132.605 193.87L132.605 193.87C131.25 194.957 130.702 196.921 130.64 199.197C130.576 201.528 131.012 204.451 131.914 207.795M148.375 245.919L131.914 207.795M232.199 211.666L231.28 211.272M232.199 211.666C232.199 211.665 232.199 211.665 232.2 211.665L231.28 211.272M232.199 211.666C228.424 220.495 231.033 227.106 233.872 231.128L233.055 231.705C230.069 227.474 227.336 220.498 231.28 211.272M131.914 207.795C134.652 217.946 133.476 224.884 130.936 229.616C128.387 234.365 124.384 237.037 121.206 238.494C114.62 241.514 106.77 240.986 100.736 237.13C96.4947 234.419 93.8349 230.573 92.7918 225.886C91.744 221.178 92.3149 215.555 94.6759 209.317L94.6759 209.317C95.3503 207.535 95.6957 205.711 95.6957 203.895V203.615C95.6957 200.94 93.5147 198.77 90.8392 198.77H45.4553V193.907H90.8411C96.2129 193.907 100.58 198.266 100.58 203.615V203.895C100.58 206.287 100.132 208.689 99.2446 211.032L99.2445 211.032C98.1756 213.855 97.0227 217.906 97.2105 221.964C97.4002 226.063 98.9684 230.221 103.374 233.037C108.034 236.015 114.08 236.408 119.165 234.076L118.748 233.167L119.165 234.076C123.509 232.084 126.404 228.927 127.747 224.649C129.076 220.415 128.852 215.184 127.2 209.055C124.589 199.371 125.641 193.208 129.55 190.077C132.961 187.347 137.965 187.485 142.574 188.573C147.111 189.643 150.933 191.556 151.708 191.959C151.941 192.085 154.873 193.717 157.212 197.421C159.547 201.119 161.352 206.977 159.136 215.683L131.914 207.795ZM157.666 220.925C158.219 219.025 158.736 217.252 159.135 215.684L157.666 220.925ZM157.666 220.925L157.65 220.98C155.637 227.888 153.061 236.728 153.241 245.319C153.422 253.998 156.419 262.498 165.597 268.534C176.505 275.709 190.135 276.039 200.308 269.262L157.666 220.925ZM210.345 253.379L211.313 253.632C209.578 260.281 205.873 265.556 200.308 269.262L210.345 253.379ZM210.345 253.379L211.313 253.632C213.616 244.801 212.495 233.561 208.135 220.292M210.345 253.379L208.135 220.292M208.135 220.292C208.134 220.289 208.133 220.286 208.132 220.283L208.102 220.186C208.101 220.183 208.1 220.179 208.099 220.176C207.969 219.713 206.573 214.56 206.978 208.648C207.385 202.697 209.591 196.186 216.524 192.738L216.079 191.843L216.525 192.738C222.182 189.924 228.582 190.812 233.267 195.063C238.045 199.401 239.623 206.088 237.287 212.114L237.287 212.115C237.104 212.587 236.906 213.073 236.693 213.568L236.693 213.57C234.405 218.923 234.762 223.936 237.867 228.331C240.274 231.738 244.196 234.044 248.604 234.703C256.073 235.821 261.77 233.921 265.196 228.777C267.978 224.601 268.616 219.134 266.951 214.149C266.167 211.802 265.031 209.494 263.577 207.289M208.135 220.292L267.658 204.622C266.622 203.049 266.217 201.698 266.3 200.489C266.383 199.276 266.947 198.377 267.491 197.702L267.491 197.702C268.729 196.167 270.755 195.313 272.871 195.313H319.044M263.577 207.289C263.577 207.289 263.577 207.289 263.577 207.289L262.742 207.84L263.577 207.289ZM263.577 207.289C261.556 204.223 261.189 201.607 261.491 199.524C261.796 197.415 262.802 195.754 263.683 194.66L263.683 194.66C265.823 192.001 269.16 190.451 272.871 190.451H319.044M319.044 190.451V195.313M319.044 190.451H320.044L262.904 194.033C265.248 191.121 268.881 189.451 272.871 189.451H319.044V190.451ZM319.044 195.313H320.044V196.313H319.044V195.313ZM238.22 212.476C238.032 212.959 237.83 213.456 237.612 213.963C235.444 219.037 235.803 223.677 238.684 227.754C240.919 230.918 244.588 233.091 248.752 233.714C255.969 234.794 261.218 232.946 264.364 228.223L238.22 212.476Z" fill="#242423" fill-opacity="0.5" stroke="white" stroke-width="2"/>
<circle cx="30" cy="320" r="30" fill="#242423"/>
<path d="M13.368 313.4V326H15.996V313.4H13.368ZM17.652 326C18.972 326 20.124 325.742 21.108 325.226C22.104 324.71 22.878 323.984 23.43 323.048C23.982 322.1 24.258 320.984 24.258 319.7C24.258 318.416 23.982 317.306 23.43 316.37C22.878 315.422 22.104 314.69 21.108 314.174C20.124 313.658 18.972 313.4 17.652 313.4H15.024V315.74H17.562C18.114 315.74 18.636 315.818 19.128 315.974C19.62 316.118 20.052 316.352 20.424 316.676C20.796 317 21.084 317.414 21.288 317.918C21.504 318.41 21.612 319.004 21.612 319.7C21.612 320.396 21.504 320.996 21.288 321.5C21.084 321.992 20.796 322.4 20.424 322.724C20.052 323.048 19.62 323.288 19.128 323.444C18.636 323.588 18.114 323.66 17.562 323.66H15.024V326H17.652ZM27.0988 320.456H36.3508V318.134H27.0988V320.456ZM34.7128 313.4V326H37.2868V313.4H34.7128ZM26.2528 313.4V326H28.8268V313.4H26.2528ZM38.7389 315.722H42.1229V326H44.6969V315.722H48.0989V313.4H38.7389V315.722Z" fill="white"/>
<path d="M161.061 322.061C161.646 321.475 161.646 320.525 161.061 319.939L151.515 310.393C150.929 309.808 149.979 309.808 149.393 310.393C148.808 310.979 148.808 311.929 149.393 312.515L157.879 321L149.393 329.485C148.808 330.071 148.808 331.021 149.393 331.607C149.979 332.192 150.929 332.192 151.515 331.607L161.061 322.061ZM100 322.5H160V319.5H100V322.5Z" fill="#242423"/>
<path d="M261.061 322.061C261.646 321.475 261.646 320.525 261.061 319.939L251.515 310.393C250.929 309.808 249.979 309.808 249.393 310.393C248.808 310.979 248.808 311.929 249.393 312.515L257.879 321L249.393 329.485C248.808 330.071 248.808 331.021 249.393 331.607C249.979 332.192 250.929 332.192 251.515 331.607L261.061 322.061ZM200 322.5H260V319.5H200V322.5Z" fill="#242423"/>
<path d="M361.061 322.061C361.646 321.475 361.646 320.525 361.061 319.939L351.515 310.393C350.929 309.808 349.979 309.808 349.393 310.393C348.808 310.979 348.808 311.929 349.393 312.515L357.879 321L349.393 329.485C348.808 330.071 348.808 331.021 349.393 331.607C349.979 332.192 350.929 332.192 351.515 331.607L361.061 322.061ZM300 322.5H360V319.5H300V322.5Z" fill="#242423"/>
</svg>
