<svg width="404" height="296" viewBox="0 0 404 296" fill="none" xmlns="http://www.w3.org/2000/svg">
<path d="M250.623 225.256C254.833 225.256 258.245 221.841 258.245 217.628C258.245 213.415 254.833 210 250.623 210C246.413 210 243 213.415 243 217.628C243 221.841 246.413 225.256 250.623 225.256Z" fill="#D9D9D9"/>
<path d="M99.0818 198.171C101.888 198.171 104.164 195.894 104.164 193.085C104.164 190.277 101.888 188 99.0818 188C96.2752 188 94 190.277 94 193.085C94 195.894 96.2752 198.171 99.0818 198.171Z" fill="#D9D9D9"/>
<path d="M175.179 216.865C178.044 216.865 180.366 214.544 180.366 211.682C180.366 208.82 178.044 206.499 175.179 206.499C172.314 206.499 169.991 208.82 169.991 211.682C169.991 214.544 172.314 216.865 175.179 216.865Z" fill="#D9D9D9"/>
<path d="M325.57 155.755C326.667 153.111 325.41 150.079 322.763 148.983C320.116 147.888 317.082 149.144 315.985 151.788C314.889 154.433 316.146 157.465 318.793 158.56C321.439 159.656 324.474 158.4 325.57 155.755Z" fill="#D9D9D9"/>
<path d="M84.1873 174.365C87.0522 174.365 89.3746 172.045 89.3746 169.183C89.3746 166.32 87.0522 164 84.1873 164C81.3224 164 79 166.32 79 169.183C79 172.045 81.3224 174.365 84.1873 174.365Z" fill="#D9D9D9"/>
<path d="M131.004 210.994C133.03 208.97 133.03 205.689 131.004 203.665C128.978 201.641 125.694 201.641 123.668 203.665C121.642 205.689 121.642 208.97 123.668 210.994C125.694 213.018 128.978 213.018 131.004 210.994Z" fill="#D9D9D9"/>
<path d="M302.57 181.755C303.667 179.111 302.41 176.079 299.763 174.983C297.116 173.888 294.082 175.144 292.985 177.788C291.889 180.433 293.146 183.465 295.793 184.56C298.439 185.656 301.474 184.4 302.57 181.755Z" fill="#D9D9D9"/>
<path d="M195.974 0.000129495C195.974 0.000129495 152.515 63.1976 153.795 162.164C153.818 163.971 153.615 165.856 153.154 167.78C152.077 172.256 150.846 181.445 158.258 183.222C162.943 184.345 168.984 182.219 173.59 177.777C178.17 173.361 182.113 165.987 176.199 155.37C165.689 136.493 162.557 64.6649 195.974 0.000129495Z" fill="#242423"/>
<path d="M276.131 13.2596C276.131 13.2596 231.69 60.2511 233.956 156.453C233.996 158.211 233.804 159.969 233.344 161.678C232.27 165.659 231.081 174.151 238.781 178.288C243.648 180.906 249.886 180.817 254.617 178.018C259.322 175.236 263.337 169.387 257.11 157.182C246.039 135.488 242.109 64.9474 276.131 13.2596Z" fill="#242423"/>
<mask id="path-10-inside-1_1_124" fill="white">
<path fill-rule="evenodd" clip-rule="evenodd" d="M182.379 154.572C178.7 140.909 179.966 131.471 186.143 126.517C196.49 118.218 215.459 127.369 218.456 128.907C218.456 128.907 218.457 128.906 218.458 128.906C218.539 128.974 218.867 129.241 219.272 129.571C220.05 130.206 221.115 131.073 221.266 131.212C228.377 137.679 230.728 147.667 227.253 156.652C226.991 157.327 226.708 158.024 226.403 158.736C223.371 165.844 223.876 172.349 227.902 178.064C231.027 182.5 236.159 185.543 241.983 186.416C252.076 187.926 259.418 185.337 263.818 178.721C267.451 173.251 268.309 166.045 266.11 159.441C265.055 156.275 263.521 153.15 261.55 150.155C255.549 141.032 259.116 134.116 261.777 130.806C265.057 126.725 270.139 124.384 275.717 124.384H404V134.001L275.717 134.001C273.112 134.001 270.705 135.058 269.284 136.831C267.929 138.515 266.909 140.789 269.596 144.878C272.025 148.572 273.924 152.451 275.244 156.409C278.37 165.799 277.098 176.131 271.835 184.046C265.373 193.764 254.262 197.984 240.554 195.929C232.141 194.666 224.661 190.174 220.031 183.602C215.853 177.674 212.033 167.894 217.55 154.965C217.809 154.359 218.049 153.766 218.274 153.187C220.742 146.808 218.092 141.325 214.787 138.323C214.403 137.973 214.01 137.653 213.604 137.356C213.628 137.327 213.651 137.297 213.674 137.266C208.243 134.566 196.545 130.495 192.162 134.02C189.365 136.267 189.186 142.85 191.67 152.077C199.471 181.059 185.157 192.499 175.93 196.737C166.291 201.166 154.811 200.399 145.963 194.733C133.485 186.739 130.193 171.922 136.933 154.079C137.82 151.73 138.269 149.341 138.269 146.976V146.584C138.269 143.613 135.852 141.195 132.875 141.195H0V131.578H132.878C141.16 131.578 147.897 138.309 147.897 146.584V146.976C147.897 150.505 147.238 154.036 145.939 157.474C143.006 165.236 139.784 179.348 151.159 186.635C157.269 190.55 165.22 191.071 171.909 187.999C183.405 182.716 186.926 171.471 182.379 154.572Z"/>
</mask>
<path fill-rule="evenodd" clip-rule="evenodd" d="M182.379 154.572C178.7 140.909 179.966 131.471 186.143 126.517C196.49 118.218 215.459 127.369 218.456 128.907C218.456 128.907 218.457 128.906 218.458 128.906C218.539 128.974 218.867 129.241 219.272 129.571C220.05 130.206 221.115 131.073 221.266 131.212C228.377 137.679 230.728 147.667 227.253 156.652C226.991 157.327 226.708 158.024 226.403 158.736C223.371 165.844 223.876 172.349 227.902 178.064C231.027 182.5 236.159 185.543 241.983 186.416C252.076 187.926 259.418 185.337 263.818 178.721C267.451 173.251 268.309 166.045 266.11 159.441C265.055 156.275 263.521 153.15 261.55 150.155C255.549 141.032 259.116 134.116 261.777 130.806C265.057 126.725 270.139 124.384 275.717 124.384H404V134.001L275.717 134.001C273.112 134.001 270.705 135.058 269.284 136.831C267.929 138.515 266.909 140.789 269.596 144.878C272.025 148.572 273.924 152.451 275.244 156.409C278.37 165.799 277.098 176.131 271.835 184.046C265.373 193.764 254.262 197.984 240.554 195.929C232.141 194.666 224.661 190.174 220.031 183.602C215.853 177.674 212.033 167.894 217.55 154.965C217.809 154.359 218.049 153.766 218.274 153.187C220.742 146.808 218.092 141.325 214.787 138.323C214.403 137.973 214.01 137.653 213.604 137.356C213.628 137.327 213.651 137.297 213.674 137.266C208.243 134.566 196.545 130.495 192.162 134.02C189.365 136.267 189.186 142.85 191.67 152.077C199.471 181.059 185.157 192.499 175.93 196.737C166.291 201.166 154.811 200.399 145.963 194.733C133.485 186.739 130.193 171.922 136.933 154.079C137.82 151.73 138.269 149.341 138.269 146.976V146.584C138.269 143.613 135.852 141.195 132.875 141.195H0V131.578H132.878C141.16 131.578 147.897 138.309 147.897 146.584V146.976C147.897 150.505 147.238 154.036 145.939 157.474C143.006 165.236 139.784 179.348 151.159 186.635C157.269 190.55 165.22 191.071 171.909 187.999C183.405 182.716 186.926 171.471 182.379 154.572Z" fill="#242423" fill-opacity="0.5"/>
<path d="M186.143 126.517L188.02 128.857L188.02 128.857L186.143 126.517ZM182.379 154.572L185.276 153.793L185.276 153.793L182.379 154.572ZM218.456 128.907L217.086 131.576L218.664 132.387L220.135 131.393L218.456 128.907ZM218.458 128.906L220.39 126.611L218.657 125.151L216.779 126.42L218.458 128.906ZM219.272 129.571L221.167 127.246L221.167 127.246L219.272 129.571ZM221.266 131.212L219.237 133.422L219.247 133.431L221.266 131.212ZM227.253 156.652L230.05 157.736L230.051 157.734L227.253 156.652ZM226.403 158.736L223.644 157.558L223.644 157.559L226.403 158.736ZM227.902 178.064L225.449 179.792L225.449 179.792L227.902 178.064ZM241.983 186.416L241.539 189.383L241.539 189.383L241.983 186.416ZM263.818 178.721L266.316 180.382L266.317 180.381L263.818 178.721ZM266.11 159.441L268.956 158.493L268.956 158.492L266.11 159.441ZM261.55 150.155L259.043 151.804L259.044 151.805L261.55 150.155ZM261.777 130.806L264.115 132.686L264.115 132.686L261.777 130.806ZM404 124.384H407V121.384H404V124.384ZM404 134.001L404 137.001L407 137.001V134.001H404ZM275.717 134.001L275.717 137.001L275.717 134.001ZM269.284 136.831L271.622 138.711L271.624 138.707L269.284 136.831ZM269.596 144.878L267.089 146.526L267.089 146.526L269.596 144.878ZM275.244 156.409L278.09 155.461L278.09 155.46L275.244 156.409ZM271.835 184.046L269.337 182.384L269.337 182.384L271.835 184.046ZM240.554 195.929L240.109 198.895L240.109 198.896L240.554 195.929ZM220.031 183.602L222.484 181.875L222.484 181.874L220.031 183.602ZM217.55 154.965L214.791 153.785L214.79 153.788L217.55 154.965ZM218.274 153.187L221.071 154.271L221.071 154.27L218.274 153.187ZM214.787 138.323L212.769 140.543L212.77 140.543L214.787 138.323ZM213.604 137.356L211.258 135.487L209.307 137.935L211.836 139.78L213.604 137.356ZM213.674 137.266L216.051 139.096L218.278 136.205L215.01 134.58L213.674 137.266ZM192.162 134.02L194.041 136.358L194.042 136.358L192.162 134.02ZM191.67 152.077L194.567 151.297L194.567 151.297L191.67 152.077ZM175.93 196.737L174.678 194.011L174.677 194.011L175.93 196.737ZM145.963 194.733L144.345 197.259L144.345 197.259L145.963 194.733ZM136.933 154.079L139.74 155.139L139.74 155.138L136.933 154.079ZM0 141.195H-3V144.195H0V141.195ZM0 131.578V128.578H-3V131.578H0ZM145.939 157.474L148.745 158.534L148.746 158.534L145.939 157.474ZM151.159 186.635L152.778 184.109L152.778 184.108L151.159 186.635ZM171.909 187.999L173.161 190.725L173.162 190.724L171.909 187.999ZM184.266 124.177C176.578 130.343 175.751 141.493 179.482 155.352L185.276 153.793C181.65 140.325 183.355 132.599 188.02 128.857L184.266 124.177ZM219.826 126.238C218.235 125.422 212.484 122.62 205.715 121.096C199.11 119.61 190.566 119.124 184.266 124.177L188.02 128.857C192.067 125.611 198.182 125.551 204.397 126.95C210.448 128.312 215.68 130.855 217.086 131.576L219.826 126.238ZM216.779 126.42C216.771 126.425 216.764 126.43 216.76 126.433C216.758 126.434 216.756 126.435 216.755 126.436C216.754 126.437 216.754 126.437 216.753 126.437C216.753 126.437 216.753 126.437 216.753 126.437C216.752 126.438 216.755 126.436 216.759 126.433C216.762 126.431 216.769 126.427 216.777 126.421L220.135 131.393C220.143 131.388 220.15 131.383 220.154 131.38C220.156 131.379 220.158 131.378 220.159 131.377C220.159 131.377 220.16 131.376 220.16 131.376C220.161 131.376 220.161 131.376 220.161 131.376C220.161 131.375 220.159 131.377 220.155 131.38C220.151 131.382 220.145 131.387 220.137 131.392L216.779 126.42ZM221.167 127.246C220.964 127.081 220.783 126.932 220.642 126.817C220.571 126.76 220.512 126.711 220.467 126.674C220.444 126.655 220.426 126.64 220.412 126.629C220.405 126.623 220.399 126.618 220.395 126.615C220.391 126.612 220.39 126.61 220.39 126.611L216.526 131.201C216.631 131.29 216.989 131.581 217.377 131.897L221.167 127.246ZM223.294 129.002C223.057 128.784 221.873 127.821 221.167 127.246L217.377 131.897C217.767 132.215 218.224 132.587 218.602 132.897C218.791 133.053 218.956 133.189 219.082 133.293C219.237 133.422 219.266 133.448 219.237 133.422L223.294 129.002ZM230.051 157.734C233.972 147.597 231.315 136.296 223.284 128.992L219.247 133.431C225.439 139.063 227.484 147.738 224.455 155.569L230.051 157.734ZM229.162 159.915C229.48 159.171 229.776 158.443 230.05 157.736L224.455 155.567C224.206 156.211 223.935 156.876 223.644 157.558L229.162 159.915ZM230.354 176.336C226.999 171.573 226.487 166.186 229.162 159.914L223.644 157.559C220.255 165.503 220.753 173.126 225.449 179.792L230.354 176.336ZM242.428 183.449C237.337 182.686 232.965 180.041 230.354 176.336L225.449 179.792C229.09 184.959 234.982 188.4 241.539 189.383L242.428 183.449ZM261.32 177.059C257.758 182.416 251.761 184.846 242.427 183.449L241.539 189.383C252.391 191.007 261.078 188.259 266.316 180.382L261.32 177.059ZM263.264 160.389C265.191 166.176 264.407 172.412 261.319 177.06L266.317 180.381C270.495 174.09 271.427 165.913 268.956 158.493L263.264 160.389ZM259.044 151.805C260.882 154.597 262.297 157.488 263.264 160.39L268.956 158.492C267.813 155.063 266.16 151.703 264.055 148.505L259.044 151.805ZM259.439 128.927C257.898 130.843 256.021 133.889 255.446 137.872C254.86 141.933 255.67 146.675 259.043 151.804L264.056 148.507C261.429 144.512 261.023 141.235 261.385 138.729C261.758 136.146 262.995 134.079 264.115 132.686L259.439 128.927ZM275.717 121.384C269.298 121.384 263.33 124.086 259.439 128.927L264.115 132.686C266.785 129.365 270.979 127.384 275.717 127.384V121.384ZM404 121.384H275.717V127.384H404V121.384ZM407 134.001V124.384H401V134.001H407ZM275.717 137.001L404 137.001L404 131.001L275.717 131.001L275.717 137.001ZM271.624 138.707C272.387 137.756 273.87 137.001 275.717 137.001V131.001C272.355 131.001 269.023 132.36 266.943 134.954L271.624 138.707ZM272.103 143.23C270.985 141.529 270.888 140.586 270.917 140.158C270.946 139.742 271.123 139.331 271.622 138.711L266.946 134.951C266.09 136.014 265.08 137.583 264.931 139.747C264.784 141.9 265.52 144.138 267.089 146.526L272.103 143.23ZM278.09 155.46C276.683 151.241 274.666 147.129 272.103 143.23L267.089 146.526C269.383 150.016 271.165 153.66 272.398 157.358L278.09 155.46ZM274.333 185.707C280.132 176.986 281.494 165.685 278.09 155.461L272.397 157.356C275.246 165.913 274.064 175.277 269.337 182.384L274.333 185.707ZM240.109 198.896C254.702 201.083 267.089 196.6 274.333 185.707L269.337 182.384C263.656 190.928 253.822 194.884 240.999 192.962L240.109 198.896ZM217.579 185.33C222.711 192.614 230.939 197.519 240.109 198.895L240.999 192.962C233.344 191.813 226.612 187.734 222.484 181.875L217.579 185.33ZM214.79 153.788C208.768 167.902 212.961 178.778 217.579 185.331L222.484 181.874C218.746 176.571 215.298 167.887 220.309 156.142L214.79 153.788ZM215.476 152.103C215.264 152.652 215.036 153.213 214.791 153.785L220.308 156.145C220.581 155.505 220.835 154.881 221.071 154.271L215.476 152.103ZM212.77 140.543C215.385 142.919 217.395 147.145 215.476 152.105L221.071 154.27C224.089 146.471 220.799 139.732 216.805 136.102L212.77 140.543ZM211.836 139.78C212.153 140.012 212.463 140.264 212.769 140.543L216.805 136.103C216.342 135.682 215.867 135.294 215.372 134.933L211.836 139.78ZM211.297 135.436C211.284 135.454 211.271 135.47 211.258 135.487L215.95 139.226C215.984 139.183 216.018 139.14 216.051 139.096L211.297 135.436ZM194.042 136.358C194.426 136.049 195.235 135.718 196.728 135.658C198.177 135.6 199.945 135.812 201.879 136.239C205.747 137.091 209.797 138.689 212.339 139.953L215.01 134.58C212.12 133.143 207.605 131.356 203.17 130.379C200.954 129.891 198.636 129.577 196.489 129.663C194.386 129.747 192.09 130.228 190.282 131.682L194.042 136.358ZM194.567 151.297C193.367 146.839 192.861 143.196 192.934 140.513C193.012 137.669 193.708 136.626 194.041 136.358L190.283 131.681C187.819 133.661 187.027 137.033 186.937 140.349C186.842 143.826 187.489 148.088 188.774 152.857L194.567 151.297ZM177.182 199.464C182.164 197.175 188.665 192.878 192.83 185.103C197.025 177.273 198.619 166.351 194.567 151.297L188.774 152.857C192.522 166.784 190.86 176.074 187.541 182.269C184.193 188.519 178.923 192.061 174.678 194.011L177.182 199.464ZM144.345 197.259C154.064 203.484 166.626 204.313 177.182 199.463L174.677 194.011C165.956 198.018 155.558 197.315 147.581 192.207L144.345 197.259ZM134.127 153.019C130.611 162.326 129.613 171.099 131.313 178.75C133.026 186.465 137.445 192.839 144.345 197.259L147.582 192.207C142.003 188.633 138.536 183.601 137.17 177.449C135.789 171.232 136.515 163.675 139.74 155.139L134.127 153.019ZM135.269 146.976C135.269 148.958 134.894 150.988 134.127 153.019L139.74 155.138C140.747 152.471 141.269 149.724 141.269 146.976H135.269ZM135.269 146.584V146.976H141.269V146.584H135.269ZM132.875 144.195C134.196 144.195 135.269 145.271 135.269 146.584H141.269C141.269 141.955 137.507 138.195 132.875 138.195V144.195ZM0 144.195H132.875V138.195H0V144.195ZM-3 131.578V141.195H3V131.578H-3ZM132.878 128.578H0V134.578H132.878V128.578ZM150.897 146.584C150.897 136.65 142.814 128.578 132.878 128.578V134.578C139.505 134.578 144.897 139.969 144.897 146.584H150.897ZM150.897 146.976V146.584H144.897V146.976H150.897ZM148.746 158.534C150.166 154.772 150.897 150.883 150.897 146.976H144.897C144.897 150.127 144.309 153.3 143.133 156.414L148.746 158.534ZM152.778 184.108C148.105 181.115 146.397 176.788 146.18 172.094C145.958 167.278 147.34 162.255 148.745 158.534L143.133 156.413C141.605 160.455 139.91 166.369 140.187 172.371C140.47 178.495 142.838 184.867 149.541 189.161L152.778 184.108ZM170.657 185.272C164.879 187.926 158.012 187.463 152.778 184.109L149.541 189.16C156.527 193.638 165.56 194.216 173.161 190.725L170.657 185.272ZM179.482 155.352C181.675 163.503 181.811 169.91 180.297 174.745C178.823 179.451 175.7 182.955 170.657 185.273L173.162 190.724C179.614 187.76 183.999 183 186.023 176.538C188.006 170.205 187.629 162.54 185.276 153.793L179.482 155.352Z" fill="white" mask="url(#path-10-inside-1_1_124)"/>
<path d="M197.839 233.383C185.011 237.807 99.9552 267.313 69.062 282.69C68.3854 283.028 67.7057 283.184 66.9809 283.184H63.0686C57.016 283.184 55.0215 272.743 60.3876 269.108C118.89 229.468 155.964 209.805 180.908 200.007C182.177 199.508 183.276 198.477 184.033 197.065L194.12 178.242C195.209 176.21 196.992 175 198.898 175H211.679C213.533 175 215.276 176.144 216.372 178.085L227.315 197.43C227.985 198.615 228.919 199.528 229.98 200.044C298.425 233.4 347.172 269.652 371.284 287.848C394.785 305.584 345.836 289.02 342.576 287.906C342.459 287.865 342.414 287.853 342.298 287.802C338.719 286.249 247.146 246.559 212.58 233.413C211.53 233.014 210.631 232.261 209.901 231.202L209.583 230.741C207.27 227.375 203.215 227.375 200.901 230.741L200.632 231.129C199.873 232.233 198.941 233.004 197.839 233.383Z" fill="url(#paint0_linear_1_124)"/>
<path fill-rule="evenodd" clip-rule="evenodd" d="M210.802 198.023C209.519 199.034 209.108 201.204 209.886 202.87L209.983 203.077C210.763 204.741 212.436 205.268 213.717 204.252C214.998 203.238 215.404 201.065 214.622 199.402L214.534 199.213C213.756 197.546 212.085 197.012 210.802 198.023ZM216.782 209.717C215.674 211.03 215.596 213.264 216.607 214.703L216.736 214.885C217.753 216.319 219.47 216.41 220.575 215.091C221.679 213.77 221.751 211.537 220.734 210.103L220.621 209.944C219.61 208.504 217.89 208.404 216.782 209.717ZM226.937 223.544C225.555 223.249 224.557 221.625 224.67 219.783C224.79 217.839 226.1 216.39 227.595 216.543L227.628 216.548L227.964 216.574L228.383 216.745C229.814 217.335 230.605 219.319 230.151 221.177C229.718 222.949 228.307 223.967 226.937 223.544ZM236.349 223.761C235.885 225.613 236.665 227.605 238.092 228.207L238.282 228.288C239.708 228.89 241.242 227.877 241.707 226.024C242.171 224.171 241.391 222.18 239.965 221.578L239.774 221.497C238.346 220.892 236.812 221.908 236.349 223.761ZM247.854 228.661C247.377 230.509 248.146 232.508 249.568 233.128L249.755 233.209C251.177 233.826 252.716 232.83 253.194 230.983C253.671 229.135 252.903 227.133 251.48 226.516L251.294 226.433C249.871 225.815 248.33 226.811 247.854 228.661ZM259.29 233.675C258.801 235.518 259.554 237.527 260.971 238.162L261.163 238.248C262.582 238.883 264.129 237.907 264.618 236.065C265.109 234.222 264.356 232.213 262.937 231.575L262.745 231.489C261.326 230.854 259.779 231.832 259.29 233.675ZM270.746 238.858C270.241 240.693 270.979 242.712 272.392 243.368L272.576 243.453C273.989 244.109 275.544 243.153 276.048 241.318C276.555 239.483 275.817 237.464 274.404 236.806L274.218 236.72C272.805 236.065 271.25 237.023 270.746 238.858ZM282.125 244.187C281.605 246.014 282.323 248.044 283.731 248.722L283.919 248.81C285.326 249.488 286.888 248.555 287.411 246.728C287.931 244.9 287.213 242.868 285.805 242.193L285.617 242.102C284.21 241.424 282.648 242.359 282.125 244.187ZM293.445 249.685C292.907 251.505 293.606 253.547 295.005 254.248L295.194 254.341C296.593 255.042 298.167 254.134 298.707 252.317C299.244 250.497 298.548 248.455 297.146 247.754L296.958 247.658C295.557 246.96 293.984 247.867 293.445 249.685ZM304.724 255.387C304.165 257.197 304.84 259.251 306.234 259.977L306.42 260.076C307.812 260.802 309.393 259.924 309.954 258.117C310.513 256.307 309.838 254.253 308.446 253.527L308.258 253.428C306.864 252.702 305.283 253.58 304.724 255.387ZM315.948 261.313C315.366 263.111 316.016 265.18 317.4 265.934L317.582 266.035C318.966 266.791 320.56 265.947 321.142 264.149C321.722 262.355 321.074 260.285 319.69 259.529L319.506 259.428C318.122 258.674 316.528 259.519 315.948 261.313ZM327.06 267.459C326.456 269.244 327.079 271.326 328.451 272.113L328.628 272.213C330.002 273 331.605 272.191 332.211 270.406C332.817 268.624 332.194 266.539 330.821 265.755L330.643 265.652C329.269 264.868 327.665 265.674 327.06 267.459ZM338.117 273.867C337.488 275.637 338.086 277.732 339.449 278.548L339.623 278.652C340.988 279.468 342.601 278.695 343.23 276.925C343.857 275.153 343.261 273.058 341.898 272.241L341.722 272.135C340.357 271.321 338.744 272.095 338.117 273.867ZM349.097 280.499C348.457 282.262 349.037 284.364 350.394 285.198L350.572 285.309C351.929 286.141 353.55 285.39 354.192 283.628C354.833 281.866 354.252 279.761 352.897 278.929L352.717 278.818C351.36 277.984 349.74 278.737 349.097 280.499ZM360.036 287.21C359.413 288.982 360.017 291.077 361.381 291.884L361.562 291.992C362.928 292.799 364.539 292.015 365.16 290.243C365.783 288.468 365.18 286.376 363.813 285.566L363.637 285.463C362.27 284.654 360.659 285.435 360.036 287.21Z" fill="white"/>
<path fill-rule="evenodd" clip-rule="evenodd" d="M207.227 185.111C208.626 185.812 209.325 187.854 208.785 189.674L208.719 189.898C208.174 191.713 206.6 192.613 205.2 191.907C203.803 191.199 203.11 189.155 203.653 187.337L203.714 187.135C204.253 185.318 205.825 184.41 207.227 185.111ZM202.889 197.884C204.17 198.898 204.575 201.071 203.795 202.734L203.698 202.939C202.914 204.6 201.241 205.122 199.962 204.103C198.683 203.082 198.281 200.909 199.065 199.248L199.154 199.061C199.935 197.395 201.608 196.868 202.889 197.884ZM196.915 209.503C198.021 210.821 198.095 213.055 197.08 214.489L196.951 214.671C195.931 216.1 194.213 216.186 193.11 214.862C192.01 213.536 191.944 211.303 192.963 209.873L193.075 209.717C194.091 208.28 195.81 208.184 196.915 209.503ZM186.729 223.267C188.136 223.002 189.161 221.361 189.046 219.495C188.928 217.552 187.618 216.102 186.123 216.256L186.09 216.259L185.799 216.281L185.422 216.417C183.978 216.944 183.136 218.893 183.542 220.771C183.934 222.576 185.337 223.657 186.729 223.267ZM177.754 222.914C178.171 224.787 177.34 226.743 175.9 227.285L175.714 227.355C174.272 227.897 172.766 226.818 172.348 224.945C171.931 223.075 172.76 221.116 174.202 220.574L174.388 220.504C175.83 219.962 177.336 221.041 177.754 222.914ZM166.581 227.151C167.011 229.017 166.194 230.985 164.756 231.542L164.573 231.613C163.135 232.173 161.621 231.111 161.191 229.243C160.76 227.378 161.577 225.412 163.015 224.852L163.199 224.782C164.637 224.222 166.151 225.283 166.581 227.151ZM155.463 231.51C155.907 233.37 155.104 235.346 153.671 235.924L153.491 235.997C152.057 236.574 150.535 235.53 150.091 233.67C149.647 231.807 150.449 229.831 151.882 229.254L152.063 229.18C153.497 228.606 155.019 229.647 155.463 231.51ZM144.412 235.997C144.872 237.852 144.086 239.841 142.657 240.436L142.473 240.514C141.044 241.112 139.513 240.091 139.053 238.235C138.594 236.38 139.379 234.391 140.808 233.796L140.994 233.718C142.422 233.12 143.953 234.141 144.412 235.997ZM133.326 240.675C133.803 242.523 133.035 244.525 131.612 245.142L131.433 245.221C130.01 245.841 128.47 244.845 127.993 242.997C127.516 241.149 128.283 239.148 129.706 238.53L129.886 238.45C131.309 237.832 132.849 238.828 133.326 240.675ZM122.349 245.505C122.845 247.346 122.098 249.36 120.682 250.003L120.499 250.086C119.083 250.731 117.533 249.761 117.036 247.923C116.54 246.083 117.286 244.068 118.703 243.423L118.886 243.34C120.303 242.697 121.853 243.665 122.349 245.505ZM111.401 250.545C111.918 252.375 111.196 254.401 109.787 255.074L109.613 255.158C108.204 255.831 106.642 254.893 106.125 253.063C105.607 251.233 106.329 249.206 107.738 248.533L107.914 248.45C109.322 247.777 110.884 248.714 111.401 250.545ZM100.508 255.811C101.049 257.631 100.354 259.672 98.9544 260.376L98.7807 260.464C97.3813 261.167 95.8074 260.265 95.2655 258.447C94.7234 256.63 95.4184 254.585 96.8178 253.882L96.9931 253.794C98.3927 253.091 99.9664 253.993 100.508 255.811ZM89.7123 261.319C90.2808 263.121 89.616 265.183 88.2271 265.922L88.0563 266.012C86.6675 266.751 85.0806 265.889 84.5115 264.084C83.9425 262.282 84.6068 260.219 85.9954 259.481L86.1679 259.388C87.5569 258.652 89.1436 259.514 89.7123 261.319ZM78.9624 267.124C79.5604 268.911 78.9294 270.991 77.5531 271.767L77.3788 271.866C76.0027 272.645 74.4018 271.825 73.8033 270.038C73.2047 268.251 73.8349 266.171 75.211 265.395L75.3872 265.294C76.7636 264.517 78.3642 265.337 78.9624 267.124ZM68.3438 273.214C68.9713 274.984 68.3749 277.081 67.0116 277.896L66.8373 277.999C65.4743 278.816 63.8603 278.042 63.2324 276.27C62.6045 274.5 63.2004 272.405 64.5635 271.588L64.7393 271.483C66.1024 270.668 67.7163 271.442 68.3438 273.214ZM57.8168 279.592C58.4651 281.349 57.8935 283.457 56.5399 284.298L56.3702 284.404C55.0168 285.246 53.394 284.505 52.7455 282.746C52.0973 280.989 52.6687 278.881 54.0221 278.039L54.1923 277.933C55.5459 277.091 57.1685 277.833 57.8168 279.592ZM47.3523 286.113C47.9843 287.881 47.3932 289.98 46.0323 290.8L45.8607 290.903C44.4993 291.725 42.8839 290.956 42.2527 289.186C41.6215 287.419 42.2135 285.319 43.575 284.5L43.7431 284.399C45.1043 283.578 46.7201 284.346 47.3523 286.113Z" fill="white"/>
<defs>
<linearGradient id="paint0_linear_1_124" x1="208.783" y1="138.448" x2="208.783" y2="296" gradientUnits="userSpaceOnUse">
<stop offset="0.177083" stop-color="#242423"/>
<stop offset="1" stop-color="#242423" stop-opacity="0"/>
</linearGradient>
</defs>
</svg>
